<mxfile host="65bd71144e">
    <diagram id="JB4LLhmEIooDA8ofoKU0" name="Page-1">
        <mxGraphModel dx="621" dy="651" grid="1" gridSize="10" guides="1" tooltips="1" connect="1" arrows="1" fold="1" page="1" pageScale="1" pageWidth="827" pageHeight="583" background="#ffffff" math="1" shadow="0">
            <root>
                <mxCell id="0"/>
                <mxCell id="1" parent="0"/>
                <mxCell id="5" value="" style="shape=image;imageAspect=0;aspect=fixed;verticalLabelPosition=bottom;verticalAlign=top;strokeColor=#6666FF;strokeWidth=1;fillColor=none;image=data:image/png,iVBORw0KGgoAAAANSUhEUgAAAggAAAFKCAYAAAB4hKeZAAAAAXNSR0IArs4c6QAAIABJREFUeF7sXQV8VlUfft5cNxsbbCxZB93dXQLSigIqCgiC9YmC2IKICCh2IEiIhDQoJR1LxsYa2Fj33r1x7/c75+7OgcBAFm+cK/7Q7X3vPec5cZ/zj+cv4XmeB7sYAgwBhgBDgCHAEGAI1EBAwggCmw8MAYYAQ4AhwBBgCNyJACMIbE4wBBgCDAGGAEOAIfAvBBhBYJOCIcAQYAgwBBgCDAFGENgcYAgwBBgCDAGGAEOgdgSYBaF2jNgnGAIMAYYAQ4AhYHIIMIJgckPOOswQYAgwBBgCDIHaEWAEoXaM2CcYAgwBhgBDgCFgcggwgmByQ846zBBgCDAEGAIMgdoRYAShdozYJxgCDAGGAEOAIWByCDCCYHJDzjrMEGAIMAQYAgyB2hFgBKF2jNgnGAIMAYYAQ4AhYHIIMIJgckPOOswQYAgwBBgCDIHaEWAEoXaM2CcYAgwBhgBDgCFgcggwgmByQ846zBBgCDAEGAIMgdoRYAShdoyM4hOkqLdOwyEvvRSaCi0ACf3j1MIKFjZK+t/sYggwBBgCpooAz/OQSCQozCxHaY4KkAiborWTGWybWkAqFfZMU7oYQTCR0eY4DpVlWhz/NgFpF3MhgRRkQbQb64VWw1tQFMjiYBdDgCHAEDA1BMheCOEP9n8Sg4zIPEilUkAKdBjvjeB+zSCVSYSfmdDFCIIJDDad/ADIX9F7M3B+Wyo4HQ9wPJz9bDD0tVaQySWUIDCSYAITgnWRIcAQ+BcCZJ8syVVhx5JLUJVoqAHBzEaBvs8HwS3AXjC6mtghihEEE1koxIIggQRZCUU4vCYOqhItJQxSOTD8f63QxMtGMKGxiyHAEGAImBgChByQ/fDqsSwc//oqpDIpePBo6meLvi8Ew9JOCYkJ7o+MIJjQQuA5HhqVFvtXxiLzSiGkcgl0ah6dn/BFWH93k2TIJjT8rKsMAYbAPRCgBEHH4/C6eKSczaYEQafRIWywBzpN9BGsq4wgsPljrAiIDJlYyM5uTsHF39OgUMooS/Zu1wQ9ZwZCppQyK4KxTgDWL4YAQ+CuCNC9keNRkqfC3o9iUJJTQa2t5Oe9ZwfBp4MzdTeYmnuBgMUsCCa0aKibQSLB9ah87PsklgYlEKeCjasFBi8Ko9G6LA7BhCYE6ypDgCFAiQCJTsyIzsfh1XE024vjAStHMwx7LQK2LuY068vEwg/ozGAEwYQWiBisWJpXif0rYpCfUQqJTAKZQoL+c0PRPNQeEonUJBeCCU0D1lWGAEOgBgKiBeHSrnRc/C2NpjdyGg4tu7ug25P+kJuRPdE0A7gZQTChpSK6GbSVOprJELP/OiRSKXiOQ9gQD3QY6w2JDCaXymNCU4B1lSHAELgDAWJZ1Wl4HFgZg5uxhTS1kVw9ZwbAt5MLdbuaYvwBsyCY4FIR2XL65XwcWXcFnJajwTn27lYYsbg1lBYywbRkivY0E5wPrMsMAVNGQHQvFOeQ9MaLVCuG+BusHMwx5JVw2LlamHTwNrMgmODq4DgeRVnlOLgqFsVZFTS9h5jVhrwaRvN9pTQixwSBYV1mCDAETAoBsvdxOg4JJL3x2wQhvZHn4RHhiJ6zAmFmJTNpiyojCCa1HITOkgVA0h2PfZOIlLM5gFQCbYUObcd6od0YT2pOYxYEE5wYrMsMARNCQIzJ0qh0OLQ6TlBPlAsW1DajW6D1sBY0RsuU90JGEExoQYhdFWIReMQeuIGTP16DXCmjLNrV3w79XwyFmbVcsCKwiyHAEGAIGCkCYkxW4c0y7FwWSQ9NJL1RppRQcST3MEeTT/tmBMFIJ//9uiUShFvXivHH+1FUcpm4FJQWcvSfH4KmvrbMimCC84J1mSFgSgiI8QcJJ7Pw57p4elAiegj2zSwxaFEYrBxI2rdpx2MxgmBKK6JGXzmeh7pMi70fRSE7uQQyuRC622mSD4L7NTf5hWGi04J1myFgMggQgqDT8ji94RriDt+k1gKtmkNQ32bo9oQfLc5EsrxM+WIEwURHnywOTsvj8h/pOLc5BXKFjLodfDo7o9sT/lCay0w2tcdEpwTrNkPApBAgBevKCipxaPUV5KaVQMKDyiv3nRsCn/bOJlne+c4JwAiCSS2JfzpLxcN4HnkZpdi17DJ0ao7+ktQ9J+Y12ybmjCCY6Nxg3WYIGDsCYoDirYRiHPg0BupyLYhV1cJOidFL21D3ArlMOUCR9p8XkTL2GcH69y8EiECIVs3jj/cjkZtSQlMdJVKg79xgeIY5mnwEL5syDAGGgHEiQFK9dVoOMftv4NyWFBqUTQK1fTq7oNeMAEgVrC4NIwjGOfcfuFckIIfEJ57dlEQXCpUY1XII7t8MHSf4QmEm+N9MnUU/MKDsgwwBhoDeIyAGaZOS90fWXMGN2AJISQyWhKdF6/w6u1RJK+t9V+q9gcyCUO8Q6+8DxCje5HM5+OvLeKqoSJi1vZslBr8cXl28SX97wFrGEGAIMAQeDgFx38tOLsaeD6NBpOdJtgJxL5B9z6GZpUmrJ9ZEkxGEh5tbRvdpEqhTmFVOsxkqCtXUikAWUP8XQ9AiwokKKpqqDrnRDTbrEEOAISBUbwQQuScDp39KgtxMCNBuFuKAvs8HQWlp2uqJjCCwRVKNAPXFqTkcXhMHUp+BZPXodDxaDWuB9uO8qskBczOwScMQYAgYOgKi9YCkMx5eewVpF3Ihk5P4A54qybYe7imkeEuZUBx1L7MgRUOf8o/Wfo7naC30mAM3cPrnJEjlEpAfuQXZo8/sQJjbKE1eTezREGbfZggwBPQJARJ7lZteioOr4lCeX0mbxoOn7oVmQfb0/4kmArsYQTD5OVAtN5pVjp1vX4KmQkflRi3sFej7fDBc/GyZaJLJzxIGAEPAOBAg5ID8c+VIFs5sTKKWAyHuygIjFreCmaWCWQ9qDDWzIBjHvP/PvRAjeokVYc/H0bgZUwCJjKT4AB0n+iKoj5ugKMZqM/xnjNkXGQIMAf1AgJABUpzp5PcJSD6dUx1zFTrIHZ0m+FDyQPY6tt8J48UIgn7M20ZtBWHVJBox8o8MqqpIFgfPcfBs74zuT7akxZvYomnUIWIPZwgwBOoAAUIQCm+W4+BnQql7sq/JzaRUHK6pn63wUmSHoWqkGUGog0ln6LcgVgTiViBpP3tXRENdqqVxCZZOSgxcEAonD2u2cAx9kFn7GQImjoDoTk09L6R168g2x3Fw9rbBkNcioDSTsfTGO+YIIwgmvmhI9+nC4XioSjU4+Fkcsq8VEx4NXseh+4xABPZsyggCmycMAYaAQSNAlGNJ/Zkzm5KpMBwpUEfklUP7NUPHyb7UcsCCE28fYkYQDHrK113jCUHQ6Tic35aK6L03CD2ATsOjZTcX9HomsCr1x7Qrm9Ud2uxODAGGQEMiIGofVBSrsW95NHJTS2kwIiEJ3Wf4w6+jC7Me3GVAGEFoyFmqx88i7Jq4GVIv5uLPtfE0upcsKpumFhj6SgRVVSR+B+af0+NBZE1jCDAE7ooAiT0gV0Z0Po58HkfLOhM3qnUTcwxYEEqzGIj1gO1vzILAltA9ECCLqDRPhb0fRwsBPIRhK6ToMtUP/t2aMobNZg5DgCFgkAiQAxDZwM5uSkb0vut0byMHIM82TtRCKlcS9USmfXDn4DILgkFO97pvtGiCIyTh+LcJSDx+S8hmAA/fTi7o/pQ/ZAqBYTOWXff4szsyBBgC9YcAIQiqEg0OrIpFzrWS6mJMnSb5IrhfM3b4uQf0jCDU35w0uDsLEuU8Ui7k4q8v4sFpBFERO1cL9J8bAjtXUsSEh5SIJLCLIdCACHAaFXJzclGh0cLKwRVOtua0Tgi7GAK1ISDKK9+4Uogja+KgLtNR64GVkxkGLQyHg5sFE0diBKG2acR+T7MZAJBAnj0fRKHgejkkUkCulKLnrEB4tW3CVBXZNGlwBHhNBdKjz+DstXzoVDeRp/XClGnDYCdv8KawBxogAsQqSoKwo/dfx/ktqZQckGwGr3ZN0H9eCO0Rrb/A9A/+NbrMgmCAE74+m0wWE6fjcPKHa4j/KxMymRTEPEeUxjqM94aUqiyys1t9jgG79+0IFGdfxZ+Hr6PzqO6QZB7GmnVxmPn2S2huYchIcShOPY+fN+1H4s1CRIyZg8e7ecJCztZWXY8q2b8qS7U4+tVVpEfmQyqR0IytzpN9ETbInQYrsuJMd0edEYS6no0Gfj8xFiHx71s4/k2CkM3A8bQmw6CXwqC0kgsloBnbNvCRNpzmZ5z6BbtzfRFgXoSc+D+R3XwSZo0Og1mNd6lWqwbPy6BQSKHVaAHIIFc0viuMtIvjZFAqpdBpteB5KeQKGaBKx9p3voXH03MQkPgrprx8GIs3f4fh/oKaH7vqBgHqJOWB/PQy7P8kGmUFpDiTBObWCgycHwpnX2sWV3UfqBlBqJt5aDR3EUSTgPzrpTi0Og4l2SoawKMwl2HA/FC4+ttVB/j8l06r8pNx6FwOunRrA0crxX1vUZIRj+OpWvTuFAwLPdjs/0t/K4sycOj0DfTo1R42RKntnhePkhuJOJmswoBu4binkYbXIi3yCBI04ejb3hWN9QpU5d/A2fNX0bJTd7jZ3n8c/wtu/3xHhVO/bkNRC0dcPRGD65Ex6Lr0S4zyNa9xWx7xUX+jFL5oE26HhKiLUMl9ER7cePiIjUuKP4Wbhe7o2skFqQkXkFvaAu3auENaEIX5T70Ou0Xb8FZIJCa2GQWfFWfw3iiPR4OLffs2BMQDD7GGnvguUfAlcByahTjQ7AULOwUjCA1JEKhsLztdGvQyJW4GdbmWZjOkns8VFhXPI3yoBzqM86Z9u7dJToe8qyfw9XfbceWWGkOefw3j21VtetoSbP/qc+T7DMPEviGwlN//9aYpzcTutauRFPA4Zg8Jh6WiLs2vHMryz+HVJxbi7C0N5OZK3Ov1zfFSNG03A2uWT4Hrvz7EoTjxOL76fgdibqowYNZCTOzsQzHiVHnY8+1nyPJ5DFP7h8FMdv/2a8uysGf9OlzwnohXhgXA8k5zM6/FjTPbsP5IGcbPmojgJhaNFqinUxXg3I6f8Fd5AGZO6Acni/uRn0dYDqor2HagDCOGtwVfUYSTq5/FX77vYulY3xo35XDiwGbkS9tjaF8XnNq/E0XmHTGol989x/QRWvRQX71wbDPic0Pw+GgvRJ3YhZTiMIwcGgK5ToXrKRlAU184Ze7C4KFvYez3h/FCV6eHuj/78H0oNzEdkD88jz+/iEfS39mQyKV0O2s9yhMRQ9xpeXsWdH1vDOvFgsBIguEuWyFQkYeElyD20A2c/TUFnJajwYuOHlYY+loEzCzJy+Du6Y68KgOfzHkGB6Rd4ZG4Ey7Pf433HgsDoEP2oSV4c08zLH73uQf3H+cdx5xnvsWApSsxLMT+gV6IXPFNxBVbI8DNBor7vJQ5VQE+eWEQXv82Dl0nT0Xbppb/GjiJrhiXz8Qj9H9bsHKoIDld8+JVafjoqck4ZtETzVMPwWnGGrw/sR14To2MQ8vx8kYFlq9ZBPd/3/quk0SXcwJPjnwXj63fiJGht/e3MicG7y9ei4Dp/8PEjs0bf5KVJuDDl1fAZtwbeLa3xwNZM3hVEdJzy9DExQ1WytoJn/rKTuzIb4NxXd2hqcjB5kVPIH3werw21P12grDnV2QpO2BUHxec3rcTRZZ6QhCObEZ0YQgmj/ZC9LFdSCmtIghVred1lTi07i2sTm6Fte88BnfL+rTGNP6UaegWcDyHsjw1dr8XidJcFSUHSks5ej8XiOahjiw4sZYBqXOCQLStmY+6oZdB3T5PTAvKTSvFoc/iUJpP/HYkm0FC0x2Jee5egYpF0XsxfdYytF36DcY208HBuyVcrMzAl8ZhYZ/H4fr+fizs2+yBXvRCr7Q4vnomfioYjg9eGwPHB9g/yy9vxkuXgvDehBA4WNzPSqFD4t6VGDR5KTot/A1fvNYfNre9s3gUxe7HR7+k4Pklz6HZXZ5deHknxk1ajB4ffo/x3grYe7ZEUxszaIvjsOTx2ZAv3Iq3+jZ54P7yXCWivhiH1bem4eM3xsJBfCanQvSetfjwTwu8s3gmvOz1IYSfQ/y2JXh1px1WrHsJvg9AgjTXL2DtgWsYMnIsWjrVZnXgkLBlOf5Q9MZzg8KRHbsL73+ViGffexkRjjW/y+HEng24peyEkX2a4u+9v6PIsguG9NYDC8KRXxBdGIbJo30QdfR3JJe2wuhhIaCjx2mRF7sXX+xOx5inp8LXyQbKWqxMdbvSjftuojhSwvEsnPwhEZyO9JenxZn6zQ2Gpb2SuRcamiDkqYpgr7SBjOXKG+zqqxZN0nE4uCoOaRfzIJMT5TGgzWhPtBnhSfUQJDXHmNegpKgAsQe+w4vvHMPLmz5H3xausLGyoP703GOrEfHURew89wXaOhDZZuHitZUoLauAhgPMLSwg06lQruZhZm0Ly6q4g8yY7zB7SQyWrH4fEW7KWnEtu/QrXrwcjI9qJQgAr76GNwf0w8aKTvhi04/o5/3P/XlNPvZ9uxZp7kPw7NA2d5gONCgpLEDUnvWY+cZxvLXtMwzyb1Hd31vH1mPIovP47th6hP/TXZATY2npP/2V6ipRoeZgZmUNSyV5bfAoy9yEac+fxtK1HyPUVWiPtjQHvyx5BrHBc/Hmk71gVd/BBzyHyooylFdqIJGZwVIpQYVKDciUsLa2hPgeK7l5AC9MW41+H/+Cqa1tah0bdcYFrDmQiKGjxsG/NoLA52PH1sPIvHwRiWoelm7BmPT0OATa3elaIQThR9xSdqEE4eSe7Siy7IahfeqZIPA8tJXlKK1Qg5fIYWmphFpVAR0nhZWNYL26cOQnRBdGUIIQ+ddvSC5pizEjBIJQnnsBHyz6CcPefhuhuV/jt8onMaWTY60Ysg88GALksKrTcLRyY+q5XJqyTYKuQwY0R+dJvtRNytzh98eyzi0Iu9JPYnDzTpQgMPAfbCLr46dIHAIZv6g9GTj18zUqRUqIQ/NQe/R+Nghm1orbrQjqFGxYsQ6b9mzF6czmGD2gAyL6jMSUkT1gp1Dj2Kr5GH+4M65sngAHc+H0y6tycXL3Tvx9NRNZaddQat0MAdZSXLh0Bhi4DD8+3xHEDV98/SJenPUexnz4OYaE1R54VnZpI168HIKPJoTWYkEQkM89uhS9p25E91fX4f2ZvWFHT+088hL/xufrj2DEvEVo7V4zKA6AJhU/f7gGm/b+hhNZzTGmfzu07TsCE0f1gqNCjRNfvIHnjwTi7OanIPIDTpWLEzu340xiNrLSk1Bi5Qp/aykuRp6FZd9XsX5uH2qmryxNwQuPL8Toj9dhULAL/VlpTiTefGIRAud9iZkDvR/YIvGf5hanRX7yWWzbfgw3S4uReiUZHsGtoSiPwYlUB7z78bto5ymQgcqiNHzy9JNQPbYSb0xshdoMPOqM81hzIAFDRz1eK0HgCxKw/VwuOnboiOb297M2NA5BKLkZjR2/7kFKURnSY2JhHdYJruok7PnzGmat+AGTOjfHxXsRBFUm1r88E59G2qBtCylUqVkY9Pl2PB3Bshj+05y940tisHVhVgX2r4hCaa5acCfIJOgzOxCebZimy4PgXOcEYeGZtfhfq6mwU1pBSra22t2MD9JO9pkGRkC0ImQnl2DvR1HQVGhpsKKlrQKDFoXD0d1KIIA1xpcrycDPS8bhW93z+O29KXC0rPolX4yfXp2Oj6Uv4czSTrBQkleeDinHdmD3DUuMH9EXpftX4sl39mPq5yuR9MlTONXuM/z5Shd6Uq3ITsHrM56Fz/8+x6yOLatfuPeC5GEJAnSF+GhKd3yY3B37tryP9i3swOs0+HvDEuzVPYY3nmgD87uc2PnyHHzzvzH4ipuL3995DG42VR/iS7Dx7dlYp5qKY+8PqGomh+Sj2/HbDTtMGtEDqsOfY/rbf2DC8veQtu55RIW/gz/eGETh1JYX4bWJ4+G5eC1mtvOl/S3I+AMzJ36O8as2YHzbf06ZnLYCyclZaObj9e+gxv84ZypLM7Fj+SewnfQ6ejXTYc1jbXCs88dYHrYf49eo8fnXa9HVR3iRacsK8ONL43Eq5EWsmDMUtb3eHoYgFCbE4MytYnTo0gUO9/VG3I8g6JCTdA15dr4IbFKXbplyHF73GVLaP4nJIVbYN6cX3sruh++et8eUZ37C3B8O4Lme7ve2IGhKcPXKVeQUq4RRklghoE0YnC3qso3/cQIYwdfE/Sv5bC7+Wh8vxFFxPBzcrTF4USisqqyY7BDbwBaEsYcXY2bAcPR2awO5VMbiEQx0sVEGzvOoKNbg6JdXcT0mn7oUSHWGLk+0RFBvN/r7mhHA5Tev4oMnRyBr9DqsnNkHVuJep8vHV/Mm41vvD3FkbhgsaDYCj9KCAmjk5rC30mDvyvlYetAV2/a8gyaqCnByc1gqhbdCZV4qlsyaBfs5qzCvZxDMa5ISbSmOr1+GHy/kViOtzrmGc4W2aOftDLOqTACptScmzZiNXmF3jweI2vUxJkz7GN2W78BnT3YCn/UX3v3gGEa8sxgd7O5uz1flZWDZ1NHIeexTfDStG+zF47OuAN+/PgMbHOfj4CvdqtrFo6SgAFqFBewsK3Hgs5exdJ8TNmxfima8BrzcHBZV/dWpivHW1HGwmfcZ5nUNoP3Nu7YR06f9jOlf/4rRwdbCPXWVyNk5G+HPRmPJ/m14qpXH7Sf4vItYsXIDrmaX3HMWmtv74alX5qEVrdYpXJyuEreu58KpRTNo845iSudZ6LT8NywY4otKDWBubg5ZVR6mrrwQWxZPwh6XGVj18hg43HYg0CJm62p8eTAG5USagBCKkmxcuVmAFp4tYSeyLpk5uo9bhGn9vW4LdCwvK8ONzMx/nTHIpt68eXPajqoW39PFIEk7hAkT5iLecSp27XwNnncSjdJUfL/uG5xOvAVSzudul0ThggmvvYqeza1rpJ9qkXszD1ZuTSErjcbLA8bg+sDV+OGN3uBVGphZWNXqYuAqS3EzMxvlag4Obi3QxJr4xA10w9CzZtPqtBIpTn6fgCt/ZtLDDBFHCh3gjg6Pe9O6MsaYvSASI8o562Ay1bkFYfShN+Bq7oDFbZ6Aq7kTU93Ts4XzMM2hqopajmYznPs1hWYuEJVFIrnc/8UQGpNQU6I0N+kQZo9ciM4fbcALQ0L+eVlxBfhmwTSsd1mGvxZFVBGEf1qiK7iGFfMm47jHK9j17hjwlWUo4CzgWBVgWJmbisUznkGThaswt2vgbQSB3IXndKiq5kpvWnZ5ExZcDsYHj4fBwULccYUN4V5rRpUdiyWzJmBrdhd8t+V9VP62HOfdxmPR2Fb3TJUrunkCs0a+jh4ffo2Zvf1RHZTPFeLHN2bhB4s5OLy4+78g5/IT8elL0/Cn60vY9s5jUGrLUcSbwa7K9aKrKMbiyeNgt+hzzOvcEuQ1mJe8BU9N/R5PrNuEMeFVvn5eB1X6Caz/LRn9po1HoBOx2tW8eKjVKmhIgMc9LrlcAaXyHi8mnkPWwSXo/twRfLpzL4YGW0NVUQ6puRWoEYhaOwrw66sTsd/zWaxaMOoOgkDGhgPxBYuX+vp5rCUxCCPH3xakSMgnUbireWVnZ+PEiRPITrqAw4fP4JbaHJ0Gj0Zrd0v07dsXLi4utRIEWdlN7Nq8AzccumDqqAhY/QsHHlqNGmqNoM9/t0smk0FpZvav9omfLbr0IwaOfRfD153A/wY4Q1daiEpzO2rRuWcMAl+K0zt24KpGgcJLR3GytBXeXfYEWtrVHmPzMGvYFD9bs/Dc9jcuIP9GOYWBSMb3eyEY7uHGm71QPYepcffR2WadE4Rxh9+ESqvGEy0HYIx3L9rIumAypjjRG7vPghUByE4sxsHVsbQaGsl3NLOWY/SyNrB2ML9NDyHl+EqMe2Yv3tqwAcNbO9dofhl+e/sZLLzxBKJX94UVebvoynBm2+f48HctXnw+Al889wp83tmAd4YH4/L2DbgcPA5PBFrTKV6WdQ2LZsxF+6VrMKWtd61+7od2MVCWoUX8piUY879NaD3iadibKfHsvGcQ1qzqtH6Xwcg6vxqPzf4LS75dj36hTjWWYzl2fjwPy5KH4ey6kcLPeTVOb16JNzdr8NrccHw771W0eOsnLB0ZitgdG3HFawAmtG5Gn6IpL8CCxyej3bIvMKlVC9rfwqw/MWfihxi47EdM6Sa+GIVG1XVacVnWWbw1+z04j1sIvzNv49Xz/tixfzVaSq5j+69H0enxKWhRlbGgLsnF+jnjkdhlMd6f1Ru1JTI8jItBACMZG9YegOeQvijctQYrTrlg/Q+vo+VtD6olBoHMY1KFtC4XlCoVq159B5ccRmJq06OYteIqvji3E/2s87H9vZXwmL0E7ZvI700Q8i/hxec+gN+bP2GW7TGM7DUbfdefwMK+t49tXTbZVO4lxh9kXSvC3g+iqPAbSXd0dLfGgHkhsHY2M7rsBZEYkBT1xOIbSC65gcHunR55yOueIBxaTPPoPW3cMD90HJpZOt+TeT9y69kN6h0B4rcrL1LjyLoryIovqjLV6dDjqQAE9HSjkcEiATz7xUxM3yzBD7+sQTvXmuFqOsT8/BZ6fWWFi3sXogXJ9a7Mw+5VC/HuX+aY1M8RR3dfhPfIiRgSZI24NB1GTR6N5paCjyIveT/mvrgJz32yEl39atdC+E8EgZjWi6Px+oSJ+PKyHM9/shavPNYZNvcRZ4r+ejpm7rTFl1+vQIRLTd+xDtG/vo9JP0hxZPfrcCanbW0Zdn0yF0uOWGJqP1uc3HsRnsMex+BgW8SnaTDosRHwdSLFBXhUFJ7BrKlfYPaqVejkY0dfbKqCFCx/YTbMxn6IF0eH10qSHmViFMX8isnTlsNz+FjYZF1GZJo5nlw4FWapf0PlMwFjevtVW0sq8i9jybSFaDbnG8yO5GosAAAgAElEQVQZ6FmrFsJDE4QbezBrwRb0ens9hvK/Y/xjyzHup2OY0aZGaggaIUgx+2/Mm/kmkjwGoJvNNRw5moPRb86DZ/5FxHK98dyEVrC+nwWh4jp+Wv0DpMNexkSXM3iswwSEfnYGy4bpgb7Fo0wePfgu2bOIpfP4d4m4eozUk5FRHZfAXk3RcaIvFGYyozu00gJUPI/LeYn4In4HCipLsLXfskcejTonCGMOvQESeSCVSPG4Tx8Ma9EFcqmckYRHHqrGuYHAxnmc25qCy7syIJNLqdvBo5Uj+s8JgVQpmobV+HHOWHyvHopf1jwD1ztirVTXfkOXXivx1vEDGOltAfA6FGRcwZnLiZA7esHfVY4rcSngLOwR2KYtvJ3+MQYnHVqK/221wofLF8DTuvb8vv9KEAAO8bs/xTs7CvHiW6+i3X3VjTTYNHsgNplNxPqPZ+I2fkCyDhJ3YsyE9Zi9czdG0T2fQ0FaHE5dToDSyRv+bgrExyZDZ2mPwFZt4dXEqsrSwCH/3BI895UVlq9cBI+q/nKVRdi/biF+Uw3FBwtGwakeLdG6ynzEHD+BpAoLhLYJhfrqWVwrlsHRtxU6hDSHeQ0d6NyobzHr1dN48du16HHnoN9lyj40QVBl4e8TcXBs3QtuNzdgxONrMG3TcTwdXpOAijoIHTGyjytO7tuBIsvOGFqfSopcORLPnUJkZgV8AoNhm5+IqCw17Nz90amdP6yqMLpAdRBCMXm0LyKP7UBySQTGiDoIgv0H6YfWYPj/LmLFr6vRz+vfTpDGWfmG+VRRw6W0oBK/vX4O6gqOWjmJYmKPp/3h29GZ+kWNyaotxoupOA0+jtqIyPwkyCQSbOn79iMPYt0ThINv0AAmHQ+0sGqC+aGPw8PahbkaHnmoGukGPDHP8Ui/lIdDa+JI8gG1EJFiJ0NeDYe9mw6/vPs6EpqGIHvfAbg9vRKLh3v/22+vzcem54bgQvuVWDaj812zAu7aQ20uvn95Nm51XIz548P+8fPfBw6uIBXnChzR2tMWVXF/DwyeTlWCvGIt7Js4VPvZb/9yGTYuXYAYlzDkbP8N3i+sw8sjAv7VX64yB5tfnY7D3m/gsxc64b56TTUewFdmY8Oc0UjvvQ6LJoSj2oDB63D9/A68uf4Snn/zZbT1qF1z4IE7/V8/qCvFvpWvYgc3CssX9nsgbQa+PA8JWWVwa+4B25rVlmppA68twoHPl2FtUhA+X/40PGoaEKgF4VdkK9tjRJ+mOFWlpDi4PgnCA2J24chmxBSGYBKRWq5SUhxFpJaryIGmMB1fLl8Nsz7PYHJPP1gyoaQHRPbuHxPdoinnc7B/RQyU5nLqgrN1s6DFmWxdLIwuLo70T8dzOJMTh0+jtwhKuPpKEGaf/ATZFQU0oE3H6zDRty/GevcSSmoaGXN7pJlsQF8mBKG8UI09H0Si8GaF4FaABD1m+sO3kwqLho7FZdsW8PQZiDfffgbet23eNTqaexBvvHsUgxe8is4e1rWao8FrcOPPL/DW7zq8/O4c+NvUprzXEKBex6J+g3He1g/N3PvhrXdnwd/mbtn/HCpvHMLit3Zh+Jvvo1sLIZ7ivhevRcbRrzH7ywIsX/8yAu7srzobv6/6ENHu47BwYic0arVjnkP+lf14/6vzGPPKQnR2rcfWcGrcvLwX67bFY9z8eQhvcocmBSEI+zajQN4eQ/q4VBMEvajF8NcWXM0PprUYIu+QWuY0BTi9cQ1ibAdgWi87ZGq94N3kXountsnDfk/tMeRlqeVxZmMSYvbdoNkKRCypZXdX9JzpT3UQiHXbmC7S5yJ1KT6I/BnxRdehoAJ2empB+CXpILanHqfFfYiCfzPLJnglYjL9m0kwG+a0JAE+nIbH2S0piN4juBlI8KJ/j6boOtUP6XF/Iz5bB9/wtghwu38mfMLxLdidaIep43vD2fr+sjrFaVH4afsptB05AR29SBVJ/cAvLfIYYrN08I1oj5ZNa6a+3dE+TofkM9vxe7wNZkzqB9vaqjlmxOCX7afQeswUtG9uedf+qnPjsX37YSjCH8OojrWLRtUXYhV5adizeQcs249E/zYtIL9n+clHbQGP/PQL2PrLX2g5dCxCzK4gSdkPnb1qzh0eZ47vQCEXgf49muDM0f0oU7ZFny7etZPQR21eLd+PPLcT17L9MWpoC8Sc3Y+M4mAM7hcAGV+JyN9WYdlvRRg1pgPMr/6Ogr4rMbOjfT23yHhvL1oPygsqcXBVLPLSSoWDqlaH3rOD4Ne5qdHVXhBiDzj8mXkJX8bvFIpT6bMFIbUkC8su/UAZjeDnkWB4iy6Y5NuPMrc7U5mMd7oaT8+qo4ITC7Hv4xjotELanF1TCwx7PQLmtg9eMpUIEJVX6mBubladS38vpDitGhUaHpbmJOrYMPHkOQ3KK3SwsDS/dwnnqq6R/qpIfy3uf4ok8r5qXgnLqrTIxkCG57RQqdRQmFvUIzkgWQw5+PGtl7A1qwU6+SpRnpGGVgu/xli/2ydEZWUleF4Bc3MJKlWC9LH5fQlZw6CmVldCq5PB0kIGtVoNHSeHhbkMKIzB4vkLseNyHszkJImmBd7c9gNG+Nw7a6ZhWmy4TxEJQtbVIhz4NAZalQ4kVdvayQxDXouArbO5UVmxhcJ6QLG6FCtjtyA2n6SiEy8wDy/rpljZac4jD2adxyDoOB02JR3G7+knwZP8EgDOFvZYGDYR3jauLBbhkYes4W8gpNDwUJVosW9FNHJTSqoDffrPC4FHuAPTNW/4YTGNJ+ZdxNr125GYTU6DUlg5BuPJl56GX235lKaBDutlDQRIMLVWw+HyznT6L2HkJJuBZFt1meILuZnMaOIPBHJQFXuQHYc1cduh5bSUMChlciwKm4TWTVo+8vyoc4JAGl6gLsHSi98jozSbWgzIP6O9umGsd+8qdUXjiiJ95FEwgBtQ0SQdh/PbUhG95zolCMR059/NFd2nt6SLz5gigw1gSFgTGQIMgSoExENMRYmWSsPnpZYK8QYyKS3t7NXGyagOMSJByK8swYroXxFfmE4zFwhp6O3WGrOCRkApra0ySu3Tp84JApG4JIp1W1P+wsakQ5QckEa7mDvgjdbTaCwCDXEzUJNx7ZAa5yfE9KH0yDwcWXOFBv4Qw4LSSo6Rb7aCnatwpGMkwTjHn/WKIaDXCFRlW924UoB9H0aBRFKTd4xNEzMMXEiyFyyNznpAzAUHbp7D2rjtMJMq6XvWUm6O1yKmINC+RZ3sxXVOEMSczOvlOVgZ/SvSy3JooBCRwh3h2QVT/AYIbgaq688uQ0FA1EMoza/EvhUxKM6soIWatCotej0XBP/urkYXAGQoY8PayRAwdQTEA8yZX5NxeUca5GZyGrzn28kFPab7Q24mvb08vQEDJloPclVF+CRmMxILM6ilnsQedG8ajmeCRsBcpqyTbI06JwgEd2JF0IHDjrTj2Jz8F2U25Lhpq7SmVgRP66ag9ICZEQxqmtKIWR2Pkz8kIPbgTWERajkE9HBDt+l+VIzEGAugGNQgscYyBEwQARJ/oCoVYqRyUkroC7OyXINezwQhqI+bUR1eyPuVZAjuyTiNX64dpO9a8oqVSaV4s810BNp51Fkl5XohCGJ0ZVZFHvWPpJZkUkLAQ4JB7u0xpeVA6h9hGQ2GtZLFKGHiZti/PIamOxKeZ+9qgb5zgmHnJqTmMTeDYY0ray1DwJAREK2b12MK8ecXV2hp+qr4eFozxpFortRbGm7DIida6G+U52JVzBaklGZRSzwJTuzfvA1mBAyHjNjspULs36Ne9UYQSMOI5WBn+kl8n7AXCgnRDuPhYGaLV8Inw9vWjekiPOroNfD3xclZWa7DziUXUXSLiCZJIFfK0GNGALzbGVcgUAPDyx7HEGAI/AcERMvmhd/TELU7g4olEUtnsyB7DF4URi2bxiDSJwRiCu/V31OPYcO1w/SQTawJTcxt8b9W0+BOax8JB7e6uOqFINBOVOVo3irPx/LojZTpkM6Qnw9r0RlPtBxM28+qPdbFMDbcPYgpj8zTs78mIWrvDcrMyZgG9nZFh/E+UFiQVCLjUiprOHTZkxgCDIGHRYBkWFUUqnHki38KypEU+54zAuDXtanRZC+IBOFWRT4+iNyAjLLsKss8qNbQRL/+kJPgzDqsoFxvBEEgCRy0vA6Hb17Ed1f3UullwoFsFZZY2nY63C1djILZPeyENuTPi8FAWdeKse/jaGjVOhqBStwLVOu8SnKXuRkMeZRZ2xkChoFAzf3owMoYqMu0tOEW9kqMfa8dzEhFWCNxe5K+kvfpxmuHsCv972prgoOZDV4Onwhf2+Z1Sg7oAZ4XaUk9zIea0ZafxmxBQlEGfYqO59G1aQheCBkDpZREW9aRPaQe+sBueTsCYhyCqlhNsxny0omAjeAE6/1sIHw7C/XsGUFgM4chwBCobwTIfqTT8Ijck4EL21IFiybHw7OdE/rPDRGc80ZCEEhwYlLJTWqRz1cVV3UMGOLREZN9B0IhkdV5X+uVIAhWBFKTgcPB6+fxbcLeanVFYoZ+JWISIhz8BIJABZXYZQgIiKJJp39JQtzhTEoGdBodgvo0Q4/pLYUAGUb6DGEoWRsZAgaNgJC9oMHBT2ORmVAEqYyk0EvQeZIPQvq704w6Q3d5irFfGk6LTSmHsSv9FCRVug/u1s54PWIKnC0cqt+fdbn3NghBIB0sVJdS5nOlMB1yiYwGWnRtGorngkZDKVNUmUYMeq6aTONFs17y2RwcXnMFJOSAxCXYNbPE4IWhsHY0p4uUXQwBhgBDoL4QIAcVct2IK8ChVbHQqQX5YVIbZsCLoXD2tjGKrCrREp9eeovGHuSoCmkaIzl4T/btj9FePaihpD4s8Q1CEMggEtGKv2/F4vO4bfS/iS3EXK6gGQ1B9l7VnatL9lNfE9PU7ysy2tK8Sux69zLKC9R0IUoVUnSd1hItu7LYElOfI6z/DIH6REA8pJAX47nNyYj847pwUAHQLMQB/V4IgsJckH835HeKGAFA3pnfJuzB3owzVe9KUpDJDfNCx6G5FamUXD/9rHeCIE4S0tFSbTlWxWzFxdxE2kktz6G1ox8WhD8OKxk5dTJ1xfpcVHV5b3Hi/rU+HoknbwkZKgB8uzRF9yf8IFMSqdP6mbR12Q92L4YAQ8AwESDuhfKiShz8LA45yaSAHPFpS9BpojdCBzYXfPRGEA/F8TyuFV/HO5d+RLlWRckAEUWa4tsfg9w7ClWS6ylzrEEJAmFB53KuYs2V31CpVdMXiprT4qWw8ejmGl5vLMgwp79+t5r49shEzYgpwOHVsdCqBbVMUpOh37xg2LtaEjl0g2bv+j0CrHUMAdNFQLQgXI8pwJ/rrkBdrqVuTisHobSznYt5nQfsNTTaomtBpVNj/ZWdOH4rqsq1wMPfzh3zQ8ejibl9vbgWxL42GEGgbgaOg4qrxMqYLTifc7U6FiHYwRMvhU6EjcKi+oViyGahhp5IjfU8wuB1Wg6/L72E/LRSSghkChl6PRsArzZNjCb/uLHwZc9lCDAE7o6AkL3A4fKuDFwipZ3J+0Wtg09nF/SbE2zwlgNKgKhuEEcrNZLYgwpdJe2XWqfBc0EjMcC9o9DPerSSNChBEH3Xl/IS8F7kz9UWA6VUTiUiu7uGQ0arcLEAN33fGMR0RzJUp35OQuyB6yBOQEIagvu6oeMEH8iUxAfIrAj6PpasfQwBQ0KA7j0cUFZQiSNr43ArsZia2HkJj+7T/RHQw9UoCAIJuCTuhbVXtuNYZiTtE5EICLL3wIKwCXA0s6l3q3vDEwTqVtBg3ZXfaaeJL4WAEGjniQVh4+FoZluvjMiQFoK+t5WQAXKlXMzFX1/GQ6fmKEFwcLfG4IVhsHJQGryZT9/HgLWPIWBqCIjxT8S9SdIbObLvSABbF3MMmB8GezdiiTbcg0l1YCJ4JBSlY9nFH0BSHMluK5fKMTd4DDq4BEEqkdX7u7JBCQKZyDVTNt6+9D1KNOXUd0Q6PzNwGPo3bydUoqpHs4mpLaj67C+n41B0S4XDn8ei4Ho5NYvJZECPWQHw7ehCB5alPNbnCLB7MwRMCwGS3kgIwOmNJHshA3K5cMj06+KCLlP9oDSXQSozbLl34o4nLoWPojciMi8JComUviMjnPzwQvAY2Cmt6qScc20zp8EJAvUVEclITouvE3bj8I2LVE+alKz0tmmGl8MnwMXcgRGE2kZOT35PS3treJzakISEo5l0EhMrgl+Xpug5MwASmaReg2j0BAbWDIYAQ6AhEKCx0Dwt5bz3oxjkpBTTAwipLNt1mh9admsqZE8ZsA6LeIg+lR2DT2K20PcjuYh+0OzgUejiEkrJQUO44huFIFB1RZ7D1aJ0vHv5Z1Tq1NW+lHHePTHKqyeI8aS+UjcaYh6byjPEWITU8zk49k0CtCqOWoSsnc0waEEo7Ki5j6U7msp8YP1kCNQXAkLgHjmAAOmX8kBSrOl+Ax7WTcwxcH4I7JtZGbx7gfSnVFOBVbFbEZl/jaomangObZv4Y37oOFjJzYUyhw0Qq9c4BIEMKScUnvjm6h84dPNClVMBaG7ljPlh4+HBCjnV1zqr8/uShVtRrMb+FYTRl1D2TiRPu071g3/PqrLeBszo6xwwdkOGAEPgPyEgZk79/XMSrh7LrJYc9unkgl4zAmhpZ0M+WIoFmc5kx2LtlR00Y4FcJJB/YfhERDhWlSZoIBd84xCE6rrWQHZFPpZe/A7ZqkLhpMlLMN6nF0Z4doNCIjfowf5PK8AAv0SsQUQT4czGZFzelQ65mYyaAX06OKPbky2htJAbtMnPAIeENZkhYHQICNkLPEpyVDiwKhaFN8sFy7MM6DbdH/5dmxp0ULToWshTFeHDyF+QXJIpCNDxPPq4tcJTgcNhJlU2qIWkUQgCmbkiGIQU/Jp0GFtTjtGSgOSfphaOWBQ+AZ7WVafPBjClGN1qasAOiVG3N2IK6MIl2QxkLG2aWKD/iyFwdLcy6IXbgFCyRzEEGAL3QEAURyJZU0e/jIe2krgzeepWGPhSKGyamDfoy7OuB4q63sFhd9rftLAhsRoQE4mtwgovhU1AgH0LGo/QEK4FsW+NRhBqkoTrpTn4OOoX3KzIp4xJw+kwqkVXTGk5UAjGaCBzSl0PuKncT4xDqChS4/DqOGTRvGRBernbUy0R1NOVxiU05MQ2FexZPxkCpoIALc7E8zR7IfbADaGKrI5DYG83dJniB5mCSA4bpoaOeGDOLM/D8qhNyCjLpu89EnswsHk7PBUwjFrUGzp9s/EJAg8ai7A97Si2pRwTbAg8DyczW8wLHYvAGoWcTGUhGGI/aQloDYfo/TdwYVsKJQeclod3+yboNyeEqiySi5EEQxxd1maGQOMiIFopNZU6WiAuP7WMWiVJgbheswLg3c6wlVtJNpiG1+K31OPYnnqMvgNJ+KWVXIklbZ+Gp7UrTf9vaGN6oxKEaisCzyNXVYT3In9CRlmOkNYhAbq5hmFGwDBYSM1YLELjrs9an04kQYmV4FZCMQ59HgdVCQmukcDcWoHhiyNg19SCEYRaUWQfYAgwBO6KQFV64/XYAhwkbkxNVe2XZpboPzcEdk2FEvOGeAARrQdppVk09oC8C8lFCMIEnz54zLsnyelrFEt6oxMECgTHUYGdPemn8MO1fVXxCYC13JxaEVo5+TcKOGypPjgCopuBEIMj664gK66wSkucR7txXogY2oLGJRhyhPGDo8E+yRBgCNQVAqL1gJglj351FVdPZNF9hDgxW/ZwRefJvpArZQbpXhDJgZbT4efE/diVcYqWGyBXCysXvNVmOmyUlvUuqXyvsdILgiCCVFBZgk9jtyA2PxUy4l/iObR3DsIrEZNo+0k8Arv0FwESYUysCJd2pePC9lQQdyDhfs4+Nhj0UijMrBQGuYj1F3HWMoaACSDAE3E9DmX5Kvy+5DJUxRq6j0gVEnR/iii2OlPXtKEdPkTiQ9yx8YWpWB69CcVqokZLxlSCJ1oOwBCPLg0emFhzRukNQSCNIoTgdHYsrdNQWZX/SbSn5wSPRuemYVV6UsyPrY9bQvVk54HspGLs/yQG6nIdbapcKcHAl8Lg6m/LRJP0cfBYmxgCeoyAWJwp4cQtmr1AghFJvKKjuyUGLAiFjZMZbb0huheI9byS1ibajr9vxdI+kP66WznjtVZT4Gxm36h7pl4QBHFuErBIbQYC1vm8BGpWIWB5WDnjf62mCYWcmCqf3i5lIQ2Jh7pChyNrryA9Mh8yGdEQ59FurBcihrSgwYqGuJD1FnTWMIaAESMg7ilaNYdj3yYg+XQO3T+0ah1CB7lTMTYastbQ0XuPiLlgNSfbJQdS3Xh13HaUaSqo5UAhk2FmwFD0cmvTaK4FsXt6QxD+MbfwiMy7hpWxm1GhVQvt5IFpLQdiiEdnmgZpaJPhEeeSQX2dRt9qOcQfzcLJHxIFoQ8AbkH2GPRSGKQyoXgTG0ODGlbWWIZAoyHA6Yg4UgX2fBSNsjwVdWMSUjBwfig8IhwN13rAc1RSeW3cdpzLjaeuBC3PobVTS7zaajLkIHEVjetW1xuCIPAAoawjKQf97dU/cODGecir4g5ImgcxuTgobZgVodGWau0PFolefkYZ9q2IpjXbCRlQWMgwcnFr2LtZGiTjr73n7BMMAYZAXSMgah9cO52D419fpXUYSAVZFz9b9JsbDCsHw3MvVIsEQoITWVHUpa7mtBQ6C7kZng8ehQ7OIXrhUtcrgkBJQpXpJan4Oj6K2oj8ymLB1QBgok8fjPLqQaM82Qm0rpdi3d2PBCtWlmtx/LsEpJ7LpdkMxKrQ9jEvtB7eguqls/GrO7zZnRgCxoiAkBnF05TGI2vjkHYhj9Z4Ie+Cdo95I2xgc6qD0NDiQY+KtUgQiPXgo6hfEFeQRt9ppF9dmobQ1H5rhYVeBOXrKUHgaZAiEYz4Pe1EtSyzhVyJpW2egpdNM5b2+KiztB6/LwQV8Yg/loXTP1+jgkkkm8HW1Rwj3mgNCxsFsyLUI/7s1gwBY0BAlFbOyyjFrncuU2llcrAwt1Wg35xguPjaGmRMEy04BQ77r5/BT9cOQsfpqPXczswac4LHIMzBV29c6XpHEMSJTdJarpdm45OYzbhRlkt/XMlpMcS9Pab7D4NC2vj+GWNYhPXVB2IaLLheigOfxqEsv5K6jjSVWgx+JRwtwp0McmHXF1bsvgwBhsDtCIjWA/ASXNqZhrO/pkBhTorAAc1D7dH7mQCYWSsNLm2axmjxPG5VFGB59Eakl92iFnKSwdevWVvMCBwOuURGCYI+XHpJEEQ/NgFtV/oJfJewH2a0cAVgq7DE/NDxCLb3YrEI+jCD7tEGWs5bw+Ho+ngknc6BTC6BTsshbJAHOk7wgURGyrLqxyLQYxhZ0xgCJosA2UMqSjQ4sDKGpk6T/UKr5en+ETHYne4hhuaqFN9t21OPYlPyEUoWiGvBydwWL4dNgK+te/V460Pf9JIgVFsROA756mK8d/knpJRmkZhOGsrYzTUcMwKGw1JmxkiCnm4fJGWVvP6vHr+Fv9bFQ24uo1YExxaWtDaDdRM2dno6dKxZDIFGR0C0INyIKcThz6/QtEbyMxKDMPx/rdDE28agDhik7eSFTwhBQWUx3rzwDbIq8qn1gFxETnmMV4+qgkz6Q3z0liDUtCJcyL2KlTGbQeQoyaWQyvFS2Hi0buJfVcCCnUQbfUXf0QDRf1icq8KuZZdRUVRJ0xuJJGqvZwLRohVzM+jbmLH2MAT0BQHqp9dxuPh7GiJ3Z9DXqE7Lwz3CEf3nBkOhJPnShqV/QMiBltNi/dWdOHLjUlVgIg93axcsDHsczSybNLruwZ3jr7cEgTRUZJEVOjU+i90KQhTIRNHyPMIcvLAg7HFaK1s0xeiDSUZfFlhjt0MYO0Cn4XBmYxJiD90URJM4oTxrx4k+kJuxOJLGHif2fIaAPiJALJAVRRpamCknuUSo68Jx6DM7GD7tSeVGaXWFWH1s/51tEmMPIvOv4cPIn6kSJK1GKZFgkk9/DPXoDBnpk57EHojt12uCUJMkECGJj6M2CSktpMATD5oO0r95OwqqvgR1GMJkbag2igQv62oJ9i2PojEI5GRg5WSGoa+1gp2LOW2Kvi2KhsKHPYchwBD4NwLi4SLzSgGVbKeVGwFYO5thzNttobSUG9S+Ie6DKp0aq2O3UVEkchGLQoC9O14NnwwbhRUVRRJdEfoyL/SeIIhAVugq8XnsVpzOiYccgnxvSzt3GrDYxMyOxSLoy4y6ox0km6GiWIODK2OQm1oCHoImQven/BHU262qMAkjCXo6fKxZDIEGR4C8JLWVOpzemIS4Q5k0wJlQhMBebug6xQ+gwYmGs2fQQESew4XcBHwaswUaTkP7Q7QP5oaMRaemIUJaY7U0UoNDfs8H6j1B+Ce4g8Otily8cm49yjSVNFyRvF2m+A3AII+OUEhkjCToz7yqbgkxCxJrz/ltKYjalUHjELRaDp6tnNB/Xihd/ORn7GIIMAQYAtWxSzkq7H7vMlViJS9PEpzY67kgeLdtYnixBxyHYm0Zll78HqmltyAjhySeR3e3MMzwHw4rhbnexR6IM1HvCQJpqKiuSMLgf752ADvT/qbaiiRk0dncFovCJ8GnSjyJmaz1a5MRRZNuXCnCvo8iIaGKYTwVS+o7JxhNW7ICXPo1Yqw1DIHGQaC6Hg8PXD2WhePfXK2qRcDDxsUcgxaG0+wnku5oKG5JqgTJc9iZfhw/JB6AUiKn1g87pTVeDB2PIPsWeksO6LuUF0elcebEAz9VCPLgqGjSx9EbkVmeRyeJmtNhkHt7PO0/FKQ0NItFeGBIG+yDxIqgVumw853LKMgoB60/IpGg1cgWaDPCk4kmNdhIsAcxBPQbARKjpFHrcOybBKSczgExFYh+IWcAACAASURBVJOfBfRyQ7dpfpDK9S+Q736IkmBLIoa0PGpTdVojEfwb4dkZU/wGQknfWY1bkOl+7TcYgkA6QcwyhI39kX4SvyQdppYFctkoLTA7aBRaO/lXg20oDFO/l+ujt66af/JA9P4b1K8ojA1PrQd9nguGpYPhKaI9OjLsDgwBhkBNBKqlldNLcWh1HEpzVTRmiVSAHTA/FO4hDgbjjhTrLZCSAZuTD+OPjNNCVhc42Mgt8Hbbp+Fh5aL3bnGDIggiSShSl9IiFwlFGbREJqEJbZz88WzwSNgrrFnao57tO+LCLy9W4/e3LqK8QCjjTaKR+z4fhGbB9qwEtJ6NGWsOQ6ChESCWAhLUHH80E6c3JIHXAeQE7uxjg2GvtYJcKTWY+ANq8QaHhMIMmn1XrCmrhvNJ/8EY6N6BSirr+0HW4AiCGI9wJjsWa+K2g6SOEIJATDVPBwxFn2Zt9aJMZkMvLn1+Xk0v1p/r4nHt1C3qRyQFnMIGu6PdGC/IzQzLdKjPeLO2MQQMDYFqzZtiDY5/m4CMS/lEJIBG/7cb602rwJKN3hACmsW+lOsqaSnnk7diIKduBAlNa3wtYgos5fobmFhz7hgoQeBRrlXhq6u7cDIrhvaHuB/87JrjtVZTYEfFk4htgV36ggA5GZBkhasnb+HktwlUFY0sJIfmVhiwIBS2TcwNYvHrC56sHQwBY0JAPERkXi2i4kjqMi3tnoWdAgMXhMHZy5oeBPX9xE3aLIoinbwVhS/id0Kt09B2k7TGZwNHortrhN5Ua6xtDhkmQaAFLnjEFqZgZcxWlKjLaCQoL5FglGcXPO7Tl5pvyGUIE6q2QTKG34viJ4WZ5Tj4aSyKb1UIYyPh0WNGAFp2aSqMF0t5NIbhZn1gCDwUArR2i0SCc1tScOn3NEgVJDoR8IhwRK9ZgdQdSVIdDeEiwfQFlSVU8+BKYRp9N3HgEerghYVhE2FFrAdE90DPVBPvhq3BEQSxE8RiQJjZz9f2Y/+N8zTojUSBWCus8HL4RATYe+h1+oghTPS6bKNodiPSy3//fA0Jx0iZU+Jj5OHTyQU9ZwRAppAaVAGWusSH3YshYKoIkOA9sj9Ulmqwb0UMlVYmFnnyb6eJfgjq60ZTA4nSoD5fovub1Fs4fPMCfkjcBx2no4GWlnIzvBwxAcH2PnTfMwRyQA9shpLmWHNiUHMU0ebmeeSqCvHu5R9p+qN49WnWhsYjKGjOqWEwNX2e+HXVNtGKkHoxl5aB1lUKliArRzP0nxsCJ0+hroahLJ66woXdhyFgygiI+wIpC3/y+wRo1Rw975nbKjFoYSgc3S31PohZeCcJROdmeR6tt3CjLI8eeHQch8EeHTArcCR1hRtSKr5BEgSymES2RtjYnoxT+D5hH33ZkMtabo6XwiYixNHboNiaKWwSJFK5slyDvR9HIye5lJ4SZDIJ2o/3QXD/ZkJdDeZmMIWpwPrIEKAIkL1co9Lh+HeJSD6TTa0FPAf4dhYsixKZ/u8JYlojcS9suHYI29OOU3Vf8k5ysXDAwrAJ8LJ2NbgMO4MlCOLEIr4dUl/7s9htiClIoeyMRL7623liadvpkINVDNSnfYgQBMLazv+Wiovb0yk5IOPVPNQBPWcGwtxWQas+soshwBAwfgREpdX89DIc+CwWZfmVNNpfppCgz/NB8IxwMojURvHAGlOQhJXRW1CqqaBub14CjPPuhTGePSEngg4G5F4wWBdDzWVDglsISzubHYcvru5EhbayWpBiZuBQDGjWgYonMbO1fmw2YrRydlIJrdRG/I7kMrOWo9/cULgF2BrcItIPZFkrGAKGhwDVPuB5xB/JxKlfrlHLAa/j4eJnh0GLQmFmIbiJ9TklTcxaKNGU4Ysrv+N8boIQNA8enjZNsShsErUiGJJrQZxJBm1B+MfVwEOlVWN9/E78lRUJhZSYdoDmFo54tdUUuJg7GkxaieEt8YdrsRisqCrV4thX8UiPLKDpjzodjzajPNHuMW8abMqyGR4OV/ZphoChISAKqGk1HA5/Hof0y8RnL6XiSG3GeFHtA7IP6LPLsaar+8/Mi/gqfjc0nJYSBGIxeDZoBHq4tjLYQ4/BE4SaJCG+MJ0GLBJ5S0I5SXzCWJ+e1LxDclBZAJx+bCHkxAAdj7i/MnFmQxLNZCCnhiZ+Nhj2SgQUZiSEmQUr6sdosVYwBOoHAUEpn0dOain2L4+GqkSwJprTQm5BcPO313v3AukCcZGWaSqw7NKPSCq+Qd8zZI/r2jQUs4JG0LRGfa63cL/RNQqCQDoopD2qsT31GLamHqu2SNkrrfFG66nwsHJlVoT6WecPfVcxajkvjWiux6I0t5ISArlSgh4zA+DTzlnvN4aH7jT7AkOAIXAbAqK78cyvKYjekyEEJ/KAe7gjes4MgIW1HBI9j0ci1g5SX2FT0iHsTP+7uj6QUK1xLILtvQ36vWM0BEE0XedWFuHDqA1IK7lFJ6OW59DFJRjPBz8GC5mSWRH0ZJMirFun5nD0m0Qkn66KXAbg2boJej8XSIOU9D3vWU+gZM1gCBgcAtVyxEVq/PFBFIozK4RURpkEHR/3RnDf5npd5VUkNyQCLr4wFe9d3oBKTg0JiUqUAIPcO2Cy3wBa3tmQ9zGjIQiiq4FUezxw/Sy+T9xL2Si5iHnnueCR6N40nAUs6slWIvofk8/l4tjXVylZoLnPdnIMeDEMTbyZJoKeDBVrBkOgzhEQCQLRPjj21VUhOJHnYedmgf7zQmDvakHl8vU1OJEquHA8VJwaX8bvxMmsaEH4DTy8bdywIHQ8XC2dDF6sz+gIAplkhZoyrIjaiLjCNCq5TAYz0N4D80PHw8HM1uAHrc5XayPdkIxVRbEG+1fGICepSj1NQjQRvBE20F2vTxCNBBl7LEPAKBAga19byeHED4m4dvIWdS8QgaTgvs3Q7Sl/+v/6mnlGyUFV/MSl3ASsjNmCSlo0UChjPzNwOAY0b0/HSV/78KCTyKgIgmhFIPEIsQVJ+ChqE632KEhbSjHBtw8Gu3eCmUxhsEEjDzqw+v65ahOdjkfk7nSc35YKiVQqaCKEOGLAvGAqvUzNjgagWa7veLP2MQT0BQHRelB8S4X9K6JRnK0SDAVSCfrOCYZXGye9f7mS2INCdSnej/wZSSU3QUoDEs7QrkkAZgUOh4PSxijc2UZHEMjMIgSBKFr9dG0f/kg/TScblfSVm+ON1tPgZ+vOrAh6sFuIwYo5KSU4sDIGqiI13SQU5lIMe70VnDysq7IZ9KCxrAkMAYZAnSAgHA4kuHoiC8e/SaCRiYL2gS36zwuGpb2ZXhME0n7iyt6a8id+TjoMC5mCttdGbkGt1IKCr3EcbIyOINQMHsksy8OH0b8gszyXBo9oeC16ubXCzIARNGCRpp4YRoGwOlmY+ngTkuJYWaalGuwp53KFFCGOR3BfN3SZ6leth8CsCPo4eqxNDIGHQ0A8FBD//YFPYpARnS8E8Ul4tBvrjdD+zasthw935/r/tPhuIX8nld7A8qiNyFOVUDKg5nUY6tER0/wGQSlTGI3Ev9ERBHGaiCyP1Gn4IXE/NQGRP+YyJWYEDEM31zBIyU+Z+br+V9Y9niAuOGKbSzh5C3//mAidRgj+UVrKMHpZW1g7meu1UEqjgccezBAwQAT+SXEuwa53IqHTcvRlaumgRL85IXD2tgHouU0/T26k/cRt/X3CXlqxUbBOA7YKSyxt8xTcrZyNwrUgTi2jJQjU1cBxqNBV4oPIXxAr1mkAD387D8wJfgxNLZjCYmPvMaI/siRbhYOfxaHgRhndHDSVOnR/2p9aEpjAVWOPEns+Q6BuEKDS+BxwemMyovddh0wupS6GFm2d0GuGP5QWCr1VURUPndH5Sfg4aiPUnFZwhUCCmYHD0NutDVVPNKZDp1ETBEEGk0dC0XWqjVCsLq/mpeO8e2Osd0/h5VP1U2Ma2LpZzvV/FzHdkfx9ZlMyIndnQGYmI4EkcA91QO/ZQTCzlNEARnYxBBgChosAWePEfViaq8KeD6JRmk+CEwWXYtcnWiKoDxGz0z+3b03XQoG6BB9GbURiUUZ1hlyEoy/mhz0OS7mZ0cQemIQFQTydasFhQ+IB/JFxqioRBXAws8ErEZPhY0NKDAt2IkYQGmfzEc2OmfGF2PNRFEkmpimOZlYKDFxANBGs9TrtqXFQY09lCBgWAuJhIPHvbBz7Oh6k1CEhB1ZOZhj2WgRsnc31VkGVkhtw2Jl+Ej8mHIC86sBCCM1LoePR1jmQurGN7R1i1BYE6h+iGQ08MsqysTx6I7LK8wWLAQmKaRKI2UGjYKWwNJqgEsPaMv5pLTE9qst0OLwmDjdiCiCVSan1p90YL4QNcRdMkUaQV2yo48PazRB4FAREcqBRc1QYLeVsDs1Q4rQcXd8dxnpDptS/NV4z6D2tNAufRm9FZkUOJTdaXocebuF4JmAkLOT6nXnxX8fO6AmCSBJIWsqhm+fwfcI+6DhyRAXkEjmeCRpOFRbFtBRjY4D/dWI05PdESw+vA5LOZlNlNWLRIacLpxbWGPJKOC3gwsamIUeFPYshUHcIiAShKLscO5dForKqMJPcXIqhr0WgSQsbvRVGIynz5VoVfkjYiyM3L9F9iBxe7M2s8W67GXAxczRoOeX7jbJJEAQCABlkUuVxVexWnMmOo/4jIovpb+eOF0PGwdnCgVkR6m4/eOg7iW6GkpwKHPgkFkVZ5YIyGc+j7wtB8GrrrLcbyEN3ln2BIWBiCJDMJJKxELkrDee3p1MLIVnbHq0c0euZQJhZyPXOvVAdewDg5K0orInbDi2noyMnk8gwtWV/DPHobNQxbCZDEMTBjspPwqqYLSjSVAUsSiQY79ULY717UZOXlKU9NtrWRSwGOg2HU78kIf5IJqQyQKfm4dPZGb1mBUJepazYaA1kD2YIMAQeGgHRelCSr8If70WhJEdFU5dJnBHROgno6aq3iqnkYJmjKsKnMZtxtTADMong+gyx98KLYeNhq7Ay6GqNtQ2mSREEmsPKqbE15S/sTj9FZX1JDqudmTUWhU2Av61HtRmbmbNrmzp1/3vR1ZB2IQ8HV8dWyWHzMLNVYOD8UDh72ejdKaPuUWB3ZAgYFwJ0XXNE6yQLR7+Ih0wh1MchGicDF4TAvpml3qUyCwdKnlqd6fsi4xRVTyRWD3O5GV4IHk1j2CRETUeqn5oNdTGLTIYgiLEIZGLeLM/FyugtSC3NIpocJGgeHZwD8VzQaFjLiTAPS6mri8n1X+5BrAiqEjV2vxuJwswKSGUSGmjafpw3wgeTAk7GFyn8X3Bi32EIGAIC1ZlkKg7HvklA8tkcahnUangE9nRDt+kt6RrXt5eskLXAIyY/GZ/FbkWRWtBnIX/6N2+L6f5DqTXBWCSV7zWXTIIgaFVFuHBkFw4ci0S+TomWHQbALlSB32/spRYEwv8UUjlVWOzVrLVR+5T0fVMh2QyEsUXtzcCZX1MgkwpFUNwC7dD7uSBY2Cn1bjPRd0xZ+xgCjYWAGFuUk1yMw5/HobxAQ9cz+fngl8PgHuxArQn6dCgTSQ2xNq+O3YYz2VcgIxkX+D977wEdV3Vuj+9pGvUuWVbvspp77xVXTLExBgKhJpQACSF5eS/5v7feL+vllRQCphMg9N4MBuOOewHbsnpvVu996r3/9Z0793pMHGxLM9Jo5lwvlo10y7n7lLvPV/YHJPpPwOOTb0GUTyiD1N0tzW5PEKyD9Xj33x/A7z+vx6SZUzBQdhSnqtS4/r+fRvqsNnzbXsx8SDRo4/wi8R/Tf4wgHeXdS2Yjdx8AY7Vw/NBzKaBpsMeIT/7jDIa6TexUnbcGK36WhZjsYClWxI3Neq7YJ7xNHIHhIECEn+TT83fW4/THtSzwWBQETEgPwtpf5ULnRSJormOiV9IaRQG7Gk7i9fJdMJNiogrQqbS4O30tlkfPYO5PT/g2uDdBEIw4+cJjWPfLlxG77uf4r1VG/Pp3z6Oo3YCZD7yMV3+/EtuK3keHsYdZEcyiFSujZ+CejA2sZoMnDIDhTHpnXiOzd5qRh/9ejtIDTUwkyWoVkbFoAubfnsbIgistKs7Eg9+bIzBeEZDncn+7EXu2FaGjpg9Q04cVzLWQvihKEqlzoY0YbRQpMLG+vwX/k/cW2g30bZB0c6aFpeEhckO7eWCi/Xhza4JgbCnAz7Zej1ePtGLL717Aj63v475tu9DtlYpfb3sFj90wGTvqDuGD6gM2s5cEzWO5WzA3Msvt/UuuuvDILL4urxP7ny2GxSiwuhp6fx3bdcjBiq60sLgqlrxdHIGxQEDOXKBnVxxvxYEXSpRmBEb6sHnsH653ueBEIgdUjOn18p3Y03Ca7B3s2xDmHcjS4TOCEzwqHd6NCYKA2uPvYdO1P0beUDB+89Jh/P6WGJSeKYYQmYS0mDCoBQG9pgH8V96bqOo9D5XNbJQeGItfTr4FwTo/7moYg9VF1mw39Jqw66+F6KjpZ24Fi0nAjE2JmHGDbZK6kGlyDGDij+QIuDQCEkkQsfeZYlQca4NGR7omQPriKMy/IxVardplLIEXNA9EnOuoxB/z32EZDFIpZwtuSV6Bm1OWs0qzrhQv4ewB4L4EQTDh2Gv3Y/29r8IQMhkv7D+E23MD2YClj80FCU0BZzrK8edz78MsmCVzF4CbU5bh2viF8FLrXMoE5uwB4Sr3l1KjRJzdUY/vPqqRamiIQERyAFY8nAX/ED1PeXSVzuLt4Ah8DwF5fW2p7GXuBYolojlMH9xlTPgs3OXqq5Akf59pAP+d9wbKehtYbQX6WWZwPB7O3oRIJqbnWbFpbksQBNMA3np0Ju58vgTBqXdh9+nnMT3A66JhzD5CAExWM96r2ssKcahBQhhgxTh+N/UOZIckcYIwFssfSS2LAnpaSVwlT1pgVIBGr8bCH6cjZV4kVCqRWX34wRHgCLgWAhSISAlJ335Ug/yvzjN2T1kAIRN9seF3U6H31bpUoDErQ60C3qnYjY9rDrGsBYpB81Z74cHsGzArfJJSaVImCa6FuHNa41YEwTzQgryTBei2irAau/DGv96Bt/INmLDgUTz727UI1Gmg8w1Feu5UTAy48GGhD1HjQDv+nP8u6gfaGEukgMXZVMwp+3oEaiVXAw9adM4gvNRdFZOfKOLwK+Uo+aZJMkeKQNKcCCy4PRV6fy3vl9HrEv4kjsAVISDHH/S2GrDnmSJ01kouQiL4M25KxNS1ccyz7yprqqx5UNpdhz/lv4s+8wCzdVDNHtI8+HHaWnhrvWzCbVcEgduc5FYEoTP/bVy76mEUGqywWo3o7zewjtJ5+0FP/i6tBtHZa/DnN97E+iSN0ok0WGkw7G38Ds8Ufwq9Wss+RGRFuDV1JVbHzGEpLiyYlUsxj9rgl0lCY0k3dv+1COYhC3u2d6AOKx/JxoS0QI8KGBo14PmDOALDREAmB/R35Yk2HHq5jMmnk1U2INwbG343hbkHXWEdZW2Vyr3AIljwdNFHONpSyNYUK0REegfj15NvRWJAlMcGrLsVQbAMdqKqugkmwYLeY09g9U9fQ786Fo+//S5uywyERqOG3jsQMQlx8NNemAGyrOagxYQnC97Htx1l0JD/CSKifMLwWO5NSAyIdst638NcB0btMjL9Gfst2Pd8CRrzu5gVwWoVMO26BMzalCi5f3iw4qj1B38QR+CHEJCFkcwGKyvrXHOqHSCxM0HEpGVRzD1IKYMuYz2ACIvVikMteXi+eDtzaxJBIJ2DezLWY+nE6Wyj6O6Kif+sT92KIMgvKVpNOPvkDZjxyy+B0JX4quBjrJoYwGSV/9khxSOIaBhoxx/yXmcFOoj2EpNcFjWVDRYfrTffsY7y+khBQqJVRPG+Jpx4txJUTI0Wm7AEP6z99WT4BPAg0lHuEv44jsAlEZAtfvTL5rJe7H6qUCnrrPPRYulPMxA/NdQlyIF91kJ1XxP+++yb6DL1S6J5oogZERl4MPN6BOh8PZYcsM2XaN+rbjLwreZ2vH7rItz9YQl85z2G4p1/QHyg/rJvR+yRzE2f1h7EO5X7WbEOYpNeGpJhXo/FUdOUao+uYCK77Au5wQmy2EpXwyC+/ksBBjqMzCyo0aox97YUTFpKYis8PsQNupq/ghsgQOSdjiNvVqB4TyOLPaBFNWpSEJYzqXSdS8xXeV0ZshrxatkO7Gs8y2or0OGv82FaOFnBiUrcgaeu925JECx9Z/HgvHV4qbAV2fe/iMNP3Ilg78tHu7NgFVFkyop/KXgfFT0NUnodROaHejR7M2L8Ilimgy3bxQ2mtOu/AusXi4gjb5Sj9JtmW58AEzODseKhTOj9tEqEseu/DW8hR8A9EZB1D7qahrDriQL0tRpYSWe1Vs2KrWWtjCEhRXaM5QdX3hNbRCtOthbhhZLtGLKamMWYfrY1eTmuT1wML4pFG+O2jvVIcUuCYCj9CMuW343jzcAtT76Pvz2wGr4XYhJ/EHM59fFsexmeLPoIA+YhZZCsj5uLLcnLWeoL37WOztC1N3A1lfSwnGrTgIWRNi+9BssfpvoMIWwh8qT0o9FBnz+FI3DlCIhkgRWAwt2NOPleFagyK1lkQ2J8sfqxHASEebtEoLe8xjcMtOEv+e+idqBV0jyAiOzgRPxq8i3w1/rwTYe7uhjqd/wFC3/0r6g3xeEP732MxzdMhl1M4mVHPAXG0WB5o2Invqg7bhP4AHx1ejyYeQNmRWR6nGDGZUFz4gly4BNFQ1NFuNozHVBr1Mx0mbs2FjM3J0GjkUqxjuXOxIkQ8FtzBFwaAcVk32PG/ueL0Vjcw9yxFouAqRviMPvmZMnoOsZzVKokKcAsWPF6+Vf4sv44tLYMtUCdL36eI7sWuNuSdZf7xSCYcWjb47jxV9vQFzEL73z8OW6YFXnFk4sGOn1kiCQ0DXbgj0wboZUNbopRSAmMwW+n3o5AKtihVrOAFv5RumJ4h3WivPjQxWWHW3Ho5VLpPqKI4Im+WPebKbwM9LCQ5RdxBByEgE107nxBFwtOtBql1EYvHw3WPD4ZE1IDJB3FMSzceEE9V2SuhWeLP2V1F+iwiAKui1+A21JXQUP2BB7XJFnO3Y4gWDrxyq9/jIf/ugNBUzfiw+0fYn7s1dgPpFrldFhFKw41n8MrpV/CYDVKM0mlwtrYObglZSX0rOIjN207aIn5wdvIVoTupkHse6YIXecHpLLPKmDu7anIWh5t654xXIFGAwj+DI6ACyIgBycefLmMiZqpNVJqY8o8qsCaAr0fBSeOvYWPNn7NQ53YVvgRynrrWTwZxZ3F+0fi36b+CGH6IE4O7MaX2xEEsbcO/37vGvzhg3Jkr/kNPvvk90jyHt6MosFEioovlWzHnqYz0KlIhlmEr8Ybj+ZswrSwdO5qGB60V3+VTXqZghW/+6RWkW+VUh4DsP63U6DTa1xKvvXqX5JfwREYXwjIFlSahz2tQ/ji93kY6jMxV4LWS4Ol909CwjTXSG2k9dwCAe9X7sHHNYeljDQV4KPR47dTbkdGcDzfZHxv+LkdQRg4X4AHNszHGwVmrPz5e/j0TxvhN4w5Z58nS9oIJMNcN9DKBJRIGyErOB7/OvUONrjk3FnuahgG0FdxiWxFaKnoZWWgB7sk8yAZfJY+kIHUOZFj7uO8itfhp3IE3AIBNi8FEac+rEHejnppPYSICamBWP5QJvyCx7awmhyUSGDndVbgyYIP0G8eUjZ36+Ln4vbU1azdJJDE3cYXhqWbEQQLmkq2Y9OCm3ByIAAPvFaAbTfHDnsS2qfDHG0uYJYEg63iIykkbIibix+lXcN9VsNG+OouVFw/ZgFkyiw71AKtTs0Wp8RZYVhyXwa0zIpw+ZTWq3syP5sjwBG4FAIyOSB9kh3/dw79bQalWu6MGxNZgCLbOI2he0GOYWo39jJyUNpTx8gBkZg4/wl4PHcronxCoWGKrNxFad/P7kUQrAMo2/WfWLzhz+gJmIs3iw5jU/TIO5xMU5Kgxpf4pjnPhh/FKajwm8m3YGpYBhdQGqX1U8q1BmpOt2P3k0VS0JMK8PbXYfUvcxCRGDCmi9EowcAfwxFwCQTk+Vh2tEUKHhYki55viBfW/DIXIbG+Y+rTl8mBRbTgs9rD+KD6G5bFQIdeq8f9k67FvMhcvn7/k9HkVgRBGOzEgf9Zg9X/dRohS/8T+Xt+iwkj5AeKq0EUUTvQgqcKPmSuBtqjEkUgta1f5N6EIK8ALsM8CkuW3B9DPWbse64IjYXdLOWRfj7l2njMuDFB8S1yl88odAh/hMciILv8SAp933PFqPm2nZFzihPKWhWNubekQOslZQSM1SG7Fwq7qvBU4UfoNPYpGWlrYufgrox1TEHRU2stXK5fxjlBsOD8d9vx9/ePwGfqemxZmoC3t+Tg34774+YX9+Htu3Iv9/5X9HslzU4FHGrOw9OFnzDzlHxsSVqK6xOXQKvWKEz0im7MTxoWAtQfglVE1YlWfPNyGavVQDsX/3A9rvuPaazaI09TGha0/CKOwBUjIBOEnpZBfPafZ2AeokIpgM5Hg2t+kYMoqraqHhs9AfsYMhK7+2P+OyjoqmFZC7R2J/hH4uc5NyHWN5KvFT/Q4+OaIAxU7McD9/4En548D59pN+Nvv1uOp7beidPxm/DRjpexND7wigf7lZxI6TD95kG8WbkL+xrOKDLMeo0Oj0/eiimhqZyJXgmQIzxHJmz97UbseaoInfX9Uv12ixXzf5SKrFUxLM1qLHcuI3xFfjlHwKURkF0LJIR04u0qFO5pUMTL4qeGYfG96cztN5aVVsk1TJV936/ehy/qjinp695aPe7JWIcFkblsU0cHXysuPdzGMUEQUb3779h8+3040+GFnOsewePTuvGz//ceNvz73/DCrzfBVujPIRNNEdkQRTQMkkTne6zyIx0kspETkohHczYjUSTscQAAIABJREFU1CuQM1KHIP7DN6HJL1rBUh7zvqi1iVsBoXF+WPN4DnyDuRz2KHQDf4SHIiBbD0iP5NP/PAPBLLB4IKq7MP+OVKQvnDBm1gPqEtrMkTnjdHsZthV+jAHrEFQiySkLWBQ1GfdlbISP1kspxuSh3XjZ1x7HBAHoK92Dn955L3aWqzF39VKg5hyaI1bjpWf+FdNj/B0ej3pBQEnAvsbv8FzxZ9CqJAZK6TGbkhZjY8JCVuSD+7QuO/ZGfAJpvbdW9OLrJ/JhHrQqwYlLfpKB5DlkOuQ7gxGDzG/AEbgEArKb78z2WpbeqNOR4BAQnuCPlY9kwT9MP2YbJSnuQGQqiVTGuai7lsWMkbZjtG84cy0kBUzkGjZXMLLHNUGAaEH9yQ/x5yffwneNZkxbdTv+5edbEe1HagXOOWSSQIPvmeJPcKS5ABpbEA7VDv/15FuQHhTn8WVCnYP+hbtKJk4RFpOAAy+Voup4K9u9kA80eW4EFt2VDq2eS6Y6ux/4/T0TASLn/R0GycVXN8A+yBajgDlbkzB1YwJUKpKgH/10Y3l9JtfCu1W78WntUaZdQ390ag1+krkRCyfkQmPb2HHXwg+P3/FNEMZobsoMtd3Qiz+cfQ3nB9uhYqVCBUwPS8WDWTciVB9oK07iLKoyRi/vQo+Vc7CpMMyuJ/JhNYtSymOAF9Y+noPQOH+pyuMYRlG7EFy8KRwBhyAgWw8qj7fh8KtlEKxSFUfvAB02/NtkVh+FzHdjMe/IsSAIVpxsK8b/nXuHEQF5BV4aPQ13pK6Gn86bW3ivcCRwgnCFQH3/NJokVgg40HgaL5Z8TkH0VNiCnXZD4hJsTlrC3A9ctGeYAF/BZXKglMlgZWWgGwq6mNSy1SpgyoY4zLg+kaVZjaVIyxW8Bj+FIzCuEKB5N9RLVRtL0FDQKcX/UJrxujjM3JQIjU6yHIwmQaA2yUX2Wg1deKLgfVT2NkmB5CIJIkXil7lbEe0bNmauj3HVybbGcoIwzF5jLFoUYbKasK3oE5xoK7KVhVYh0MsXD2fdiJzQFJZjO9qTZZivNC4vk60I5UdabbsZqQa9d4AW1/52KoKiffhuYVz2LG+0KyIgZxDV5XViz5NFTMWUDHT6AC3W/mqyZLUbg9gfWe/AaDXhvaq9+KLuKFS2lEaNWo1HsjZh3oQcvhZc5aDiBOEqAfv+6RRN32HsxX/nvYGa/hYqFMr8cRmBsXgk5yZE+oTwYJgRYvxDl8sLVl+bATv/UoC+5iF2utloxZxbUzB1Q7xSYnY0dzROfGV+a47AmCAgzzWrRcTBF0tRcawFGi2JlAHJsyOw6B5b3A9pHzgtCuzSry67fQ835+OZoo9hFSmrQsWsB9cnLMDmpGXw0ug4QbjKkcMJwlUCZn+6HBBDPzvVWownCz+EUTSzQWiyWnBt/Dzclb6O/T+5GmQz2AgeyS+9BAIknSoKKhx/twLnvmyARiN5HcOTKKI6G/4hepZyxfHnw4cjMDwEFOEhUURLWS/2PFUI46AFEFWwmq1sniXNDh918719u5oNnfi/vLdxfqDNZrUFkgJi8KvJWxHG08+H1fGcIAwLtosvEkQBQxbJtPVV/QmbxqLIgmHuTFuLRVFTWFYDKy/KD4cjoORkN/Tji//Kg2nQyhYqjU6FuT+ScrK5cJLDYec39DAERCqXbBZx8r0qFO9tBBWsgyAgOM4PG/51CvR+ulEtt26/QRswG/BGxU7sbzxDnIVtBui/X0+5FTMjMpiCIrcgXv2A5QTh6jG75BWyq4EkPSt7G5irgQIXY33D8YucLSxIhkgCH6QOAvx7t2HCKKKIo69XsMULNotNTFYwlvxkEnyDufyyc5Dnd/UEBGQS3t0wiN1PFaK3RXLl0Z5n4T1pyFg0UYFhNNc4FiwuCjjcko8Xi7fDLJjZBo00D25KXIxNScugI10avjkb1jDlBGFYsF18kWLmgoizHeV4tuhTdJv6bVLMwJKJU3HfpGvhpSYfmHTwAesA4G23UHYSItBe089iEQy9Jpa9oNGqGEFImhUxJsFTjntLfieOwNghwIKyzSIK9jbi1LuV7CNMnDws3g/X/m4adKwok40xjEIz7a0HNf3N+GvB+zg/0K7EgOWGJjPrgZdKxyy3fL0dXqdwgjA83P6pFcEiWvFJ7UF8WH1QKSuqU+twZ9pqrIqZpQxUPmAdCLztViTeYjVZcfDlMlSdaGMLFgVUJc8Ox7IHMllAFU95dDzu/I7ujYCcTjzQZcSuJwvRXt2n1FiYcUMipl0XP+qbHtmFMGAx4JWyL3Gw+axUiEkFBOp88Gj2ZuSGpEhyz6McMOlOo4ETBAf2pmyG6zB249niT1HQVc2U/SirIVDni8cn34yMoETOaB2Iuf2t5EWj5lQH9r9QApEEXKCC3l+DZfdnIjY7hBMEJ2HPb+ueCFwIAgRKDzbjyGtlLCCYzAckp7zi4WyEJ45uaqPcJrNgwZ6Gb/FW5R5QeqNkwFDjxsRFTIuGJO+5tXZk45IThJHh9w9Xy/oIJT21eLrwY7QauhWz14ywNDyUvQn+Wp9Rj/Z18Gu65O1kgmDst+Drv+SjrapfSnWCiJS5kVh4Vxq0el6S2yU7jzfKNRFgoT0iDP1m7H22GI2FkhgZuRjSF0zAvDtSmRjZaJVXt3fnFnXV4KnCD9Fh7GO1FqyiiKlhKXgsdyt8tXoW88Uzl0Y2rDhBGBl+l7haEuqh/3bUH8HfK75mVcTIjkAD9taU5bg2fpGS0cBdDY7tANkcWnaEdjsVsJooVBTwCdJhxc+yWI36sZKBdeyb8rtxBJyPgGwVJZcdySpbjFZGDvR+Wqz4WTaiM4NGfZdOWWPdxgFsK/wAeZ1VTIyObIUR3kF4JHsTJgUncO0ZBw0NThAcBOQ/mrqBblMf/l7+FY62FNh+LUKv8cK/TLkV2SHJzLLATWCO7gCJoJFQ0lf/l4+Wsh6oNJIXMncdyS8nMCnYsaxT7+g35vfjCDgDAdkiZ+iz4PDfy1D7XQd7DMX6pM6LBFVN1WhGL65HaY9gwjuVe/D1+VMszovciF4aLW5PXYUV0TOZxP1oWTScgbsr3ZMTBCf1BhvMEFHb14QnCj5EIxV0AhV0EpERFIvHcm5GuHcQr9XgYPzlHQ8tEPlfn8eJdyqlJwhA0EQfrP5lDgIiyMXDM0kcDD2/nZshIJvz6891Yd8zRTAbrOwNqUrqikeyEZcTMmobHLktZD042pqP54q3w2Q1S0HfIrAwKgf3ZWyEj1Y/am1ys+6+5OtwguDEXpZzdPc3fYfnirYrdRmIKayLm4OtySuh11AazuiXRXXia4/5rRlJEER0NQ5i3zPF6G4clBK2IWLm5kRMXR/PgxXHvJd4A1wZAXm3Tm2kokyVR1slq5sIJM4Mw8K705kw0mgRbWnDBbQNdeJ/z72NWpusPdkPUgNj8Ej2Zkz0Dedp5A4eVJwgOBjQ79+OGK/ZasErZTvwdcMp6KgOuU0jnKqLzYqYxOIROElwXEfIi5tgBb77uAb5X9VL2SQiEBTljXX/NhW+gVw4yXGI8zu5IwJEslur+/DVn/JhHrAwgq3x0jDXQtLMCFZ1RqUenc0NCdGRINJ/nX0DeZ2V0FIAIiSX7WO5WzA1NI3HdTlhEHKC4ARQ7W/JHA2iiF7zAP587n0Ud9cwlkvMN0wfyEqQpgXGcn0EB/eDHKzYVtPPzKP97UbJ9KgG5t6SjMwVMaDQZy5/7WDg+e3GPQLy3LGYL2iKyC8VNSkIKx7IhPdoEWxbmrhZsOLzusMspVGukEt/b0xcgBsTFttE6LggkqMHHycIjkb0EveTUh8FFHTX4I9577CcXclgBkwNS8WDWTciWOfHSYID+0Je5Cig6ugbFSja02irPCciKj0Iyx/KhE+gFyMMPJPEgcDzW417BOQ4npbyXuz+awGMAxapxoJKhfl3pGLSkijpHZ0cx6PEHUBERc95/O+5t9BnHmLWQJNoxeyIdDycvVlKG+cB304Zd5wgOAXWf7wpM5FBwI66o3izYrc0nMm1AEnYY2PCAug1epvYBy/q5IhukReYptIe7H6iAKYhMpOqWN72ovsykDI7QlrnuE67I+Dm93ADBGT3nCgAp96vZoG+zOIpiIhMDcSqR7PhE+Q1KusUk3MWBHSa+vDnc++irKdemasU4P1YzhakBcY5nai4QbcO+xU4QRg2dFd/IVkRLIIFL5RsxzdNZ5nqF01IClR8MPMGzJuQzeuVXz2s//QKebGj6OsT71ahZH+TUiM+bnIorvlFDrMgUClufnAEOAIXqiAOdpuw4w956G01KNaCebenIHNZtBSY6GQJY0X0TDDj9fKd+PL8CRa/RS5Bqmlz76QNmB+ZA61ay92EThy4nCA4EVz7W8uKXmRJaBrqwF8LPkB1X5MtHgFI9J+Ah7M3Id5vAs/hdWCfSBkNQEtFD/ZuK8YQFXECoNaqsPxnmUicGs52INyS4EDQ+a3GJQJyajYEFc5sr8XpT2qluSECoQn+WPFgJgIjvSVy4ESrm2z5o6DEIy35eKnkcxgFM8PUIlixJm42bk9dDW8NWTKc25Zx2ZEObDQnCA4E80pvZRWtONVagmeLP8GgxRY8BxXmRmbh7vR1CNL784F/pWBewXlkpjQNWXHkjQopXUulApWHnpAayKwIpArHghW5Z+cK0OSnuCsCcuxBX5sB2//fGRj6JJ0BSryafn0CctfEOr3gmb3eAW2gnir8iGnI0EFzNjFgAgvsnugbJrWNT1qnDkdOEJwK7yVubovKZVUfaw7ho+oDLICR/G0UlbuVSTEvZGmPPMLeMZ1D6VqE7/n8TqaLYDGS/LIIUaXCiocmIXF6uNN3RY55E34XjoDzECDrJk2UvC/rceLtKharQ6w5MMobKx/OQnA0BVI7N2ZH1jvoNPawWjbnuqqgoSqNEOGn9cZvptyO9OAYFrvFgiQ5QXDegKDeF2XK5tTH8JtfhIAopTn2mQfxUsl2HGstUoZ5qHcAHsi8AVOoVKnNjOdMc56n9AyRBLIiHPxbKapOtkGtkcwFibPDseSeDOj0pE/h3MXPU7Dm7zn+EJB9/pQOvPupInTW90vKr2YB065LwMxNicyS4EyTvuzioCyv96r24fO6Y5IcvUraPN2ctAwbEhYwwsCllEdnjHGCMDo4X8wPSLFH2sOiurcRfyn4AM1DnawiGf0m3j8Sv8y9GVE+4dDwADqH9JBsPj1f0IU9TxXAaiakVdDp1Vj7q1xEpAQ6fXfkkBfhN+EIOAEBloptEVlJ56NvVjBpcjLp+wTqsO7XkxEa6+vUImdML0YQQZbVwy35eLXsSxgsUjo42ftmhWfgwawbEMAr4Tqh9//5LTlBGFW4L34YTUCKRzjUfI5F6vZTji87VFg4IQd3pq9DoJcvz/F1UB/RAmQctODwq+WoPtXG7krpW8mzI7D43gx4+UhFXvjBEfAkBGTNkIEuI75+ogAdtVKZdNq5T78uAZPXx9ncDc6xsMlGbKLsxV01eKb4E7QMdcnxkUjyj8IvcrewuANewnl0RyYnCKOLt/I0JavBFn/wRvlOfFZ7hJnS5AIkt6auwMaEhYwgcClmB3QUE6wC6vM6sP+5ElhMAtu1CFYR636Ti9icUImecZLgALD5LcYDAmwdggqCVUDB7gYmKqbVSbEHAeHeWPOrXAREekMyZDqePF9YB0X0mwfxp/x3kd9ZxSoykvUgQOeLx3O3ICsk+SI4+RwdndHFCcLo4HzJp1xgziLaDd14tuhTFHRVK+dSGg/pI8yOzIKGxyOMuKeknZIIw4AVB54rRn1+FwtOFCwC0hZGYuFd6WynxHURRgw1v8E4QeBC5sIQdj1ZiK76ATYniDhPWR+HGTcmsvLoziTOZEkdtAzhzYpd2Nt4htSR2PPUag1uTl6GDXHzoVWTBgLXKxntYcUJwmgjfonnyVLMFb3nWVpPq6FLCkYAEKoPwm+m3Ip4/yhejMQBfSUviJUn2rDnyQJo9ZJbgVIdV/wsE1EZwVLhR25JcADa/BaujoCkEyIyxcRT79dIRc2oKJNOg2t/NwVhcX5Qaxz/Yba3HNDz9pw/hVfLdzKXK5F4K0QsiMzBA1nXw1vtxUn7GA0kThDGCPjvP1ZOdfym8QxeLP2cCYKQ6Y8mz8zwdDyUvYml+XAf3Mg7jGU0GCz48o/5aCvvlXZMANOYn7M1GV4+Wqm0LT84Am6MgEyWBzoM2LOtCO01/extaX7krI7GnFtSlWwfR5v07eMOKnsb8Kf8d9Bu6GVZC5ThlRYYg8dztyLMO0jpAUe3wY271mGvxgmCw6Ac2Y0upPiY8Wkt6SMctOU0sIBirI+bg1tTVkGv5mWKR4Y0RWdL+d7157rYwihapIqbFKS44pEsRGeGcCvCSEHm17s0AopaoUVA6TfNOPZmhWTZFwG/MD02/n9T4Reqt80Dx5NlOa2yxdCFJwreR1Vvo81sB4R4+eOBzOsxOTRVqdzIycHYDCdOEMYG9394qn08AukjvFiyHSdai6XaAQCsgoAHMzdiefQMxRfHJ83wO49EYahGw56nitBY1EOKICzNK3V+JMtoIL+rs0Vhht96fiVHYGQIyOsNqSZ+/ZcCdDUMKMG5U6+Nw4xNSbaCco4N2lXWOYo7sBrwcukOlsUlURAVdGoNtqaswNrYuSzFm8cdjKyfR3o1JwgjRdCB11+QGRVR29+MZ4o+RnV/MzTkalCpEOUTwph1RlA8Z9YjwN1+kao41oqDfysjswK5PuHlp8Xi+zKQODWMCyeNAGN+qesiIKc10t/5O8+zQmZUzpnGP1kNVj2ahfCEAKeNfwpKJHWDz2oO44PqA0z7gB5uEQVcEzMTd6StgQ9VtiUpZZ5RNKYDiROEMYX/Hx8uR9qT1eBcVwX+dO49GKxSgSH6WXpQLB7N3owJPjwlbyRdJ0u6GvvN+PqJQrRSLALbxoiInxaOJfdmsMBFrq44EpT5ta6GgJTWyPgw+tqGsPfpInTUDjARJPpIZ66YiLm3pEJDQ9/BIm2yG5XWseOtBSxry2iVijBR3EFWSAIemHQ9JvrY6ixwcjDmw4cThDHvgkuQBPadEmEWrNjT+C3eLN8Fs2hhDIEqnK2ImY4fp66Br86bFywZZv/JVgS6vPZMO/Y/XwqLwcru5uUrWRESpobyGg3DxJdf5roI0Ni3mgUU72vCqQ+rIZgFZj3wDfbCNY/lICze3+HuNSXmQRRQ1lOPpwo/RJuhhwUlkj0h2jcc92deh/SgOG4ddaGhwwmCC3WG3BQlBUgQMGQ1MtnRfY1nmBYCmdw0Kg22JC/D2tg50FPJU860h9eLZOqUpBGwe1shar9rl2I+RBEJ08Ox+J50ePvTVoqbOocHML/K1RCQgwN7moaw7/kSdFLmgprmgIjc1bGYe2sKa7Kj1xTlueZ+bCv6CHkdlUpGlk6jxU8nbcSiqCmMMDj62a7WB+OpPZwguGhv2Qcttg514y/576Gyr5FpIdDvAr38WGnoOZFZTHXMGZPaRaFxWLNkXyzZXGtPd+DAiyUwD0lWBFKTW3RvOlLmRHI3g8MQ5zcaSwSU2AMAZz+vw3cfS7oHdPiHe2PVI1kIS/B3+FoiuxZISp7EkPY1fmdL4QZbzzYnLcWG+AUgYThyf3CCMJaj5OJnc4LgOn1xyZbIRKGuvwX/e+5ttDKNcilXeKJPCB7JvgmpQTG8XsMw+5EtXlSjYcCCg6+Uoe50ByME9LPo7BCs/FkW9L48FmGY8PLLXAgBmSD0tRuw88/56G4cgixOmLsmFjNvTIRap3KYKJG91oFZsOCr+mP4e/nX0LENjVSCfVFULu7O2KBovLgQXLwpvNyza48BNsGIUtvUzfY1nsarZV/BKJgU5j8pOB4PZd7AghYpqMjxGcuujZEjWkcpj0S6as924OBLpaygE+Go8VJj3o9Skb5wgoQtB9cRcPN7jBECUuyBiBPvVaF4byPzrdFH2j9Uj5WPZCOcrAcOLnlOmiMUN3WmvRQvlnyOHtMge3sBApIDovHznJtYESaaf9wKOkYD4wceyy0Irtcnl2wRfcQom+GD6v34sv44E/thBYtVKiyYkIsfp61BoM6P5Q7LMQzj5NVcopms1KxZwDcvlaDqRDsrTkP8LCo9CEvvnwS/UCnWg5s/XaK7eCOuEgEpBgBorejFnqeLMNRttpEBYPI6qrmQwFIdHaUgap9KXN3fiCcLPkLjIFVQlYiAv84H/zL5NmQExfF5dZV9OZqnc4IwmmgP81n2pjqTYMEzhR/hSEsB89/RB4vyirckLcWNSUtYAKMcp8A/ZlcGuH1GQ0NRN/Y+VQjTkFWK5FarsPDONKQvjuI7nCuDk5/lYgjIrgWrRcDJ96pRuLtBcaOFxvljzeM58AvWK8UaR7puKEHWooA+0yC2FX6Ib9vLoFNLrjq9WoufZm7EgsjJLACY1it+uCYCnCC4Zr/8Q6vsgxYbBzrwQslnKOqqVQROvDU63JG2WlJapPLQDs5hHicwDbuZ8g7LbLDg2FuVKDvYLNVosIqImhSENY/nQutFhZ14ENWwQeYXjjoCCvkVgfa6Aez6cz4GeyRdFRrMc29NRvbKaFumzsjHtvw8sm8Omg14q/Jr7G88yzYxdFgh4IaEhbgpaTm81FpuPRj1EXF1D+QE4erwGtOzlckniqjqa2SZDe2GHogsTkGEr9abFTjJDk1iJEFaAzg7v9JOk3dazaU9LO3R2G+R9GMAzL0lGTnXxDpsl3WlbeLncQRGigC5J2mR2PdMIapOyam8QERyAFY8mMkyGChYcaRrhX16thVWfF57FO9W7mUB1RRjQOQgNyQZ/zLlVlahkbvsRtqzzr+eEwTnY+zwJzCpUlHA8bZC/K1kB6h2Ax30IUsJnIjHc29BuHcQD/y5SuRlgmA2WpkVofxQs5wFxiRo1z4+GUFRPkqFu6u8PT+dIzDqCMhjui6vA3ufKWYCSUR6qZzz7JuTWQVTSipw1MeaxUaJIg62nMPrZV+hzzwkKTeyCo2x+EXOFkT4BLO1aaSEZNTB9MAHcoIwDjtdtiRQ6tCehm/xGqujTqXYpOShjOB4/Cr3FgTp/JRJyCfj5TvaPhaho7Yfu54sxECHUU4kwdRrEzD9BgrmkmIT+MERcGUE5BReiqc58EIJ6vM6GTkQBBETs4Kx4sEs+AToJFcaSTCPwNooueikrKu8jgo8W/wpuox9Ssn6YL0/Hsq8EZNDU5SYg5E8z5Vxd6e2cYIwTntTEh8BBixDeK9qH3Y3nFL8fBbBgvXx83BL8ir42JQW+WS8so6WYxEo9uD0Z7U481mtTc4a8I/wxppf5yAwwpfHIlwZnPysMURAth7U53di/7PFMBuk3T19xJf8JANp8yZIrRthXI19fBS5Pp8r+owVm5MPEnW7PXUVFkRNsWkgjNydMYawetSjOUEYp91tPymJqb9USuWhS6FVSdEHWo0Gd6atxdKJ06BVU2aDepy+6eg3WyYJPc2DrJhNV/2gFPXNitlEY95tKdBo2Ko6ol3X6L8Zf6KnICDv6IkU7H26EOcLuiVLmCAibloYlt6X4TAZcWmzIqLL2I+nbTLKGpWa/Yz+3pqyHBvjFylEm29Wxs8o5ARh/PTVP7TUniTU97fi6cKPUdXfpNRx99P64L6MDZgbmcXSH9lmYQRmxHEM1VU1XQkGtQgoPtCEk+9WQ7BIiyCBS7EIMVlBnCBcFar85NFCQFkXrCJKDzbj0KtlUraTrRAZBSaSi4HpHoxgPbBff3pNA3ip9AucbCtSRNxoU7I2bi5uTFzCdA94OuNojQDHPYcTBMdhOSZ3ss9sKO2pw7bCj1hmAx30QYv0DmE5x9khSVKVNNr4cr3Fy/aVbJ4d6DJi//MlaC7pkYraWEUkzqJCThnw8qW0x5EtspdtCD+BI3CVCMjWg94WA77+SwF6WqRAQTpS5kdiwe1p8PJhaQvDJggsZsEWfGgRBXxQtQ/ba49Ibk6W+SOyjcldaesQog/gAdNX2YeucjonCK7SEyNohxyPIIhWfNN0Fk8XfcJcDbQA0O8SAybioczrkRAQxaOHrwJn2dVQcbQV+58rhlorLahavRqL7slA4oywEe/CrqI5/FSOwBUhQG4ECkQ8+3k9Tn9CMTTSpl7nrcaqn+dgYkbgiImt7FagrAVZAp6Cpok0WMkVF5KA+zM3IsYnYsTPuqKX5ic5BQFOEJwC6+jelNg6K+AkCjBazdh5/jjeq9oPq2hlKwOlGOWEJOH+Sddhgm8oZ/NX0T2UTmrot7JKj3VnOhRTbUx2MJb+NBO+gboRB3ldRXP4qRyBH0RAylwAupsHseuJAvS1GqSPtiAySWUqyEQEd6SuBSIctCE53lqEZ4o+AZED+Yj1C8dDWTciOSCGS7+P8/HKCcI470C5+XKaEqU7UpjiK6Vf4GtbZgMtBhZBwKIJubhn0noEaH250uIV9LviYxVEtNX0YeefCmEaNEtXCsDCe9NZISfy5dIxkkX3CprDT+EIXJYc0IbAbLDixAdVKN7dKKXjqoCgCT5Y9y+T4Rvixeb+cNMa5TlB60xl73k8VfgRqBy95MMQEaDzxQOTrseMiAy+EXGD8coJght0ov0rELMXBQE95n68XLoDx1uL2cQlCwMFDa2OncXqr1PQEBcruXzny24GEpgh8aTSA02SyVYUETTRl5WDDo6htMfh+3Mv3wp+BkfghxFQyKwI1J/rxO4nC1m8DBuXamDObSnIXDqRiXwNl8iyIF1bZdnz/W14seQzFPfUM25A/9H6cnfGWib3rlFpeVCiGwxaThDcoBO/TxBUosiChYasRvxP3pso6KpRYhIsghW3pa7EjYlLJeJAq8cIRVLcDMJLvA75dIG2yj588YezzITL9kuiiKzVMZizJVlZeEcQFO7+MPI3dCoCFHtgMliw//lS1J2Eu/H2AAAgAElEQVShiqRS5kJYgj/WPJYDb5so0nAIgqyfQM8g7ZU/57+Ps50Vkq6BiuIOBKZ1sD5uPk+rdmovj+7NOUEYXbxH5WmsLIqtOAoJljxb/AmqemnnS0GLgI9Wh9tSVmFZ9AzouEbCZfuEMKNYBEp1pGp4Bbsa2K6MVl+fYC8sf2ASotKDleqPl70hP4Ej4EAE5Iwb+nhXHGvF0TcqYDFJokg055fen4mU2eEjipVhSb6CiD7zAF6v2IlvmvLZeKcFxSKKWB49DXelr4OvVs8sCcN1YTgQFn4rByDACYIDQHTFW9j7Cku667Ct6CN0GHsk6VNRhL/OFz/NvBZzIrJZ83mO8uV7kRZIw4AZX/whD13nByWJWkFEwvQwLL43Hd5+PGDx8ijyMxyJgL1roa9tiCkmtlX3KxaupFmRWPZABjQa9QjkwaWsCKNgxlsVu7Cr4RRLYyTiTJaDzOAE/DL3ZimdkVwaPI3akV08pvfiBGFM4Xf+w2kBoUl8qq2YxSR0mwZstQVETPQNxS9ytyDRP1qZ0sMxPzr/Lcb+CfJCTFaD0kPNOPJ6BUQL7dKkti28Ox0Zi6NsOhM8YHHse8xzWsCqNQrAd5/apMEpMJGsWyFeWP2LbIQnBNiiBK6+3oKczkjZUdvrDuOjmoOMFNNB2VEZQXF4nJEDKXWSWw7ca9xxguBe/fkPbyN/2CyiFfsbT+ONit0YshhtMkpAnF84fpa1CUmB0bxE9GXGgixAY+iz4JsXS3C+oEu6QgTCE/2x/MFMBEb6jMiU6+bDkb+egxGQ3QvNZT1M0Gug06iUJM9ZHYuZmxOh0VJa49WRVvlDT+SDLAdU6+WDqgMwCCYldTreLwL3Z16PtKBYnrHg4H51ldtxguAqPeHEdsgfNqNgwRd1h/FxzSFQsKJU7glIC4zBo9mbEeEbyknClZAEAWgo7MS+Z0tgGpLEYcjdkLMmFtOvi4fWSzMCc64TBwK/tVshIJMDQ78F37xUwrIXZMJK5clXP5aDkNirz7BRyAGVbgaY+Npr5V9hwEyaCipmOZjgE8y0DjKC4plCK7c8utXQUl6GEwT37NdLWhJosg9ZDXirfDd2NXyrpD/Sz6eGJuPeSdci0ieE7wZ+YEzIZIs0qI6/U4mivY2Ky8YvxBtLfpqB6IxgZRfHF04PmWCj/JpK7AHVWzjcguNvVcBilNJrSAhp1pZkZC2fyIjq1YxBRg4YCRCYa/J0eznTVOkw9iplz8O8g3B3+lrMCJ8kybdzDZBR7v3RexwnCKOH9Zg+SfGhA+gy9eHtyj040HhWiT0gF8SciEzcnbEetACw6o88/fGSfSaThJ5mA/ZsK0R3g63ao1VEyrxILLt/EiMIJEjDD46AMxCQ9Tn62w3Y83QROmouBCYmTA9n7i6NTnVVokj2awRZFwu6qvBM0afoMNiCm5kQkg/uTF+HeZHZ0Kq51oEz+taV7skJgiv1hpPbIrsUSCOBJv3r5TtxrLVIyWAgBcYFUbksBTJY7w815ThzknBJawz9kNIei/Y34dR7lbCaJXeNzkeLhXemInl2xFXv3pzc/fz2boQAfcxp/J36sBoFO88rwbI+QV5Ycl8GYnNChmXFYvcVBdQNtOLZoo9R3desWA78tN7YkrwMK6JnQq/RXZVlwo2g96hX4QTBo7pbEvehg8hCy1Anq/5Y2nNe8qOrVLAKAtbGzcZNScsR6OUnLQKcJFySJBCUg90m7Hu2CC3lvUqZW1JWJP+vf5ieWxE8bH6NxuvK1oOmkm7s2VYE86CtDoJKhaxrojHzxiRovSTXwtW6F+jedQPNTAipYaCdbR5obaBy8ZuTl+C6hEXQUKSSTRHsau4/GtjwZzgWAU4QHIvnuLkb2ylAQPNgB14o+RzFXTU24iCVg94QPw83Ji6GH6vjzoVPLtWxLL0MKtSd7cChV8pg6LPVaQAwZX0cpl+fAI2OB3CNm0kxDhoqk4OhXhMO/a1MCkxkgkWSYuLyBzIRFOUDUSVKbsIrOGQJZQo+rO9vwYsl21HSU8+IAB1atQbr4ubghsQlTAhJ1jng5OAKwB3np3CCMM47cLjNtxdSqh9oxZ/PvYvmISkKmiY+LQ5Us2Fd/Dx4q3USSWDSzHJl+eE+2b2uIwEZykE//m4l8r86z0pC0+Htr8M1j+UgMilgWKZe90KJv40jELCPESg72IzDr1WweguSVgGw6J50ZCyKuuKURjlbQRI9ElnRpScLPkBZ73klm8ksWrAqZibuTlsPb42XJA7GLYqO6M5xcQ9OEMZFNzmnkfbuhvKe89hW+DGahzqUh+nUWmxNXo41cXNA/+Y7h4v7wV48qatpkOWhd9ZeCBabmBmCVY9kwctXq1R8dE5P8rt6CgIkUjTYY8KX/3cOXecHFPn0pFnhWHhnOvT+WkkC+QoyCy7Mf6BpsA0vlX6Bsx2VUn0FdoiYG5GFOzPWSSqJtpBmvknwlNEGcILgOX19yTe1Jwml3fXYVvQhWod6oFLRrkLFgpGuT1iAjQkLoVPruOLiJVCkRZssCVUn2nDktXJYTQIrlkXYzrghEdM2xiviSXxx9fAJN4LXJ5cWVRUld1bFsTZlLlIJ5xU/y0Jkik3q+AqsfPbzvtPYh2eLPsG5zkrFQmgWrJgfmYV7MjYgWB8gBTKLVye2NIJX5Ze6CAKcILhIR4xlM+TFgnyQ37YV4/niz9BnHlKaRNkMP0pbiTUxc5RKbdzMeHGP0eJNeehH/l6OsiMt0GikIrhUQW/VL3IQkeR/xabfsRwL/Nmuh4AyPwURNafase+5YlvwsBQXm7s2BjNvTIRaq76speqiVEZRRLuxF38r+xynWkvY3JYKk4lID47DL7JvsqU8SyYJTm5db2w4u0WcIDgb4XF0f1oYrKIVx1oK8Peyneg2D7AwJVqEfDV6bKKYhLg50Kg13Nz4vX6Vg8faqvuw+8kCDHWbleCxpNmRWHxPOnTePGBxHE0Hl2mqPLYGe4zY81QRKztO5gMS64pIDWCaBwHh3ldGQIkA2P60XyLVmSxf08LS8NNJGxHqHcgtBy4zCsamIZwgjA3uLvdUtrOgRYfVfRFwqDkPL5ftgMFiknYPlOqk1uDWlFVYFzeXBTGREBC3JEhdyfCjeEWriIrjLTj4chlUokqperfo7nSkL5wANbMs8N2Yy00AF22QPK6ofPO3H1Yj/+vzyk5e46XGqkezEZMVTOVYlVTlf/YqiltBFNFt7scrpTtworVYIbJWCMgIjMPDOZswwTtEyYLglgMXHRyj0CxOEEYB5PHyCPsFxCRacLD5LN6vPIAuUy8jBMySoPPGrSkrsTJ6JltAyDfJScKFHqZ4BOOAhRGE2jPtNvYA+IXrseqRbITF+3FthPEyIVygncx6IAA1p9ux/9kiCFaJrdNHO/uaGMy4PgE678vX/rB3I/abBvFm5W4caDpj0+5g+UnICI7DTyZtQKxvJCcHLtD3rtAEThBcoRdcqA3yx57U1EiL/ZumM8zdMGQ1Km4FClwkknBN7GyWDslIAt8VK5YEwrCpuAe7nyqEeYhWdOnIWBqFObekwEt/+QXdhYYEb8pYIGArI07zsL/diAPPl6C5vEcqAmbTPFjxUCYCIsm18M8FkZRURlvQbI+5H29X7sah5nxWsI2uJbdCelAsfpJxLRL8o5RncMvBWHS8az2TEwTX6g+XaI09SaA68Eda8vFO5V70mPqVyGm9Ro8fpa3Ciujp0KgoBZKbzeXOIysCRZuf3l6Ls5/V2SSXAa2PFgvuSEXyzAioddzV4BKD3UUbIWsbWAxWnP2iHvlf1jNLguwKXHZ/JpJmh7OgxB/6kNtnK3Qb+/FO1V4cbM5j5F9lU1WN95+AezM2IC0ojhdfctHxMFbN4gRhrJB38ecykmCr6ka7mL2N3+KNij0YspAlQXJb+mj1uCdjPeZF5jCdBPnw5J3HRW6aQQv2PF2MpqJuJb4jIFKPVQ9nIzSeal2QrdjFBwJv3qgjoIwhQWRKiQdeKIWJ5JQl1XNkLo3CvNtTWTzL5eSUpQBHEd2mfrxZuQsHm/KIyTNyQD9PCoxWyAEn+aPe1S7/QE4QXL6Lxq6BsgQrLSQm0YzDzefwZsVu9NtSIOn3vhpvbE1ZgRUxM+DFxZQUNwP9g3CjGg37ni3BULeR0Sqr1Yq0BVGYf0cq9D7kargyOdyxGwX8yaONgByY2NMyhAMvlqC1oldJXwyN88Oqn+fAL1R/2awFyQpBhdl68XrFVzjWUqSkR9I7pQXF4o601UgPjLss0RhtDPjzXAMBThBcox9cthUXxSQIVhbY9EbFbgxa6IMnWRn0Wh1uSlrKAhe9tXpFptXjLQksq0FA3lfn8d1HNYqxQOOlwaybEjFpWTTUGgpAV3NLgsvOgNFtmLzjNxusOP5ONcoPNUuBhJRkpAUW3p2O1HmRCmG41BxTMpJEkZV2f7XsS5xosWUr2IhrRlA8K+2e4D+BuRU8ea6Obg+Pr6dxgjC++mtMWqsEOgkizLBgX8N3eL18F4yCSQlcJJGV6xMW4tr4Bcz1wAs8SV3FrC+DFux7thjn86nWheRT8A/3xtL7JyEqNZDXahiTUe16D1VSZQURlcdacPT1CpiNVBAMIA6ZtigK829LhcZLSjG+1GFPDloGu/BK2Q6cai+RXICsbIiIrOAE3JW+Fon+E7nlwPWGgUu1iBMEl+oO126MXNTFIlpxvKUAr5V/jR6TpAdPzlGdRoeV0dNxY+ISBOj8JB+7BwcvXohHANPNp6yGvlYDMw2TNHPizHAsuTcDOh8NL4bl2kPf6a2Txwp9xNtr+7H/uWL0NNvUTEVgQkYQq+tBRcAuVTBJud5Wyp3cCi+WbsfZ9nIWcyCT1alhKbgzfR2ifMKgIZLB5ZOd3rfj+QGcIIzn3hvltivuBipzrFLhWOs5PFf0OQyCSYqeYloJItbEzsaW5GUI0PpKPnYPr/7GykILQNH+Rpx4p4op4LFDDcy4MRGT18RKAWeUwsYPj0WAsl/MRiuLO6g51QFWM0kE9AE6LP3pJMTlhijY2LsEvp/K2GTowAtFn+JcVzWzHNDUpEDjScFxeDh7EyK9Qz2evHvsILvKF+cE4SoB46dLZnM5gPFsRzleKf8SjYMdzJdJv6O/F0Tl4NaUaxBqVwXOo60JgghDv5kV2qk908EcDUSpqFYDlemNnxwqWWJsIjh8nHkWAjRvKDU2/+sGnPm0FlaL5Fog4jh1Qzwmr4+DVqf+BxJpnzUjqoCKnnq8Vr4Txd11rLYCHaRzMDtiEu5MW4twn2Aun+xZQ2tEb8sJwojg8+yL5cWptLsWT+R/gA5TD7Mi0MePlrfp4Wl4MPMGBOr8mDlT3ul4GmqyX5gYQX+7AV/+MR89TUNKWd7QeD+s/nk2fEO8Fc0ET8PIU9/X3g3VXN6LvU8VwNBvYbPIahURPzmEVWrU2tXxkK0H9hY9+llhVzWeKvwIHUaqxkqpjCqYRQtmhqXjoezNCNT5MLl0T52HnjrGRvLenCCMBD0PvtberEk7lJLuWrxevhPlfQ02sRXKswZmsp3LGkT6hHp2qWhblTyyvJQfasHRNythMV5QWUyZF8lElHQ+2sumr3nwsHO/V7eNi8FeE/Y/V4LG4m5lngRE+GDp/RmYkCIFsl4q04BcBybBgtPtpXirYjeah7pssugiO39OeCbuyliHEDtLHs9YcL9h5Kw34gTBWch6yH2VHRCAit7zLKWqtKdecTcQDBkh8bg/4zrE+kUws7qn1m9QUtiGrPjuk1oU7WlkfgamhK9RYfp1CZiyLhYqDaWdcWVKd59C8nigMuGHXy1H5YlWye+kArReGsy7LRlpCyawMs6Xcs+xEuOiFfuaTuO9yn3oMw/aCjVQEKyA5dHTcFvKKgTpSZTLcy147j6OnPl+nCA4E10PubdMEki+tW6gBa+XfYXCrlrp7VmCg4jUwBj8ZNJGkKwrEQRmAvVAGUE5la2vw4BDL5ehkaksShEJPgE6LLkvAzG5FI9gg0/+h4eMJU95TfuUxqK9jTj5XhWrBCrNCREp8yZg3m0p8PKTMlzkqXKBkIus0urXDSfxac0hDFgM0rUqQKfSYGn0dGxJXsrce5wceMqocvx7coLgeEw99o60eFGedcNAK94s34XTHeVKMB79PMI7CHenr8O0sAzo1BpGEjzNH3qRz7m0hxXhGeg0Kh+A8MQArHo0C34heh6w6MYzSbYetFb2Y98zRRjsMkp6SIKIiKQALPnJJIRE+140BuxTGQcsQ/i09hB21B2HRSAZZimDSK/W4dr4+SzVWEvKpowz8OwYNx5KTn01ThCcCq9n3VxewIgMtAx2sqpxcr15KfMBCPUKYDubhVFTQFUhmR3Bw3bJisXFIqDyeBuOvlkBKspDB8VtJM4Iw+K7M9ju8XJa+541wtzjbSVyAPS2DmHPU0VMI0POavEJ8pKsSNnBCjmwD0qkWTRoMbB4g/1NZ2Choks2QS4/nQ82Jy7GipiZ8NboJVrACYJ7DJoxegtOEMYIeHd9rEISRIHJvH5U/Q32Np4G2RYYQwCg13phY/wCrImdgwCdrwKFJxEFJR7BIDAZ5qJ9jVLqB+0DRRVmb01C9soYaLQ89dGd5orc76YBK46+VYHywy0slZG+5Dq9GjNuSsKkJVHQUtzB9zb+FJBYP9CKNyq+xrnOKmU+EWkI8QrA1pTljHizmihyCXZ3Ao+/y6gjwAnCqEPu/g+095MOWY3YUXcM2+uOgEpHy0F5lKO9fOJ0bE5eyhY3+fA8kgD0dxjwzUulrOojBSvSH58gHRbdm46YzBCoiSR4sCKlu8wYOe6ANA4o7uDbD2sgWCTWTBoImSujMfvmJHj5aFmtBRa8SuJjpJEgCijtqcMb5TtR1tOgqCCStW6iTyhuT1uNaWHpHuu6c5cx4mrvwQmCq/WIm7TH3l9qEsw40Hgab1TshcFqC6ayffBmRUzC1uQViPEN9zhzukKkBKClqhf7ny3GQAcVwZJcDUETfbD0JxmITOb1GsbztLCfC0QIavM6cOTVchj6zLa+FhGVEYil92XCP8JbIgdMmVTKcLEIVhxpycc7VXvRaeiBiiQ4Sa5bFJHoH4nbU9cgKzSJBSd6EsEez2NivLSdE4Tx0lPjsJ2KkAvzk6pwqqMEL5d8wcrPyjtis2BBbkgSq0kf7RvB1N88bZFjwZ2CiKrjbTjyWjko7Y1pVZpFRE8OwbKfTIJPsJeUHkq7Sg+L2RiHQ/8fmiy7Ftqq+rHv2SL0txmZ1DbNC78wPVb/MgfBE32UvqU+JpcCWeD2NZ7Gu5V7YbJSMOKFW2cFJ+LejPWI8YvwyFgedxgXrv4OnCC4eg+N8/bZCyrRnqiwu5IFWJX3NCprHf083i8Sm5OXYG5EtpTWZTs84WMom57NJivObq/Hme210GgIAyIDQOrCCZi9JQne/l68XsM4mw/2WSu9LUM49GoZmkt6lOBBGuoL7kxH2kJbCWdbtCJRxE5DLz6rPYQ9jd8xK4JUFE2qyLgiZjpuSlyGcO8g7n4aZ2NiPDWXE4Tx1FvjvK20+yUBly5jH54p/gRnOyqYxUAmERRctTlxCTbEz2ckweOIgiDCYrbimxdKUXWqXRFLIlPyTCrqtD4OJK+vYgSKWxJcfTooFjRBgLHfgkOvlqLm205F44J+n7suDrM2J0KjJXEsybVA/7Uau/FC8WfI76xm519IB1bh1pRlWBM3D3q1ZFXiB0fAWQhwguAsZPl9L2lmlX/YYezFmxVf43hLoS1VSwVRxWQFsTJ6BjYnLUWod6CSw+3ulgR7Swt9THZvK0RLSQ+oAA8dOm8t5t2egtS5kVLlR/5hGBczjFxHZlLO/LiGFWLSSPWTWIxJ6rxILL43g1VtVKvVLKaAxkEZBSNW7EJJTx005IeQSqMh0MsPt6Ysx5KJ05lSKSOKHl4pdVwMgnHcSE4QxnHnjcem2wdf9ZuHsPP8SWZGHbKaoZG2Skz0JSVgIu5OX4/04Hi2cMr7JHf+MF4IWhTRVt2Pvc8USSJKtsM32AsL70xD3OTQf8iRH49jwV3bfMGtQBUaReTvPI+8L+pgNclVUEVMzAzB4nvT4R+mVywHZtGKQ815+LD6ANopGNFGAsm9kOQfxeJ00oLjGDmwt665K478vcYeAU4Qxr4PPLYF9OGnDIcTrYV4u3IvOuRF0VafIMI7GHenr8XksDSWvuUpkrFy0GLdmQ4cerUcxn4p2p22kYETfLD4vgxEpfLMBlecOIolSJB2/RVHW3DszUqYBm0BhiIQHOOLpfdnIizWD8wIAJFJJZNk8pf1x0GBu3K8ARHjSSEJTIE0wT+KvbInKpC6Yl97Qps4QfCEXnbhdySSYBWtKO85j/eq9jIBGNohyYef1gcbExZgZcwMpiv//cMdLQr2O9DCrxtx6qNqWE1MRYkZWCKSA7DorjSExfsrloQLPmoX7mw3b5p9v1HH1J3twLE3KtBPqau24EP/cG9mBYrJDmEuNTISVPc1sWJLeZ0VsNqsZUQaaB4sjMrF5qRliPQJYVUaZYLg5lDy13MRBDhBcJGO8MRm2OeHs8AsQzc+rjmAfY1nJGsBxWuLgEalwZyISfhR2jUI9w5mULm7NUEOVjMbrDj7eR0KdjYwnX6bIQGRKZJef2CEt5LZ4I5kaTzNC3tdi8biLhx4oRRDvSalQqNOr8H821ORMjcS0EgWhnNdFXi19Cs0DXYoLgVWU0HlhU1JJJs8AwFaX6jUPN5gPI0Fd2krJwju0pPj9D3sg/MofavfPIhd50/hi7qj6LcYbLsmSVMuOSAKm5KWYHJoKrw1Xsobu+OHkX1saMMogAnqnPqwBmWHmyFSxT+bHkLizHAsuCMV3gFevPrjGI9/heyKQFtNHyvf3FHbr7RK561G7to45K6JhUavZqWZ9zZ+i+21R2yVGCUeIaf80jgnETEdySbbiR+441gf467jj/8BBDhB4MPDJRCwF1WioKzv2ktZJHfzYKcUvKgCrIKIYL0fVsfMZnUcKKpbNrm6o4mdvRMkwZyBThOOv1OFmlNtF/pLBRBJoF2pTyAnCWM1kO21Dqjw0oEXStBZPyCV8aY+VAM5a2Ix/boERg6q+xtZYO7J1hIWgCsNYimVcXp4OjYlLUVaYAwnBmPVofy5FzZfor2dlwPDERhDBC5yOUBESXctPqg+gMKumoukZ2lXNS08DTcmLka8fxSTmJV9vO62w7I3W/c0D+LYW5VooJoNUkYo23NmLIrCjM2J8CFLgi18w91wGMNh+YOPvqh/WoZw5O/laCruZm4fFkegUSN9SRSmboyD2h842VbMyjSfH7AjelSoSaPBNTGzsD5uHsL0gcyFxvvQVXvdc9rFLQie09fj5k2/nwr5QfV+7G88A4PVxHgALZxmwcoCt36ctgazwiexOAWbfpBbLqwMEwHobBxghZ3aq/slISW1CoJVQOaKaMy4PhHeATqGA/+4OH+425ODwW4jK9td8127koJIlh+KNyALT59uAF/Xn8SO+mMXVBGZB0lAiFcgbk5aiqXR06Elsms7eB86vw/5E34YAU4Q+AhxOQTs4xKocZQKeaSlAJ/VHkbDQJtieqWYhQCdD8twuCZmNsL1QeyDae+zdbmXG0GD2AdJBJrLenD4tXJ0NwxeME9TOtziKMy4IQE+QXpOEkaA85VeygJJBaCnaQAn3q8GpaXS+JM7JX56KKZviUeTVxs+rjmIgq4q9is5hZFUEDNDEphLITMowWY1kK/mColX2g/8POchwAmC87Dldx4hAlKgnuTHpXK3LYOdeKNiJ75rL2cKgyrb78mPmx4Ygx+nr0VKYMxFQjJyydwRNsUlLpd2rComV91S3otDfytFb6vhgrVADaQtiMSszUnw5jEJTusze8tBf7sBh18vR0NB1wXiKoqIzQnBrDsTcWzgHD6pO4Q+85AUSGpzDek1OqyPm4uNCQvhq5XEktyV2DqtI/iNnY4AJwhOh5g/YCQIXAhelHLG+0yD2FF/FLsbvkWPaUAx51JgY6DOFxsT5mPpxBkI1Qcoj3UnU619QBx9lA6+XIrBLtMFS4IITFo6EdOvj4dvMH14bL/i0swjGYbKtfbZCh11/TjxbhUaCruYVLKUmgpWnjtuqz++sXyHY63FEKmaqa3OAnVHfEAUbkpaihlhGZJkMlkdGBfmVgOHdBK/icMQ4ATBYVDyGzkTATntj/4mpbm8TqoKuQt1/a1MZZGliImSuMyk4ATckrISqYExktlWNus6s4GjeW+b0iSZtymVbt/zxehtMdjiNClqXoWk2eGYsyUFfiFeipjSaDbRXZ8lu3na6/px9I0KtJT1SOSAEnFFICzDD/1rOnFoKI9VY5Q/+nQdjcUV0dNZMbKJvmEMIm45cNeR4h7vxQmCe/SjR7yFog1gywzrNPXhzfKdLD5ByhaTXBIWQYBeo8WtKSuwInomvDX6i6rejfedmn2MBr13S3kP9m4rxlCf2ZZWR24IEfFTQzH/R2nwD+eWhJFMkIuya0Sgs64fB/9WBiIJFEfAJI9EwBpnQtXKCpSY60AuBKWfBBEh3gG4OWkZlkRPk6wG9Ee2KnDLwUi6h1/rRAQ4QXAiuPzWzkFAjk2gvwctQyx1bHvtUdT1t0DLTL1gMrZaaJETmoBrYuZgWlgaKy0t79rkRX88kwV7X3hjSTeT9e1qGITaFihHsRkxmcGYvTUZYQn+kiWF0u94BcArHpj2LgX6d2NxNxOtaq/qkywzUMEsmtES3Yrq+bXo9yXSIOWaylaD6WFpuC5hIdKD4jyuhPkVA81PdEkEOEFwyW7hjbocAsrCrQITEmoe6sL7lXuxv+ksvNQ60L6OrAl0HqkuLpiQi5uSlyHMO5BJFktmYUk+wR0Oes+26j4ceqUMHXUDUgokQ0FEUJQPFt6VjuiMYIaV7C8fzyqymtkAABbDSURBVORoNPpMiX8RBGYhqDzeimNvVcE4QJYaKX52wGxAdWwNGpc2QfCysmaRVcEkWOGj8cJWsmLFzICv2haIyK0Fo9F1/BkOQoATBAcByW8zNgjIRIFSHo1WEw42n8WX9SfQONCuWAtkJkDV8NbFzsGMiAwE6Hzl0jfjOjjsIvO3VURnwwBOvl+NxsJuyVJAJEEUERztg5k3JSM2JxhanUZ6Z3dhR04YejJ2rOLokBmlB1uQt6MeRnLjAGysdVl70BTfjI55HbD6WVlqKRVb8lJrMDU0lVkNkgKimbtBPjgpc0Jn8Vs6DQFOEJwGLb/xaCFg/5GkdMia/ibsqD+Ok63FGLIaleqQtNh7q3WYEZ6O9QnzkRYYp3wjx7s/WMKAyICAvjYjvv2oBlUnWmW5Rfa3l78WUzfEI2tFNLR6yQ/Oguv4rlYZqhfiO+hHIquD8d2ntSj9pgmiWYQVArpNfeiwdKEjpwO9s3sg6qUARQusiPQOxsb4BZgfNRnBVH3UltrIMR6t1YA/x5EIcILgSDT5vVwCAVrk+yxDyOsoZ0WfavqamWlddjnQmh3uE4JlE6dg4YQpmOAbApVSTHf8ppspMQki0N9pRN7ndag42gKLyVYGSAR03hqkzI/EtI0J8A3WQSXLT7pbpscIRiK5oCjIc6DTiG8/rEbNt+2wWAQW79Jm6kKfth9903rRn9sH0UvCluS/Z4SnMV0DshowZU9ODkbQC/xSV0CAEwRX6AXeBocgcJG53eZXaDd048v64zjYnMd0E2jNZpHnImAWrUgNjMaG+HmsQmSIV4Cy46MGjdddHwvSJHEpkxVnttehYFcDrCYiSFJcgtUiICY3BLNuSkJ4gj/UGkmkx5OtCRdZocwCzhd04eR71ehuHIAZFnSYutFl7IHJ24T++b0YyBxggbA0lhL8J2BVzEwsipoCPcW/2Ikejdcx5JAJyW8y7hHgBGHcdyF/ge8jYL/YS/5iM4p7avFV/XHkdVQwVUZ54aZ/61SU7ZCEa2JmIjc0hQU1yqp243GBt4+8NxmsKD/ajLzP65mgkuRNkFwRwdF+mHptHBJnhEPjZdvxjmNiNNyZYI+Xod+MkgPNKNrTgN7OIfRa+tBh7obBaoQl1IzeBT0wxhtghYgIn0AsmTgNS6KmIsonVEmlHY9jZrjY8evcGwFOENy7fz367ex1E8jFQG6HQy15+KruBNoMtiA+m5QzhfMRMZgVmYE1MXOQEDCBZUNIe27pGE8Lv5yhwSwJFgHn87tY8GJP06BiLSAji1avwaSlUcheFQP/MKrh4Dn5+fZEUqAAz/oBnP2iDtXftqHX1Id2UxcGrUZmWTEmGtA3vwfmUBP0Gi9MC0vFtfHzkRgQDS+1VrHO8BRSj15y3O7lOUFwuy7lL3QpBCQdJZHFIjQOtmP3+VM43Jp/kVwznUJVIsP1gVgYlYN5kblICpgIrVo7PkmCTe+APlrkV+9tGbpQVEh+I1L5FUREpgYya0JMdgg0WlYOkvnWxxMpupqRLwd10pgwDVlR810bTm+vRcP5dnRbetBjGZRKjHuJGJoygN7pPYC3iGS/KKyNm4vZkdksjfH7h7vidTXY8nPdBwFOENynL/mbXAYB+x2jUTCjpq8Ju86fxNHWIlgEi1Jlj3zLFJUe4h3EAs+WRU1HYmAUIwpy/vt40s63f+/BbhOLSSje0wiz0Sqp+dmUAH2CvJC2cALLcvALkdQX5ToB4yUlcnBwEN9++y3effdd1NXVSR95ijtRqzFt2jTcesutSElJgVarhSACvc1DOP1FDQpP1KG1pxP9wiCspHtA9MhfYC6FgZQ+hPoGsjiDxVFTEOEdLAke2axPnBTwpcddEeAEwV17lr/XJRH4fiAjORBOd5Ti3cp9qOprAmngMfO8LdCMiIS/xhsrYqZjdexsTCBfM2U8qKUaD+PluCD6IwXW1ZztwMl3KtHTbKsyaMvHs1hERCT5Y9aWJEzMCIZGpx43BZ8GBgbw17/+Fb/73e/+abf4+/vjxRdexMb/v70zj43jPM/4s/e9y/uUREoUbR4+IseOldoxajdO3dZV7aCNUUMQ0ha10cJBgFZoGjgwChRQYBQICrQwWqBVACeGGzt2AhVO8kfgtk6UqnBEWrIVUT4kShRFLpfcm3vM7swU7zsz5HKliCSkFXe57xjEGuQc3/f7Rviefc/Hn8Dl00m8872z+HjmMnIomAtvXKp2lZB4bBHoAO5vHePmSn2BjpUqlCIKGuXNl3HeCAERCDdCT65tSALVQYw0iZSSxf8ufIC3r0zgQjbKrggHyQWq1EgbhmbkuN/fNcLR6ruDhuuhkUzM1fNORfP44Cez+PhEFKWcyt+I2bGg6XB67Ry8OPpbfejeG677eSaTSRw5cgQvvfQSSChc7+ju6sFTn/8LBJRBZJUiZyPQYdNs0AIqsmNp2D6tYd/gEB7uvge3t+ziNMbKQwRCQ/7Tl0FvkoAIhE0Ck9O3F4GVb9bcqldDppTDu7EpvDn9DmZzi2baGocvGGJB1+B3etn18PjO38BQeAdbG+j3q+GM9R3QWFlCWCvpuPR+HCde+QTZWAF2ij8wm2GR68Htc+L23+zBXb+zA/6IxzTZUyCjkUpZDxsljYNcCs8++ywymcyGXlC/J4InH/grtIZ6VsSB0lNE8qEljI0P4EuDD2N3uA8urmewaiuqh/luaIJykhC4CQREINwEiHKLxiZQ7XagiotLxRSOR09zp8jZ5UWUVSqla24U1LlP1xBweXFn2x58rvtO7A3vRJs3bHbpM/0UdZz5UJnhQRaD5Fwep380g0uTce41ULkR0rnUz2H4c90Y2NeJSLeXaydU+1i2avPUNA1PPvkkjh07tqkX8d7h38X9oweghVVgXEPPA0E8NHw39neMGRkspkWFrQtSbXJTbOXk7UFABML2WEeZxU0gsCIUzOAzsgosFJI4GZti18N0NspPcZjxB/RFm4SC1+HCYLAH+7vGcG/HKHoDHXyecT+jH0I9bjLWfK0y06WCyt0Kz749h8unE0braBICVHiJIvrsNrT0+rD73g7s+nQ72ncG4XDYQYLKLK+wsgq3ckMtlUro7+9HLBbb1FvQ2bETf/jMYdz2SC/2j49htH0AISf16FgbXXIr57KpCcjJQqDGBEQg1Biw3L7xCFRbFEgEJIoZdj38z/x73FaaYhJWovdWWvs60OWLsFXhs13joOZQAaePI94rt5x623BWUv4on0ED9x+4cHKRiwVR3QSjSrU1A6ONoS/iQs/tLRja34muoRC7Iig90gjwXF3zWs21co1IIPT29iIej2/qZdt92xC+/19vYW/nDgSdPkMYSGbCphjKydubgAiE7b2+MrsbJLCmBK+uIVvOYWLxI5xY+ABTqcvIlnLcxYHLN7O9wKjjT+6HoXAf7usYwUjrAHb4u+Cym/5s08dfb1aF6sJB6YUCPvpFFBd/uQgKaNTK1CZ7dfcn0z71dmjbFUTvSAt6hsOI9PkRbPMY55GJ3oxVuFZvbUs8XCuW4VqBpNZSGvc00jO1koaFuSTGPzWMZDKxqdUeGx/D5MQknC5qD24ctRI0mxqYnCwE6oSACIQ6WQgZRn0TsDYsa28nYXAhM4efzZ9iy0KqlOOukQ5LKFDQI3Q4bQ60eEIYbx3E3W172boQdgeMDAkrpbLONqY1FhQNLA5mTi1h6r/nkLxipEVa8Rh8rmFUYLEQ7PSieziCvpEwWneFEOrwslhgq4LVvcioWXX9wwwKNS4zxBddRJ+aoiEZzWH2fBy/Oj2Dj89dxjeP/jnyxeymXqI77rgDExMTXBNBhMGm0MnJTUJABEKTLLRM88YJGIF9Zos+3hd15MtFdjm8GzuL0/HzmMvHUVQVfphlVWAfvg1ckpdSJcdMsUBNfiLuIAfE8aZbEauw1RkC/HyzgRONn8o159MKzp9YxPTkIpKzOZTyZd7oK90Pxr5ug8NlgzfsRrjTi7aBIFr7/Qi0exBo8cDtdXC2BMU3cKOoCqsEU9XA1gqKe1BLGpRCmTsrphfzmJ9OYObCIuajCcSTaRRLJWiaitd+9k3Ekpc2tciHDh3C0aNH4XA4NnWdnCwEmoWACIRmWWmZ500hUB3Yt9LzADqWCmmcSZzHycUPcS51CUvFDAcqkmXB6KRIQY06VF3lev47Ap0Yjezi9sDU+6HH184plKvefmOT3qpvt2vmSkGK5sAoRoGCGS9OxjF/LolcvAjqZcDFo4yp8kEFCSmAEarGgsDptsPlcyDY7oU36ILDbYfb74TLa1QltKwE5bwGJVdGWVGRyxSxtJBBMptBKpdFVslDtVOzLaqOaHTlJFHx3idv4/iZ70PT1Q2tczgcxuuvv45HH310y/huaKBykhDYQgIiELYQvjy68QlU+8ppv8qV87iSW8IHifP4ZewcLmTnUFIpqHFtZiCJBYpfoNiEiCeAXl8Ht58eaRnArkA3gi4fnHYH/1gm+ZUIAKuo0S2qRXBVTIAOKPkyux/mzqYwN5XE0qUs8qmSkb1RaVmwjC6VfgXjlKuqNFJAqKIqKJSLyKkF7qJY0BWo3D/RygixZJnpqnDp0P3LOH76NZz51UlQ0OL1Dr/fj+eee44rLoZCocZ/CWUGQqBGBEQg1Ais3Lb5CKzGKRgbGLkYyN1wKv4xjkffx1RyBoli1iyqZBReqijBwymTilbiUs79/jaMtu7GWMsA9oT72BVB3SatVtQab5aVvSZXedfa4lAtFqznJeaWcflUHHPnUuyCIMtCuayZ4sZ0WJhemtUQBJ17H1BJ62V1mYM+SRiUTUuAVfLasBMYvDgSwaNDD+noHAhg3wN7cM+nhhGdnsHhvz6M48eP/1qR4PV6cfDgQbz44otoa2trvpdUZiwENkFABMImYMmpQmAjBCoDGq36APS7hXyCAxunkpdwNnURV5YXkSsXedejoMWVqH4YmybVYSDrgc/pQbsngr5AGwYCPegPdKLdG0GbO8QBj9xu2HRFVCQjrooPcxA3s3fE2lRQg4ppKCC/AscrpKIFjhvIxYpIRPNYmEsgGV+Gki+hoJRQKChsLSBRpOhlni+JABJWdDPdqUN36VB9KtRgCVpIhb/Ng77+VgwP7sDevj7s7OpCiztkzFUHpi9O49VXX8Vbb72FyclJqGS5AeDxePDggw/iwIEDePrpp0EuBjmEgBC4PgERCPKGCIEaEqiuqUDfoykGoaAquJCZx//FznBw40w2BhUaXJQJwV0jjSyI6oOLEtlscNpsiLgCaPe1YGegC3tCfRgK9iLsCSJCWRKUUmn9VyUQeCOu+iZ/PfFw1Si4ZtJqbASP1AzatDpDltQyYvkEruQXcXF5HtOZKKK5BBKpDJSsCr0IoGiDs+CAvbz26boLKHtUlNwlqG6VO0sOtnbjvq4RzgRp97ZwcSqbvhrbwQLFLMBQLpeRSqWQzWbXdHOMRCKgHzmEgBDYGAERCBvjJGcJgRsiYGUl0OeqB93IbsiXCpjOznOA44fJy5hejiJXykPRyO9u9HiwNj/LrUDXkVggUzzVXaCvz7RpUpAjxS60ukPo8rWi29eKHh9tqF62RHgdHm48RHEPPofbvK9xf5YUZlEnDRoHVJKYMH6MLpAlTQVt/iW9jKJahqIpSBTTHJC5VEhisZBGvJhFQS0grqSRLRW5dTaZBCgFlIQL7ev0S6vVtFU/guZGRaUCDrKYhDEU6sdoZBAjoZ3o9rVz1gM7Kqr6XlSKgxtaJLlYCAiBNQREIMgLIQS2iMCafgimiT6vFjkbIlZIYXY5ik/Ss7i0vIC5XBx5VWHXg9Nu5/oKhn/e6q1kCI/Kb/PGtkwbs1GfgTZfus5ut3MTqrDbD4eNUvxo86dzHHwuXUPCg2IiVK2MMgsElc+hMRTKCv/N+L2GkkbuAcPOYAQSGgWm6ZksDtbUYTasDXQtWVJoPEGnF32BTlDa53BkB1tEOrwRtoTYaZ5V61PrGIsteh3ksUKg7giIQKi7JZEBNROBSheE1ROBPPG0TdMnbb7ko48XUvgoNYtPMlcwuxzDlZwRv0DBfYZVYW0556t21bXfC1Y285XWjWYVhkrrxuqGf9UWbVVIWL3r1Reu/I0rHppzcjtcbOno83dgT6gXI5EBDIZ7WQw4bYZlw6q/ID0Rmulfgsy1HgmIQKjHVZExNT2ByowIY8OksAQy/OssGDJKDvP5OOZzcSwUEmxhSCtZZMp5/luRvvnzD0U2GDUMVrMejA3fqOW4elR/M79WuePKyAgr3sAqjuSyG1YICqz0Oz3c34CsFJ2+Vi4Q1eqJoMsbYetAyB1gKwZlbHBQYp1WlWz6F1EANDUBEQhNvfwy+UYhcHW9hYpEQV1nQUAplRT8SD8kEjgmoJhGqpRFWskhzZ95pErLUNQSuwU4voAkBP8/FXHSGAm5GjgQ0YxLoKJElGnBWRUO2vy93G+CmlEF3T60usJo94bQ5gkj5ApwOqaHrAVONzx2N1sGKvIcpGNio7x4Ms6mJiACoamXXybfqASsokHVPSIqqzDSZk8CwPgkM78GarBE/n8qQEQigWINyMpQ1ssoqyoUrj+gw2VzshigTypF7LTZObiRghyddueKeLBiG4wYBuOn0jVQ6XmwXCgSQ9Cob52Mu9kIiEBothWX+TYFgV8nHGoxecuWYcQiVkcO1OKJck8hIARuBQERCLeCsjxDCNQpgWvVWrj2UGXjr9MllGEJgZoREIFQM7RyYyEgBISAEBACjUtABELjrp2MXAgIASEgBIRAzQiIQKgZWrmxEBACQkAICIHGJSACoXHXTkYuBITANQnoWI5N4/T7HyJecmH3+N3YE8ji5MmzSOsR3LP/PnSHqMGVHEJACFyPgAgEeT+EgBDYRgR0pGdO4t+O/hjewWHYL/wcP3g3jvGhEHoHduJH/3oU+w7/B4488xl4t9GsZSpCoBYERCDUgqrcUwgIgS0hoC3P44f//i3EbjuEL39hHJkTL+P3/vTr8B84iiOjP8eBr34Ljxz+Ib79whfg35IRykOFQOMQEIHQOGslIxUCQmAdAkoqineP/wK9n/197GnVMPHKERz629fwxz+YwFe7p/Dm21P4zGNPYKRb7AfyMgmB9QiIQFiPkPxdCAiBxiSgRPHdv/8TfP2NNhw79V3sczXmNGTUQmCrCIhA2Cry8lwhIARuOgGtXMTi7EXkvV3o0Ofwd3/22/hJ2/OY/M6zcELD0rkJFHr3oT9MvSHkEAJC4HoERCDI+yEEhMC2IbB0/qd4/pm/Qebhr+Ebnwf+8vFn0PXCf+J7X3kIavoMvvHU83jgn1/B40OBbTNnmYgQqBUBEQi1Iiv3FQJC4JYTuPzet3Hwi/+Au7/yNdy19FP8y5un0P9Hz+OfvnwX3nnjO5hofwIvHLwXEVd1s+tbPlR5oBCoewIiEOp+iWSAQkAIbJRAMX0FP375H3Hs1DJGH3kKf3CnijdffgMXCgHsf+yL+NKj9yEg4mCjOOW8JicgAqHJXwCZvhAQAkJACAiBaxEQgSDvhRAQAkJACAgBIXAVAREI8lIIASEgBISAEBACIhDkHRACQkAICAEhIATWJyAWhPUZyRlCQAgIASEgBJqOgAiEpltymbAQEAJCQAgIgfUJiEBYn5GcIQSEgBAQAkKg6QiIQGi6JZcJCwEhIASEgBBYn4AIhPUZyRlCQAgIASEgBJqOgAiEpltymbAQEAJCQAgIgfUJiEBYn5GcIQSEgBAQAkKg6QiIQGi6JZcJCwEhIASEgBBYn8D/A7n7cuJmgiE5AAAAAElFTkSuQmCC;" vertex="1" parent="1">
                    <mxGeometry x="130" y="196.72" width="236.36" height="150" as="geometry"/>
                </mxCell>
                <mxCell id="6" value="" style="shape=image;imageAspect=0;aspect=fixed;verticalLabelPosition=bottom;verticalAlign=top;strokeColor=#6666FF;strokeWidth=1;fillColor=none;image=data:image/png,iVBORw0KGgoAAAANSUhEUgAAAggAAAGiCAYAAACCkz52AAAAAXNSR0IArs4c6QAAIABJREFUeF7svQWcHNl1NX6quadpQBpGMUsrZmZe0e5qtWyOnfyDTuwvX9CJHTuJk/gfx15e7YqZmZmlXTEMakbScHdPc1V9v/uqq6WNQdrRQMOrxHF2trvqvfNuvT7vwrmCLMsy+MUR4AhwBDgCHAGOAEfgCQQEThC4PXAEOAIcAY4AR4Aj8L8R4ASB2wRHgCPAEeAIcAQ4Ar+BACcI3Cg4AhwBjgBHgCPAEeAEgdsAR4AjwBHgCHAEOAJPR4B7EJ6OEf8ER4AjwBHgCHAEEg4BThASbsn5hDkCHAGOAEeAI/B0BDhBeDpG/BMcAY4AR4AjwBFIOAQ4QUi4JecT5ghwBDgCHAGOwNMR4ATh6RjxT3AEOAIcAY4ARyDhEOAEIeGWnE+YI8AR4AhwBDgCT0eAE4SnY8Q/wRHgCHAEOAIcgYRDgBOEhFtyPmGOAEeAI8AR4Ag8HQFOEJ6OEf8ER4AjwBHgCHAEEg4BThASbsn5hDkCHAGOAEeAI/B0BDhBeDpG/BMcAY4AR4AjwBFIOAQ4QUi4JecT5ghwBDgCHAGOwNMR4ATh6RjxT3AEOAIcAY4ARyDhEOAEIeGWnE+YI8AR4AhwBDgCT0eAE4SnY8Q/wRHgCHAEOAIcgYRDgBOEhFtyPmGOAEeAI8AR4Ag8HQFOEJ6OUdR/QgYgSTLq3QE4PSFoBID+Rv8nxWaA3ayDhv7Ir5hGQA6FIFbXQg4EHs9Dq4U2xQFNUhIg8DWO6QXmg+cIsH1bRuhhNWSfT3mnZRmg9zw1BRpL0u/EyBcQUeP0IxiSgfBWoBEEZCQbYTJom4UtJwjNgi16viTLMiQZIOPYeb4KO85VQavRsAGGRBnTB2Vg+sAs2Mw6ZmsC/xGJnsV7xpHQGtMlOV1o/GglArfusnWUZQkaqxW22VNhGjEE0GgghNf+GW/NP8YR4AhECQLsPZdlyO4mNPzyQwTulUDQ6yGLIrRpqbAtmQdjn56Rg4CyB8jsMEj//XlJIz49VIo6VwBajQBZAtKTTfj69CIUplvYgVH4igdFThCixDiaOwzVQERRwrk79fj0YCl8AYl5DIIhCX0KHHhlXD6yUkycIDQX5Hb+nkoQZL8f7o074Dl2ShkRET6dDknjRsE6Ywpg1Ct/5iSwnVeMP54j8NURkCQJgigiVF6Jhg8+g1jfoBwERBGGzkWwLZoDXX4uIwjqO67u/z6/iMNXq7HldCXb95kXWQYGdU3FolG5SLUamrX/c4Lw1dcxqr4R+fGQZZQ88uDDvcWoqPVCp9WASEOqzYC3JhehR56dGQ3/8Yiq5XumwbA1liTIIRHeE6fh3rgdEBWvAp0fTP37wLZ4LjTJDsWzyAnCM+HKP8QRiBoEyBNA77g/AP/FK3Cu3woEgso7LkkwDRoA64szoU12fIkgEKmgnaDGGcCmU/dx5lYdKKxAe4ZBp8GiUXkY1j0VZoOW7f1fdWvgBCFqLKR5A3lMEIBalx/rTtzH6Ru10Os0jEEKkPHS2DyM6Z0OvVbguQjNg7ndv0WbBJGEwM07cH6yGpK7ibkQZFmEvjAf9sXzoSvM4x6Edl8pPgCOwFdHIBJeaPKgaesueE6dA8WO2d91WlgmjYVl6gQIBsNvEAR62u0qN1YcKkN5tQdarQBRAjraDfjG9E4oSLewkENzvIucIHz1tYy6bzA3E+UhBEUcuPyIMUmB/kcAAiERY/ukY8noXJgNlIcgQ8Pj1FG3hk8bECMIlIdQW4eGX32CYGUVyzdg8cnUFNgXz4Ohf+/Ibbin6GmI8n/PEYgOBNRDHnu/6+rR8O6nCJZXKOEFCjtYkmCbPwvmEYN/I7zAviMDJ2/WYMXBMgRYeEGAPyiib2Ey3plaBIdFzzyLzdkTOEGIDht57lFIlKwoybhCiSoHS9HQFIRWQ4mKEjpl2BiT7OgwNisO9dyD4zd4bgQinqImD5yfrYXvyjXKOAIkEYLZBNuc6TCPHsaynZtzUnjuAfIbcAQ4As1GgN5v+hEPFJei4VcfMw8h/aBLkgh9ekdYF8+DsWc35jV8MtGQ9nw6GFLuwZ4LD5QEdQEIihKmvpCB+cNzYNJTeIEThGYvTjx8UfEiyCiv8eGzQyW4XelmeQiyJMNq1uHtaUXokWNnribV3RQP806UOUTyEIJBePYchHvvYSXfgGKQggDL+JGwTJ8MIcn8pVNGouDD58kRiFUE1PAC/Yr7zl5E44crlIqksAfB0LUz7C/NhzYzXfEChBMJ1EMDHQY/2leMS/caYdBr2EFRpxPw6vgCjOqZxjwKzfEesIOG/KR/I1YR5uNmIQZKWHM2BbH1bCUOXamOJKXQv5s9NBOT+mfAYlSTVXjNfKyZDQsziCL8Fz5H45qNLKGJVpHCDKYBfWCdNxPa9A6cIMTawvLxJjQC6uGOfsSbdu2Ha8M2lmvA3m2NAPOgASwJWSCtk3CoQPnZJq8xUFbdhF/vKsbDRj/zGouijOw0M5ZNKEC3HJvyHR5iSGgbC9fDyiw55fjVGqw9XsHiUJSbIkoyeuY58PrEAnSgMEMYquayysRGuv1mr3oRgmUVcH68iompCFotIwj6vBxYF82BvkunMDHkBLD9Voo/mSPw7AhEzugy4PxsDTxHT0PQ65QfdqMBSZPHwjptUsSroN6ZPAW0x5+9XY9VR8pYeSN5FyisPLRbKuaPyEW6w8A9CM++FPH9STVZ8eZ9Fz47VIrKOi+LSZEh2ZP0+OaMTuiuMsqvWu8S39DFxOwigkn1DWj8eDX8129CYzAwgqCx22FfNAfGgf3YRqKeNGJiYnyQHIEERoDCwHRqk5o8aHxvOatUUgXPBLsNtvkzYRryAitnVBPM1b2+oSmADSeVyjWWsyDLLIQ8d1gOxvXtiKRmljeqy8FDDHFkmKrRVDv9WHO0HJfu1UOgRDaB6ujByh0nD8hQyh+bmbQSR3DF5FQozCB5vHBv2g7P4ZPQGA0sDwF6HWwzp8A8bjQTTOJ6CDG5vHzQCYiAWsIcLCuH69N1CJJnMKxloMvOhH3JPOg7FymkP0z+1b2+vMaLd/fcRVWtl5U3knpuisWA1yYWom8Bad/QRt+8BEX2PJ6DED8WqRoNlbrsPFeFXRcesJADlTaSPvfYPh3w5uSwoTUzJhU/aMXgTMKJqHIgCO+xk3Cu2cw8CEyeVRJhHjkc1jnToLFbv7SZxOBM+ZA5AgmDABNICoXgO3MB7q272QFACAsgGXt2h/2VBdCkPBZIUvd58hZcuFePd3fdCx/6lPAC5R28Oj4fuWmUsyA/V8iRE4Q4M0PVeM7crsPao+WobwpGZDeLMpPwvdndeF+GGF5z9bThv3oDjR+sYBsLcy0GQzD26gbbS/Ohy0hXdFafI3s5hiHiQ+cIxAwCEYGkQABNW3fDc/wMe6fV9zdp1DAmsQydkpOgXhSVII2bbWceYOvp+zBSMyZyFMt0EOyI+cOzYUtqvv4BDzHEjAl9tYEq/T5klFV7WB7CvQduaAQNq3CgPATKbO2Tb2clkLzD41fDNho+reYhhMrus3Ko0KNqQKMFQiFoMzrA8dpL0Hcq+FJDl2gYNx8DR4Aj8JsIRPKKnC6WeOy/fU8JGZKHV6eFbfY0mCePY3u6IpUcbtAky2j0hPDhvmJcLm5gssr0NbNRi/kjcjCud0cWcmhu9QInCHFqrcyDAMDjC2H1sXKculFLTiYWZtAKGsYu5w3LZtrcnCDEnhGw9SX3Y109nGs2wffFDbaRUPkjtXy2v/QiDAP6sOoG7kGIvfXlI04cBJ5UGAhVUIOm5RAf1UVIgMZsgn3ZYhj7hRVSI/oHyiHw7gM3PthTDMo5o+RFUZKQ2yEJS8bkoVeunQH5vHs8DzHEmT2qBIFYwr7LD5nCltcvMtE9YpP5HS34ZlhVkbFUXs0QcxbAEhXdTfAcOIqm/UcokYiRQrosMybCMnYUk2d9UlQl5ibJB8wRSAAEFAl1Af5LV+BcuR6Sx6foHwAsVOh46xXoc7LZP5OCoqqZEBRlHP6iGptP3keAGrexPHQZg7qkYNHIXHSwt4xqLicIcWiEFIei63qFE58cKEVNg1/5sZBlGA0afHtmZ/TOdyhlM5wgxJQFRFTXgiH4r3yBxhUbIAcCyuYRCsE85AVYZk+HJi1FcUnyvhsxtb58sImFgOpF8Ow9DNfWXSy8oB7a9N27IvntVyICSU8i4/WH8PH+Uly41xARTKIGfTMHZ2L6wEwWQm6JSjVOEOLQHhV+IKPOHcAn+0txrawxcsIkg1w0Og/TXshsERdUHMIX9VNSBJNkBEvL0PjRSojVtazjG0Ii9Pm5LOtZV8A7O0b9QvIBJjQCKjkggu/esA2eY6cVPIjY63UwU4Li3BmQdY/Vb0nThq6KWi9+veseHtR7WWM+UZZYeSOVsg/uksrcxS1x+OMEIQ5NNGJ4ANYeK8PBK9WsPpZaPwdFYHTvDnhtQgH0OtbzkYcZYswGqAc8q1yoqUXj8jXw37wDjV6vnD6SzHC88TKMfXpGSCEPI8XYAvPhJgQCaodWsa4erhXr4b91l4ULSehMY0mCdcFMmAYOUBKOw55AIgjEEahKjZryqeqJJLZUlGnBsgn5yO9gicjsPy+QnCA8L4JR+n31R+T0rXqsPVaOxqZAWJFbRmGGBW9MKkR2qpnFu543kSVKIYjbYamSy5SH4N6wHZ5TZxWCQLkIggD7gtkwjxnOOjvyEEPcmgGfWIwjoBKE4K07cK7bilDVQyVBETL0mRmwv74EupxsxaNArd3DoWN/UMKGExU4cOVRGAGB7eHDu6di8ehcWE1hmeYWCB9zghDjRva7hk9Mk+yjqs6LD/eWoPiR0j6ULnuSDi+OzMGwrmlMlpMThBgzgohgUgCe/Ufg3rEvopwoBQKwTBwL6/wZSsMXnoMQY4vLh5soCKgEgUTP3Dv2Q3K5Fc9gSISpb0843nz5t+Yf1Ln9eHf3Pdy+r+7pMiwmHWYPzcKEPulsP2+pPZ0ThDi1xifZ5orDpThxvTYc3wL0Wg1G9eyAhSNzYCKBDV7NEFtWoFYtSBJ85y7BuXoTZJ+PuSEpnmnq35uFGVj3Ny6WFFtry0ebEAhEShyDQaae6Dl6kuUQkReQRM8sE0fDtmR+5P1Vq9PoiPd5SSOWHyxFvZu6uSoeB1JNfGlcHrpl2Vg0oqXCipwgxKk5qoqKNL39lx9i/fEKhJhXQalm6JJtZWGGjGQTJwgxaAPqBhO8fQ+NqzZArHoE6vXKOjtmZyD5G29A27ED08BoqdNEDMLEh8wRiEoEIgJJDY2M4Pu/uK54AYkghEJwvDQf5gljInuzWt5IhH/HuSpsP1uFEHVvDJdEvtA5mYng2czPr574JGCcIESl+bTMoNSM1ztVLvzPzntweoKMcVIZZIpNj9fGF6JvkYMZparS1TJP5ndpbQSYe1KWIT6shnPTdgQ+v660fpZlJpjkeG0J9N27QNDpIFCTeH5xBDgCUYGA+mNPhCBYWg7Xyo0Ilt+HoKXDG1geUcq33oCxt5JorKon0uC9AREf7yth5Y1KSgIlLGswa0gW5gzNiigncg9CVCx1dA9CZanUEvT9PSW4ed8ZFtQAjDotM6ipL2RE6mVbyqiiG5X4GJ2qh0BxS8+eg/AcOQHKZGZrqNXCMmUs6+xIZIEThPhYcz6L+EAgQhAEAf4Ll+FavxVivZO9p/TvdB06IPkbr0GbrZSis7yEcHljyaMmfHKgBBU13kjSOYWJ35hUwMobn5Rkbgm0uAehJVCM0ns8qbpFioqU9SqKSpkMRa6G90jD4lF5sCW1XNZrlEIRd8NSCAIgiyH4Tp5j7Z8ln5+RA0giTL16wPbyi9CkJPNExbhbfT6hWEYgUoYuivDuPwr3zn0sd4i9uyRm16en0sHRZo3kIBBBoO8dvVaDjSfvo8kXihCE7DQzvjm9M6tKUwhFy6HDCULLYRmVd1LqZmV8UdrI6mYbm4IsLk3G1inDwhJbOmWQIbaMsEZUghCHg1KSlmQI1NXt2k3Wl4EEk9QwgzY1BY6vLYMhPzfipoxDGPiUOAIxh8CT3r+mbbvhOXlO0T+gX3a9Hpap45BEculm05d+7X0BEWuOVeDE9RqIYY8CVaEN6ZqKV8blI8nY8gnnnCDEnHl9tQETOSBCSRmv/7PrLu7cd7MuX7IE2C16LBiZwyoa1IuHGb4avu326XCpIz0/dL8KzrWbELx1TyEItNGIIktUNA7ow1s/t9si8QdzBH4TAbW8MVT5AO71W+C/cUd5byFDY7Ui+Y2XoetcxJqwKboISneGB1Syvr+EdegFSEpZZk33Fo7KZd5gPStvbNl8I04Q4tyC1WqGoChh1dFy7Lv4MNw7XGYaCBP7pWPu8ByY9GRYpKoY54DE0fQiJ5FGF9ybd8B75kKkQZPkD8C+aA6SpoxX3I4tvHHEEYx8KhyBNkVAFbEjz59r3RaEHjxSCAJVIOVlw/Gtt6BNdighBKXojF0X7zVg1ZFS1LmDRA8YoaCwwtendUJ2mom9+y0hr/wkGJwgtKlptP3D6EeEvFH030euVrMGH3rqE84SXyT0KXAw/e7MZHOLNPdo+xkm7hOVlhsyEAyiad8hNO05BAQpNgmI/gAsY4azagbmUeBaF4lrKHzmUYWASuw9J07DvWkn4PEyDRPJ74d5cH/Y33qVVR9FKhjofRZl7LrwADvOViEQkpjWAYWPB3VOwdemdQI1amqNd5wThKgyndYZjJoUc6fKjf/celtp/ywICIkSMlJMWDounxEF+hnhIYbWWYPWuGtEbAWA78x5uDbthNToZN4CKRiEsUdXJH/jdQhms9K5k3sRWmMZ+D05As+MgEoOSNisafcBNO0/Gsk/kHw+WKdNgnXBLEbqn9yLqRJtzdFynL1dH/b0KoGHOUOzMXtoNjsntET3xv89EU4QnnlpY/eDqgpXnSuAj/eX4Ea5kxkTtRE36jWYPywH4/t2bDUWGrvIRf/II3rud0vgWr8FwdKKx4mKHVKR/OYr0OXlsBMKDzNE/3ryEcY/AvTOinUNrIOj9+IVaML6JbRPO15ZwLo4ht0BkfDC7SoXVh0pR2l1E7SCUg5J8spvTylEv8Jk9rnWEETjBCH+7ZEZEyUrkufg0NVH2Ha6inLY2KmS4lgje6Rh3vAcpFoNrcJCEwDidptiJA+hrgHOdVvg//xaOA8BEIwmWOdNh2noQOayZCSBJ5m021rxB3ME1Pc1VFEJ58r1CBaXKeGEcCfWZKo86t41ApSaQ3bsWg02nLwPty8EjcAat6JTlgVvTylCZiuq4XKCkAA2q5TMyyyORUIb1Ee81hVgSYoUZijKtOKVsXnonEnljjI0QstmwiYAxO02xYjLkvIQtu9F06HjrIJB0AiQNRoW07QtnAfBZOR9GdptlfiDOQIKAqrHL3D1BhpXrodU36h4/CQJ+sI82JcthjYzI+xAoHJ0MM2DrWcqcfDzR5BlJZGc3vvxfdMxf3g2zEYt27Nbg/tzgpAglkseBLrc3hB+ueMOrpe7oNcpCl3kqloyNp+1CyW1T6WagZczxIppsKxokmE9dhquzTsge30RVTZ9bi6Sv74MmtSUyKYTK/Pi4+QIxBUCamlyIADvyXNwbd4JORhUyLwkIWnEUFhmTobgsIf1D5Q9uLLei5WHy3Ct3AkdhRcgs9Dw6xMLMaBTCks6b43wAvslkJ/MdIqr1eCTeRIBNQ8hGJKw9lgF9lx8AKOeam+JjUqYNjCL6Xmb9dpWMza+Iq2EgCSxdfRfvwXXmo0Qq+vC9dOAJsnM9BAMXYoUGVaeqNhKi8BvyxF4CgJEECj/oMEJz5798Bw7E+mzIOj1sM2bAeOQF6AhgaQn3tPPSxux/EApap1+pmFDh7qc1CR8c0ZnZKWSmFLreX05QUggqyYvAjkSjl6txorDZczQyFNAGgn9Ch1YNr4AHexGnocQYzahhhnE6ho4P12HwL1i1pSLLqIOycuWwDRsUKRsinuHYmyB+XDjAgH2nhJBqHoA19ot8N+6Gw4viEz3wPHGK9B3LozkClF5OpU0Hvr8ETadvA9q3siSyyUJQ7ulYum4AlhNulbdrzlBiAvTe/okIvrfAG5XuvHhnnuoJkaqIYIAZCQb8c6UIpb4Qj8tvCTu6ZhG0yeYJ8jrhXvNZnjOX4ZAXoXwhmSdPgnWudMZQWBuQx4+iqal42NJEASYqq0sI3jzLho/Wwuxto4RBGrvbCjIheOd16DtmBZBg97fGmcAG05W4vTNGujIq0DeAghYOCoHY/ukw6DXtLg40pPLwQlCghgnTVOtZqh2BrDxRAXO3aljyS30d4NOgwUjczGiZxoLM7RGTW0CQd3mU2WbjyjCs/8ImvYeBtVU02ZEHR5Ng/rB/toSCAYDJwhtvjL8gRwBZe9l7ltJgvfUObjWbIIsUqtmAVIgCPOQF2BbMo81aHqSyN+ucuPTg2Uor26CTiuwHgxpNiOrXuiWY2MVDa1J+jlBSCDrVUMM1PSDlc2cqGBaCGRj9O8Gd0lhut5pNgNjpfykGTvGQTKtdPk+vwr3hu2Q6hrYP1PM01CYD8eyxdBkpvNKhthZUj7SOELgsUCSH56d++HecxCCXumiSx4EEkiyTJ8AwahUG7G/y8CpGzWMIAREie3J/qCI/kXJeG1CATo6jK1KDhjx4EmKcWSFT5mKUlOrSC/fuu/GxwdKUN3gCye+AB0dBrw1pRO6Zlm5ByHGzEItnxIfPGL11YG7JSwhkU4jFN+0LZjNGjdxRcUYW1g+3LhAIKJX4nTBtXKjIpBk0CuCBiYj65tiGjpIafnM9GkAjz+ELacqsffSQxZeoL+JooSZQ7IwfVAW695IHoTWPMhxghAX5vfsk1CrGR41+LHiUCmulDRCr1WMj8xy2YQCjO7VgRkd5SfwKzYQiOSYBAJwfrYW3nOX2RqyzcNogGXyGFimToYc3lBac1OJDcT4KDkCbYNApFBQliE+rEbDh58hRIqnBj3kYAja9A6wv7JAEUgKew/U/IMP9hbjBitJ1zAvL1WevTm5EC90Smb7c2uVN6rIcILQNjYSNU9RCQKpKu44V4XdFx4obipyT4ckTOqfgSWj82AyUCpM67LTqAElDgbyZLWye9seuHfuUwgC0T6tBub+fWBbukgRTOLrGgcrzqcQSwgwD58oIkAJip+ugeR0KT1TQiGYenVnHj5tdmb4oKbkGtyqdOG93ffQ6AkxMkB/K0hPwpuTCpHXgZrrtX4TNk4QYsnKWmCs6g8J2evp27WsAYjLE2Jlt0FRRpcsK6uvTQvLLvMfkxYAvQ1uEUmCEgT4Tp9nWdIIJ0GRd0ifnwvHGy9Dm9GRE4Q2WA/+CI6AikAkvODzwXfiLFxbdrHQAiPvooikCaNgmTIRGoeNHdXofXX7Q6y8ccvpSgiywDx/dJ+xfTqwBk3JSfrHHsJWhJoThFYEN1pvrep733vYxAjC7SqnEuOSBdjMOrw2KR998hzQaTWt7sKKVoxicVxMz10QWP5Bw3vLIbncyiYky9CmJCtuzF49WCiJCybF4grzMcciAiREx4oYnC6412+F98IVJT+I3lcSSJo/E6bhgwGD8qNPn33Y4MOKQ2X4ooxCwOQ9AMwGDV4em48h3VJZWLi1wwvscMiTFGPR5J5vzCpBaPQEseVMJY5+UR05VVLawYT+6Zg9JAtJhtYV4Xi+WfBv/28EIt6h+kY0vL+cxTnpolJHwWSAbe50mMeOYlKtkfwEDiNHgCPQqgg8mUDc+P5nCFY9UMILoghtagocLy+Avlc3hTSE+zZfLW3Ee3uKmTQ+VS+EJAm5HZLw+sQC1jMnrIjfqgmKnCC0qllE782VHxIZoizg2NVqrDteAY9fhFajlOoWplvwzZmdmaqi2m+UJ7VF73o+6cpka+vzo2nzdnhOXVCaw9BJRaNB0pjhsMybyZKjlA2GJ6FG/6ryEcY6Auo7GLh2Cw0frYDsDyieAlFkyon2JfOhy81WNBHCjfX2XHzI2juTPg3FHKipHnkOlozJRapVySPiHoRYt4woHr+arHizwsVkl+/XeMMGJ8Ns0OJr0zuhT56dGW1bGGIUQxVTQ6PNiBrA+M5dhHvTTsg+PyMIRAmNvbvDvuRFaFKTuR5CTK0qH2zMIhDuvyCHQvAePQnnuq3QaHUsK5zlHwwfDMvcGUr+QTi8QN6C9/eW4OT1GqVfjiwzkaTZQ7MxuX8GIw1ttSfzEEPMWt7zDVxpAQ3WAGTtsXJcuFuvnCiZ2JeMucOzMXNwJrQakvLk1QzPh3bbfVs9rYgVlWj4aBVC1TXhuKYEXXYm7IvmQd+1EycIbbck/EkJjICqPQOvD+4N29B07BQEnV7JA9LrYJ02EeZJ49j/rx7aSAL/v7ffRUWNl3l1qXqhg82IV8blo1+RI1Kd1BZeXU4QEtR41Xh1SJSx8/wDVu5ICotEBkKSjIGdk/HGpCJYzTpe7hhDNqLGO8lz0PDrj+G/fhsa2nwkicm4soSoYYPYjHiiYgwtLB9qTCLwOC+oAQ3vf8YSiDU6LahFuy45GbYFM2Ec2B9yOLwQDIm4eLeBtXf2BSU2Z/ps7wIHKz/PTlXKG9sqOsgJQkya3fMPOsJsIeBScQPWHatgmbOUEENJbOnJRrw9uRNr3kReBd6b4fkxb4s7PFnu6PxsDTyHT0FjNCi5JHo9kiaPhWXKBJ6H0BaLwZ+R8Agwwi7LCNy+C+fydQg1NCjNlUQRusJ82BbNhb4oX0n1EgCnR8SaY+WsT46yR5NgHTBpQAZmD86CydC2fXI4QUhgE1arGR42+rDycDmulTUqbYJJfE+vxZyhWZg8ICPc3ZEntMWCqajEjzYhz77DaFi9CVoiCOFyR/PgAbAumAWN3c7DDLGwoHyMMYuAQtZJIEmG99hJuDbvghwSlSZqkGEe1B/W+TOhSXZEWrGXV3vxX9tuo95NiYyzO1GSAAAgAElEQVRKuNdhMWDxqFwM657GujkqAmhtsx9zghCz5vf8A1d/TEggadPpShy49Ij1GlcVFAd2SWFlNYy1cvW95we8je7ATi3U2OXyVaaHQMeTSNZ0p0LYF8+FLj9PcVO2la+yjebOH8MRiBYE1JwCBIJwr98Mz8lzytCo7FirhWXqOFimTgLC+Qf0jp64XosP9hRD0LAgIPMidMqwYOmEfBR0tLS5J5cThGixpnYYx5PyvCdu1GL1kXI0+ZW6W2K42SlmfG1aJ+Smmdno2ipzth2giKtH0rrSb3+woooRBJESFanGmtVdJ8O2aB6M/XtHyEFbJDvFFcB8MhyBZ0BA8SAAksuJxnc/RaC4VHnnKB/IamHyyqahA1n+gRLGFbD6aBmTwGfljaAKMhkjuqdh8Zg8WIxK98e2fF85QXiGhY7nj6gkobTaA2oMUlnrZe4r5gIz6LB4TA5G9ewQ8SC0pXHGM+6tNjfmvlTaPDPltrVb4L18VSlQoZOLQQ/brCkwjx0BWd82cq2tNld+Y45AFCOgVhSFisvQ8PEqiPUNiiePEhQzO8JOAkldOin9FwSBiSL9etc9FupVD2PUsXHOsGxM7JcR8R60TXBBAZYThCg2sLYYmkoQ3L4Qy5w9f6eexb2UtsACIwckzmHUabj6XlssyPM+g2U7kRdTArx++E6ehWvrbuY9EMIiLOYRg2GdORWaZJ6H8Lxw8+9zBH4XAoykh0T4Tp6Be9MOSIGgIn1OmiQ9u8L28gKmpMjaOMvA9XInk1eudflZciJ9MjvVhKXjC9Atx8ZChRpqmtOGFycIbQh2tD6Kymio3PHw1WpsO13JVBWVpiEyijIseGtKIbJSzApp4DHraF3GL41L7R4XLClHw/ufsr4MTIglJMLYrRPLntbmZrPvtPWmExMA8kFyBJ4DAXbEov/1++HeuAPe46fZfspCCTodzCOGwPoiqZoa2L4aDErYerYKB688ApU6qjo1L3RW8sCsprYPL3APwnMYQDx9lTwG1Gu8vNqDj/eVoKLWq/yYQGZdw14el49BXVIiyW48zBD9q6/qIUiNjWj49XIE75WwMkeKf2pTHMy9aejdg+chRP9S8hHGIAJP6h80frwagTv3wkJ0Mss/sM6cDNOoYcTOmWe2zh3E+7vv4U6Vi8ktE2vQhtUTSbBObd3e1nsv9yDEoPG19JDJg0Aeg4Ao4cO993Dudn0kEYYkPqcOzMD8Ybms/JGdOLkXoaWXoMXvp1aoCIEAGj9bB++pc9AYqbeGBGh17PSSNHo4oKOGXG0Z1WzxqfIbcgSiCgE1OZEGFbxbjMblqyHWKnsqk01OV/IPdJ0LFfEDjYDrFU68v6cY1ECPJYnLMiwmHfPe9itIDntv2zZBkXsQosqs2ncw5EEgK9x+rgqbT90PD0aJg/UrTGYyn2k2Q5uX2bQvKrH9dDXM0LTnENzbdrPSKrpIFz5p7AhYZk2Dxmbhegixvcx89NGGABM4okoiAZ4Tp1hPFMnreyL/oBtrva5JUX746T97Lz3CxhMVLNTLDmAClTda8c60InSkpnltXL2gQso9CNFmXO00HiIIRAc+L6E2o/fQ5BNZkiL9PcNhwsvj8tAnn5LaiPC2baJMO0HSNo+VZYiBJjQ63WjyBgBBC73JAofDxppmNfdSFRVpTX2XPge5OREKKaGjQACGnt1hX7oQ2o4dWCiJ5yE0F2n+PY7AlxGIlI9LElybtsNz8ATz3Kl+OvPoYbAteRGUh0h/8wRF1rnx5PXaMBEAdFoNRvdKw5Ix+dBqFFmk9vD0cYLArVs5VYaz36sb/Xhv9z0UP2xif6d4mNmoxewhiqoiGWt7sdn4W6oQau5cwJGdm7B533kUV3vgDfhgyBiAxW99HS/PGoJMc/Pd/ypJCJaWw/npOoTuV7KQAlU06DqkwfHGS9B3KuQehPgzLD6jdkRAfe9kdxOcK9bB9/mNcMq3kqBomzcd5gljwnuugJJHTax6gf5bUbKVkWwx4KUxeRjQORlMEYH1X2j+XtBcODhBaC5ycfY9VXbZGxCx7Wwl9l96pLi/WNWcjKHdU7FkVB7sSVQ73z5sNs4gh//hRXz64x/ih+8ehGPgfLw2OR0ntmzC3vMPkDvuTfzNz/8Vbw6wPte0Kb9EqqlD0+Yd8J67BEGvZ3XYlD1tXzIPxsED2KZFi9oeG9BzTY5/mSMQhQio/RdCZfcZQQjer1LyDyh/y5oEx+svwdCzh0IQBAGHrz7CltNVcHmCqo4SumZb8bVpRUi1KeGF9sr74gQhCg2svYZEbUVFUcLVcic+3l+CJq/ikqa/F3RMwtLx+eicaeUEoSUWKFSLY//9A/zZz1bjzP0UfOs/foKFD/8L3/7/z+J2vR/J/ebi+//8S/zlTKUUsbkXq8Vu8sBz7CTc2/ZGvD8sCWrcSCRNm8i6PPLOjs1FmH+PI/AYAdUTS++d/8wFuLbsguR0KUJlMqDLzULym0uhzUxnyQfeoMga5R2/UQORxBAosVGUMKl/Bl4dXxAOLbTfgYwTBG7dEQRIaY9MtKEpgF/uuIu7D9zQEkGQZdjMeiwanYeRPVIjbJafOJtvPJ572/CD73wfHx64B1fHhfjlfy+G6Zev4c+P+dAgWfHCnD/A3/3oB5jeRZG5bs4ViYWKIgJXb6Bx+RpIHi9LVpRCIZi6dYFt6UJoOqYpG1Ebi7A0Z078OxyBaEYg0k01FIJ7+154Dh+HHAwpCYoaAaYX+sG+ZD5gSWLTuF/rxacHS3Gnyg1NOBBBZedvTCrC2D4dGKloT48tJwjRbG1tPLYnmzetPlqOQ58/gpZ+NMLyvcRqZw/NhsXYti1H2xiGNnicH9dX/SO+/cOf42iFgKSJP8GOf5mKnMp9WH20GE5TDkZNmo5xQ7rCpuijNOuKlDoKAkIVlXB+vAqBikpoKA9BkqFx2JDyzjLoOhUo9+dhhmbhzL/EEVAReKw/4oRrzWb4Pr+mdG+kd8ugh3X6RJjHjWKhPnrfztyuw5qj5ah3B1l+F72zdrMe353ThYnUcYLAbSuqEKCqBfrxOH69FiuPlCEUUjoDhiQJPXPseGlsHvI6JLUrq40qwJozGH8xVv799/HDn69HuZCKfn+yAZ99dyi6dxTgrGtEUGdBsj0JuhbISVI3LLGuAe4NW+G9cIURBJX0OV5dBOOgARD0Ou5BaM5a8u9wBMIIRAg5gFBpORpXbmDEXGBVXzIEhx3Jr70EfZdCUkGCLyRh57kH2HPxAaijrjbcXbVPgQOvTSiAI0nRKGlPTy33IHDzjiDwZHdHyqh9d3cxHtR5maIX5SEkW/QsLjagKPlx45B2yKyN+SWr3IN//LO/xI9XXYRo74U3PtyKv55WhJykFmAEvwUclofg88Oz9yDcew5FvAVyMADLpHGwzJgMwUKkr303o5hfVz6BhEYgsn/KMvwXrsC1fivERqfSSVWSoS/Mg+Pry6CxO1go91GDH2uOleNKyePmTEa9BvNH5mBU9zQY9dp276DLCUJCm/RvTl5lwQ1NIaw/UYHj12qgp9aj4UY/swZnMWVF6vTYnrGx2F02GfWnP8Kf/8UP8eGRKljzZuHfd7+Hhd0z4WgFeYlITFSS4T93EY3rtkCmPASNhjWPMfbpAQflIaSm8BBD7BoVH3kUIBApb5QkePYfhnvnASAQYHLKJHFuGvoC7EsXQdDpGUG4UtqINUfK8KDeB61WwzRnMpNN+PbMzshMMTFy0F7VCyqcnCBEgWFF0xDIyEl5OSCKOHWjDisOlypSX4KAoCiib4GDeRHSHSYIpIlAAkvci/B7llBCyOdC9cN6+JjIegjFu9/HP/3059h/z4+0F97Ar3/xx+ibZQelG2j1ZljTMpBiVsRRnveKEATKjr5zD67VmxCsfKAkKlLb2Y6pcLz+MvRFSh4CT1R8XsT59xMVgQhBcLnh3rwLTWfOsQ6qrMRREGCdMRmWqROYOlJQAvZdeoitZyoRYOqJgD8oYUjXNHx9WhHIk8D21nZOHOYEIVGt+ff9pJFLGkDJwya8t6cYDxnDFVgZTrJVj3emdkaPHBsotNbeDDfql090o+TUR/je2z/BRVcIIUlG0NcEt7uJbQxagwXJDgt0tEMIGqR1n4jX/vHX+NORSaA9oiWuSB5CdQ3cG7fDe/kqNGHZZei0sL+0QNFD0Gq4F6ElAOf3SEgEWCiPWjdXVMK1dgtr0EREnMkuJ5nheHUxjH17gTrf1DUFsfZYBc7drmWJ4PSZYEjCiyNzMXeoUtocDR5aThAS0pR//6SZF0FWyh0pRnb2Zh1zgalhhvkjcjC+bzrMBg0jCNyD8HvwDDXh/rmN+Nl/7UBlIIigtxa3r32O68U1EGFCfr/B6FvUEQbKUNLpkdV5OBZ8948wPktQkpZa4FIJguzxoWnPfjQdPMYa0JMHiNY6aeIoWGdNZ1nW7X1iaYHp8ltwBNocgSfzt/xXrsK1fhvEmtpw/oEEXXYmHG8tZf9Nn71T1cTKG8trvAhHcFnOAXkPqPcNXRRiaO+LE4T2XoEofT7V4vpDEo5frcHa42UQJcVb4A+JGNg5lcmApjsMYabLScKzLqNYcRQ//cH/h79dfgF+bTd879fv4h9eHwvHc5QzPu3Zal4JxY58p87BvWkHpCYvCb4z2WVjz65IfmsphKQk7kF4Gpj833MEfgsCT2qOeA4dh3vbHsjBoOIGEEMwDxoA6+J5EOxWBEMyTt2oxdpj5fAFJXbAovyDbtlWvD6xkOUfqFd7H744QeDm/hsIqMZOXoTblS6mqvigwcfc4FTNkGI14O3JReiRZ2f2z8MMz2pEMuovbcb//fPv4hf77kPoOA0//ehf8J0Z/fAcLRee+vAns6sDN27DuWYTxIfVivuT8hDSO8DxzqvQZWcpBKGd455PnRD/AEcgChGgd4lUE5u27YHnxFm2N7LmaJIE6+ypSBo/GrLRgDp3EFvOVLLmTEqmETVLEzBzcBYm9E2H1Uw6M9Fx6OIEIQoNLRqGpPZmqHH5sfpIOc7fqYdBR7EyauAkY+GoXEzqn84qHDhBeNYV8+Hu3o/wV9/7M6y92QTjoO/h41/8BRYNz0Xz+zY+27PVBKrQw0dwrdkCIgosxEAEz2hgeQiGAX0YaWAEgSeePhuw/FMcAUIg3OKZGqKRQJL/9j1FkEyWoTEZYX/9ZRh6dYes0eDOAyW8UFnrVTrmhg9d70wpQpdsKyiaGy3dVTlB4Ob9WxFgBAFKZu2+yw+x5dR9Rg7UbNth3VPx+qRCWIzkG6dKhhbKqIvn9ZCrcWr1z/Enf/BTnKyTUPDyv+HDv3sHE7pZWn3WkQxrr5dlWHtOnoVA5Sp0aTRKX4aZUyCYjDzM0OqrwR8QbwjQoYkUEwPXbqJx5XqQMJnqodNT/sE7y6DNSGeCcyRCt+pIGUv6Jk9BICShd4GdeWVTbQZGNjhBiDcLicP5MFVFGfi8tAGfHSxDrTPA2C2FGbJSTfjWjM7ITjWzMl9OEJ7BANy3sP1X/xd/8IN1KA1aMPavP8C/f/dFDOzYNuSKkYSQCM+RE3Dv3AdKWiTGRxuboVtn1mWO1N645PIzrCX/CEcgjIDS8FaG7A/Ae/IM3Bt3sNwedpoSJZgHD4B14RzAaoMnEML64/eZjL2qL0OkYfrALMwZmgWTgXyJnCBw44oBBMj1RcZaVe/FmqP3caWkATpiCGD5bVg8Jg/Du6XBqNMoVQ78+r0IhCpOYflP/hB/9D/n4UIXfPvd/8FfLp2AfCXXs9UvUnOjREX/tRtKlnV1TaQNrTYtBY43X1H0EKKg/rrVweAP4Ai0EALM20oljg2NaNq1D56jZyBQAjB5VjUaWGdOhXncCMBgxMNGP97dU4x7VW7odUpOl8Wkw9JxBRjaNTV82Gr/6gUVGh5iaCEjicfbqGEGr19keuG7zj9gBk05B+RdGNglBUvG5CHVYoiKmt1oX4P6yzvxX99/E/+4txpi+lT8+P2f4Zsz+sDeRvtBRA/hAeUhUJz0LkuSojwEwaBjXeZMwwZzghDthsTHF1UIMM+cJLG+C6619F4VQ6OnhmgSNHYbHMuWQN+jC0KygMslDSz/oMknMnIeEiV0zbaxHjdF6RRqVMIO7V29wAlCVJlYdA4mosInCDh/tx4rDpeh0R1QEmtkGQ6LHt+d1RWdMq3sn5Wk3Tb6tYtOyH7PqIIoPrgSf//Nt7D8jgTDoG9g+S/+FguGZbWIYuKzwMEIAmVV+/1MyMV7+jwgSwpJgADrlHGwzJ/JNrZo2qSeZW78MxyB9kJA3Sf9n1+Dc+UGSNR/IdxSXV+Yj+Q3X4EmvQPcPhFbzlB4oSb8zsvswDVlQCZmDMqEzaxXqsKiQP+AE4T2sqYYey798NNVUePFqsNluHHfBS39yLAURmDp+AJM6NuR/ROvZvg9iys14uy6f8OfvP0PONGkQefFf4tf/fOfYkJnc5tZxJPljp79R1i/elarHb5MfXvC/sYrSqIiJ3ttti78QbGLQCT5NxiC9/BxuDfvVCZDXtZgEEkjh8I2bwZgt6Gyzof3d99DGVUvCOR0kGE16fDS2AIM7prMysijjZjzEEPs2mabjJxlIcgyfAERm09W4sAXj+jQCRIZDwZljO3bEW9OKoiQA+5B+B3L4q3C7l99H+/88XJUCmmY+Cc/w7/94E30S22TZWQPebIvQ+DKVThXbYTodEXyEJja27LF0OVkg7JR+Vq23drwJ8UuAkz/oMkD94Zt8Bw/A41BH3nXrPNnIGnsSEh6Ay7cqccHe0sghj15lJxIYYVl4wtQmGmJeBKj6b3jBCF27bJNRq6eOsljcOJ6LcvAdXqDzBVGRKEww8KqGVJteuaqjib3WJsA9IwPCdXexsp/fBPv/PwEQua+eOeff4q/+840ZOuf8QYt9DF1PcUHD9G4fA2CpRXKWkKA1pIEy9zpMA0ZBEEXJgg8ZNRCyPPbxBsCavUCJfWKtXVwfrgSgbslgF7HchI0NivsSxfC0LsnfCKw5fR97DpfxaoXlO8Co3t1AEnX25No/4y+EC0nCPFmta0wHxZmkGWUVntYgk3JIw80RAcEIMmkw+IxuRjcOQV6rYYThN+KvwxXySX8x3fm4693lkGXPxN/868/xp8u6ou2CzAoA2ONY8j96fPBtWoDvOevMD0E1rBTr0PS8CGwzJ8BwcjDDK3wKvFbxhkCrHpBFBG6V4qGj1ZCamgEdDpAFKEvyIX9lYXQ5maj1hVgje9u3XdBpyV1RcBs0uLF4TkY26cjtOG8g2jyHrBIifxkl4k4Wzw+nZZBQK1m8PhDWHO0nLWBZkmJYZnlwV1SWRYuxdOioQNZy8y6Je/iR9W1PfjBktfx0dVGpI3+Bv79J/+A10Z2bMmHPNO91L4MgiTDe/gYXJSH4A8o3xUEGDoVwv76S6CyR+VPPOn0mYDlH0o8BNTyRp8fvtPn4dq0nWRmFSIuSUgaOUQRH3M4cKWkEZ8cLIXLQ95XUk+UkN/RwvbN7jk2RXExCiXOOUFIPLNu1oxV6eWDn1dj48kKeAMiS7Qh13S63cDCDHkdk/iPym9DV6zH7eO/wpsL/wEnajQY8vpf419+9KcYn9vaAsu/falZNYMks3a0zs/WQaqrV6obZBna1GQ4li6GoUcXxavACUKz3hf+pfhHQC1vFBsa4dm0A57zlyFoqL+JyDqj2ubMgHHUEIhaAzadvo/9Fx+y5O4wh8CwHqlYODIXyVQmHqXvGicI8W/HLTJDtZqh+KEbH+0pQVWDj0yaBdLIPfbGpEKM6JEWcWHzH5bHsMvuClxc/WeY/0cbUS7l4ZW/+jH+6S8XobCN8w/UEanJipLTjcYPPkPgbnG41FGGYDTANn8mzGNG8LVskTeH3yQeEYjkHwAIld9H4wcrEHpUrbR3FkXmgbO/9CL0vXqgwRvEr3fdw51KN9sxaS8lxcS5w3IwuX8664nCCUI8WkkCzemxaFIIy/eX4UJxPSvTIYJAKQqTX8jA4lF5URtLa8ulksUQgiERpDCg0+sRenQL23+0EG+/ewPBnLH4q3/+D/zFkr5Qovxtf0XCDLIM55qN8J04B5mCojLYBpc0fiQss6ezUxAPM7T9+vAnxgAC4eZM9L74LlxG40erGDGgg5EcEmHo2gnWJXOhycnBF6UN+GR/KZzh8AJpH6Q7jHh1fAHrwcDeOxIri0JvHfcgxIAtRssQGSEQgN0XHmLnuSp4AyGQDB8x4p55NtbLvIPdGLXG3hY4SkEXSs5sxuoNR3DXn4npX/8mRpqK8cHbM/FPZ2XkTXgHP/nPH2F+99Zv0PS75vtkuaP32Cm4Nu0AAqSHoKhbGHt2h23J/Md5CFEYG22LteTP4Aj8vndITfj17NwH58bt0FBib5g4mIcPgXXudIQsVmw7U8mUaIkYsA1UAPrkO/DqhHx0sNExQUkcjsaLE4RoXJUoHZMSZpBRXOXBR/uLWZhBkEk0CUizGbBoTA4Gdkph7rJoTLhpC1gbLq7CD//PP2Ht0bvw6BwY+s1/x0+m1OBHr/wx9oo9MPu7P8LP/nIW8kzt17tCJQisk9ydYjR+uoaVaQmsWEWGLisTtoWzYOjelXV6jNbNqy3Wkz+DI/DbEJCYAin91gto/HAFPCfPsfAcNT6DXg/LzMmwjB+FOp+MD/aVsOoFRr9lwKjXYsqADMwckgW9ViEG0fqOcYLA7f+ZEVALXqg3w8cHSnDudj3zFtCbYtRpMbZ3R8wfkQ2DTvnxi1ajf+YJf+UPirj0yd/gO//nZzhVHoDWmo7x3/op/jBnP777V+tgGrkU3//Xn2JZPwcM7ccP2KzUtaSyLOfyNfBdv8VIHVPEtJhhmTEFSWOGA1olkTLx1vIrLz7/QgIhwBqf0U++x4v6X7yHYEkZBJ3Sf0GbkgLrotkwDeiLz0sbsfxAKerdgUieT7rDxKoXKLxA20A0H6Y4QUggo37eqaqVDMQKSPBj/YkK5ccjnKzYLceGNyYWIj2Z3GaKTkJiXSKufPQ3+PZf/wynqjRI7TMbf/4XL8L1yd/jP68YsfT7P8c/fW8cksNJSe2KjUzZ1DILLTRt3QX3wWOKzCttexoNLCOHwTJ3KoSkJE4O2nWh+MOjEQGmfxAMIXi3mBHsiCKpJMHQuQC2hXOhzc/D1rOVLBwbEqneS5Go71eQjNcm5sNhjd7qBRVzThCi0fqieEyUh0A//NfKnXh31z24faFwXa+MFJseS8flY0CncA19Ap48G69uw89+9GOsOlgKIbcHOqcGUN1gRM8pr+PP//BF9E1/LKna3susirz4z19iTWYQEhXvAm1yPbrCtngedJnpCgnkeQjtvVz8+VGCgJrkK3t98Bw8Cs++I0wYieUfADAPHcjyD9w6E5YfKsPl4gbI1DIVSifc6YMyMG9YDgSNcriKZu8cJwhRYnSxMIwnNbUamwL49a5i3K50sRADldaThCh1JZsxOBM60vJPQIIgSwHUXtuH1Su34uCVMsgpXTF6xktYtmA4OhiVE3pUXOFkKhpLqKwCDe99CrG+QcnCFiVo09PgWDIf+p7dInoI0byRRQWmfBAJgcCXwnOfrGLtndmpiaoYjEZYpk+CeeIY3KxqwopDZXjwREm42ajFm5MKMbBzCqv+itbqBe5BSAhTbvlJquw5EJKx99JDFmoIhFj3JhbX7l/owOIx+ayMJ9qNv+XRUe7IyhyDQdbrnY4JWr0eBr0ueshBeOKRk5DTxdyk/uu3WZMmttGZjLDNnQHzqKGKdGwCkr3Wsg9+39hGQCUIwdJyNPzifUher0KsKf8gNRnWRXOh7dOLVS7sPv+QicqpF/Wu+dqUImSkmGLineIehNi21XYZPYUZ6D/Um+H9PffwsNEfaV+akWzCwtF5eKEoWXkBwm60dhkof+hTEWBhBp8fnr0H0bT/KNvkKBObXKVJY0ew0xA1nSG2xz0IT4WTfyABEGBKpIIA35kLrIIBGi3b5yhxUV+UD9vLC+BypGHlkfJweEFJ5NYKAsb1oUTuHCaUFAseVk4QEsCgW3qKqkCSLyjh/T3FOHu7DsZwhzJq2DRtUCamD8yEQa+UyEWNW72lgYjx+0X0EEQRgas30LhiHaSm8GlIFGHs0RXWBbOhy8kKk712Lr2Icbz58GMfgYjIGASW3OvauivS2IxIg2nQANiWzMON2iA+O1SKB/U+aNgpSYbdpMOrEwrQrzCZCcrFQudbThBi32bbfAZqNQNlwe+68ABrjlZEShupPrh/UQpeGpMLKudJ1DBDmy9KMx/ITkMAxIeP0PDhSiYbK2i1ilxshzTYlsyFsU+vmHCHNhMC/jWOwDMjoJBqQPb54Px0jdINVaeUAmtMJlgmj4Vh8gQc+PwRtp6uhDcghXvWyOiabcPXp3VGskVRKOUE4Zlh5x+MNQSUagYB18ob8csdd5XmTRAgShI6Jpvw6vh89M53sJeDu6ajd3XVExGaPHCu3gTv6XNMEY6FGvR6lo1NoQaWh8C9QdG7kHxkbYIAI9SyDPF+FRqXr0WwskopX6QQQkoybAvnoKlTF6w/Xo4ztxrCwom0CcqY1D8Di0blRrrgxsK+yD0IbWJW8fcQJhQiANWNfuZKu1rmZIZP5Tx6nYBZg7MwsV86TIZwmCHxRBFiZtFZHkIgAM/+o3Bv3cXEkZRqBhFJo4bBMmcay0NgGxpfx5hZVz7QlkXgyZCc9+Q5uHfshdzkYZ1R6X+o/4Lt5RdxO2DC6iPlKK/1QEviY7IMi0mH1ycU4oXOyWzfpHLHWLg4QYiFVYrCMZLRkxfBFxRx6kYd1h6vYP9MyW2kOT6gyIGFo/KQlaK0JGK5CDHyUkQh3K02pMimJ8vwf3Edje9/BjkUYroHUjDI2j47XlkIbTrpIchcD6HVVoLfOOoRCCfvyn4/XOu2wHf2IvO0sf7Nssw6oCYtmIND1+qw8VGafw8AACAASURBVGQFq+5Sqh9ldM2x4p0pndDRofReUITkop8kcIIQ9VYZnQNUXdOiDNyv8eDd3cWorPdCp6Ewg8yaNr0yLp+phlGOTqww5uhEu3VHRbkk1IchVHEfjcvXIHS/ivVgoHJHTVoqkl9dDH23TkxhMRYyr1sXLX73REVArV4QH9XA+fFKBMsUJVlQ1EGnhe3FWfAOHIwNJ+7j9K26CAGgvXJ6WB8miaoXYuiwxAlColr7c85brQWmnB2PX8RH+0tw5nYt68nABEAgY86wbEwZmMkqHPgPy3MC3opfZ2SPvD8NDSwrm05GgqC4Rilh0bZgFkxDBzFtBB5maMWF4LeOWgQi1QvU4IwqfpavgeRyR94Tjc0Cx9vLUGpJxycHilFZ64NWKxB3gMWoZd6DXvl2lphIFQyxcnGCECsrFYXjZAm9lLAjSdh76RHWH68Is2MgGBIxsEsq63meYtVzghCF6xcZUlhVUfL54D91Hq6tOyEHFAltOjWZhw+CdeYUaFIofirwMEM0ryUfW6sg8GSLdM/+I3Bv36O8Ixqlmy3pHyS9/gpOPghh7ZEyBKn3AoUXJBnUo+adKUVKa+cwN4iF8AILDctP6ue2CrT8pvGKQMSLAAFXyxrxyf4S1LoCihifJCPdbsLXphWhKNOilDvGSNwtXtfrd82LNjjm9pEkBO8Uo+GT1ZDq6iPljvr8XNgpDyE/RyF6vC9DoplIws83std5fXCt3wbvqbMKJrSx6bQwjxgC34TJ2HrhEU7cqIWWNsFwe+cZg7MwbWBmWBxJjurujf97oTlBSHjTfz4AVE2Ehw0+bDhZgQt3GpgbjX5vdFoB84ZlY0zvjiANcvp77DjXng+XWPu2pOohVNfA9ek6+G/dhaDXMdJAZY/2ZYthfKFvZFOMlRNQrK0DH290IhDJP6iohHPNJgTulUZyDAS7FfYFs1HcsRCfHipHZb2P9aIhz2pykh5vTqbwgo3tf7GWi8UJQnTaY8yMihEEyPAFJBy7XouNJ8oRDIXdazLQO8/OwgzpyWprU67GF5WLq4YZXG40bdmFpuOnoQn3YKCqBtusqUiaPlEpgeQehKhcQj6o1kHgsXoi4LtwGe5NOyHW1bNEXiIO5GGzvb0Ux6okrDlSBkrcJscC7YN9Cux4bWIhq15QD0exRK45QWgdm0qou6pehNtVbny8vwRVdV7GoOnvSUYtvj6NGLQimqR45bgfIdoMJOJCDQbhO3oari07IQeDSrljIADzoP6wv/6yIivLxa+ibfn4eFoRgUgUXhSZ9oHn4DHIgSBjAdTHxDxyKDRLFmDlsfs4ca0GhrCyoihLmD0kB9MGZcCsD6stxlCCItureQ5CK1pWgtxaJQi1Lj/WHqtgvRmIINAVCIl4cUQOpg/MYu2gYymDN0GWj03zcVWKjOC1m3Ct2YxQTS3r7iiHROhzspD89deh7ZDKTk6c5CWSdST4XMNeUqneqegfXP5CsX9K0Pb5YVs0Fw1DR+NX22/hPjscCRSZgy1Jx7wH1OE2FsMLnCAkuN231PQp34BeloAoYf/lh0yDXM3iJbGQAZ1S8ObkQjjMpEEeW0k6LYVRtN/nySxtseohXJu2w//FTQhhT5DGbGaCSfre3ZXcBE4Son1J+fhaCAH13QjeK4Fr9WYEK8L9SiSJaSRZv/kGLpmzsWpfMdsDiTxQ/gFJzb80Jg/ZqeaIAGmsEWvuQWghI0rk26geBMLgizInVh8uQ1W9NyIzmmIz4GtTi9A506ow6RhzsyXK2jLJZZqsx4umvYfQdOAYS1JUS7mSRg6BZdYUCBbL40xsHi5KFPNIyHl+Kf/gzHlGnEVnk5KHI8vQpKZCfmMZNtwK4NztGvZe0Hdoi5s1JJv1X2AJ2kwcKfYg5AQh9tYsKkdManz0YlBvBlISO3+nnv2w0DtB6ooUh5v6QiZMagvoWHxbohL5FhxUWEqWFBR95y7BtXE7E4NhqoqyDF1WJpLfeRXaTJJdVkq8YnDPa0HA+K3iHYEnyxvduw/Ac/Ao1XAzgkANmmxDB6Js6Fi8f6QK9U1BdvghaeU0u5E1rOtTQLlXCjmINe8BDzHEu3W34fyUKIOMkChh3yWl1SmFFygVgdxw1OqUNBFSrQZW9cB6pPMrqhCIJGPJMpg7dc0mBMsqWTtbpqqo0SD5G6+x9s+kvEgEMCaPRVGFOh9MNCOgetXEB4/gZmG3GwphJn5sNKLj0nnYjyx8eqgMepJRhoCQJKFPvoNJzWckKy3vY628UV0T7kGIZuuMobEpcTowVv1FaSNWHi4DaSNoSbJXCMuNTi1C7zxHmE3HJqOOoSVp1lBVkiDWNcC9YRt8F68oioqCAMnvh2PRXCRNGf/Yg8A9Qc3CmX8pNhBQQwzB67fgWrcVwQcPIwJiuqwMpHznbbx/tgHHr9XAaFCINHkRyFs6c3BYHCmGPW2cIMSGncbEKNVchBqnHyuPlOFKSSNj1MQcyMNAL8zsIdnQaykPgXsQonFRIy7VUAiePQfRtPcIEAwwgkClXUnDB7JyR9a4KYaazkQj1nxM0Y8Aa2QmivAcPwX35l2srJE8CFT6axrQF+KrS/EfW+6gqs7DiAF1tE21GbF4TC4GdUllPWliWUGWE4Tot9GYGaHKtgMhGbsvPMDeiw/gC0qsbp4cDD1zbXhrchFSbQbFRcdPn1G5tkw1DoD/4mW4Nj4WhaGERRKFcVAeQmoK78sQlavHB9ViCITzqmR3E9w79sBz5CRrzkQuUCpvNM+cggs9R2Dj4RIEApTgK7NwKjVlWjImDznh6oVY3uc4QWgxa+I3UlQVFTJAYYZ1R8tR1eBTXNSyjBSLAa9OKED/IocS0+Yn0Kg0mkjc9X4lc6sGbt9TkrIAaKwW2BbNgal/H6XUkTxBnOhF5TryQT0nAmGCEHr4CK5VmxC4eRuCThfucqqB9OJ8rHCn42ZxLXsHyHtA+i+TB2Rg1pBMGPXU2jm2D0KcIDynDfGvfxkBcsnRL0lDU4CFGS7dbVBK51hPEw0m9UvHwpG5ihof9yJEpfmoRA/UmGbTDnhPnAVkSSEEWi3MIwfDOneGoqrI1zAq15AP6vkRoP4kAiXs3rwD58r1CNXUsYRdKSTCnJ2Biomz8N+XfQgERZawS59PsRrw0tg8DO6SGhkA9yA8/1rwO8QJAmqyoijL2Hn+AbafrUQoROLkykGza5YNb08tRKpVkeyN1ezeOFmu3zoNdQ2J6XkPHYdr2+5I7JW+oM/LQfLXlkFDYQZOEOLZFBJ2bqo4kuz3w3fqHFyUf8CkxwVIogTH8IE4nDcQK8/Xw0AyylTRI8vonmtjvWeyUsws9yqWyQF7t7nUcsK+A602ceZFAHC1tBEf7iuG0xMk5zR7YexJerw8Ng+DuqQoIQb+A9Nq69DsG4ddq/T9wI1bcK3cgFBtPYu/shLVJDMcby2FoWc3tiny5k3NRpp/MRoRCO9f5BGQGxrh3r4H3lPnlb4kVKWg08IwazpWejrizF0XdHol4Vqn02B8345YOCKXyS3HA3nmBCEaDTTGx6S6qOvdAXy0vxQ3Kpzsh4TeO+rFMKpXBywenavE6DhBiMrVjpQ71tTC+dl6BG7fDYsiyayiwT5/FsyTxsbFJhiVC8AH1a4IqB6EUGk5GlesR6iiihTfIAdF6Duk4MHkmVhVqsXDRh+Ln9KRKM1mxKLRuRjcJSVutF44QWhXM4zfhxP7pn4M+y4/ws5zD+APhhhBoBcpPz0Jb00qRG6HJAYADzNEnx082d2RBGK8J89CDoSUgcoyzCMGw/7yAjo2sXXl8tnRt4Z8RM1EQKZqBBmCJLH2zq4VGyBReIGqFwJB6Lt3weFe43Co1M/yD9R9rXe+Ha9NKGAqiiyhNw6SdzlBaKYN8a/9fgToBaOs3rJqDz7aV4LKOq+SqUgtoE06Vic8qkeHmG1ikgjrz5K0JBm+cxfh2rILstOleIIAGIryYV+2BNr0DmxdmaoivzgCcYBAJP/A60PT7gMgiWVBr1d6L8gymgYOwipLLxTXBpiiKBUFawUBMwZnYe7QrHB1VmxXL6jLyAlCHBh0NE4h4qIWZXywvxinb9ZFdPupMm5Mr46smoEamcRDrC4a1+B5x8T0EEg+u/IBnCvWI1hWoawhJZc6kmF7cSaMg/rzPITnBZp/P3oQCLd2Zl6B+gYWXvNdvQ6NXg9JFGGwmHGz/yis8abD5RPZAYc+azHq8M7UIvQrjK8Sbk4Qosc042okqqoivUAHrjzCmqPlzKNAumL0fztlWPDyuHwUpSdxPYQoXfnISSoYZATBe+ZCRPeATlRJ40bAOnuaok3PNS2idBX5sL4qAuQVoLLeYHEpGj9aBbG2DtBqgVAImuws7C8chkNOM2vKpGi5AF2yrIwgqCJw8XLo4QThq1oP//wzI6B6EYofNuG9PffwqMEfEU2ymnSYNzwHo3t3YImLPFnxmWFtsw9GWt0KApp2HYB7yw5AoySW0q5o6NkV9lcXQ+Owcy9Qm60Kf1CrIkAeBKpeCASZ/od7607IIcozkKGVZTR07o7NKX1ws0kLii0QN6Zk6ykDMzFtQAb0Ok1c5eNwgtCq1pbYN1erGdzeENYcK8PpG3UR2WVi3SN7pOHFkbmwm/UxrzgWryvNwgyCAP/n19D4/qdss2TdNWjDTO8I+6uLYOhcyD0I8WoACTYv1WsmuZrgXrcZ3gtXGAuQRQlagw5fdBmInbpC1AfIF6pcmalmvD2lCHkdkhRnWhxVZnGCkGAvQFtOl142SlYMiTIu3qvHZwfL4A1IjAxQW+iC9CS8Oq4AXbKtkWHFurBIW+LbFs+K5JI8eISG9z4Fyc4ygkAJjElm2OdMh2nM8IjcMl+/tlgV/ozWQICpt4T7kFDeDRHi0MNqRUGUqrKsNuwtGIbTSGN7Gr0IgaCEkb064O1JRdDp4s8TyglCa1gav2cEAYUkALVOP3618x6KHzVBqwH7m1mvxYJRORjdsyP0uvgQFomnpVfJAWvj7WmCa/02+M5fVsgBq20UYB4xFNb5MyCYzGG1TF7NEE82kFBzYeEFGRBF1uac5JXloFLaq4WMB2k52JQ+ECWyBQJJj1NDs5CENyYWYFL/DFbdE0/eA5ofJwgJ9Qa0z2QpOTEQkrDhZAX2X3oErZaaNwGiJLEww/wRuUi1UpiBk4T2WaHf/1QWkw0G4b/4OSMJss+nlDtSd8cuRXC8NB+arEylrS0vd4zGJeRjehYEwgSB5JXd23aj6eBRCJpwlZVGg8vp3bA9pTfckhYaQRF+Mxu0+KN5XdE5y8pEXuLNg8YJwrMYDv9MsxFQE90kWcCle/VYfqAUTf5QOMwgIyfNzLTLu+XY2EvH2qnyK6oQUMsdKZu78d3lCN6vUro7ShK0KcmwLZgF4wv9lOMTkYQ4EIiJqgXgg2kTBJj3QAAksvNPVsNPXUy1WuYt8BiSsC+jH85Y8hkxULs0DuqSjCVj8uEI51GxNyCO7J8ThDYxvcR+iFry+LDBh4/3l+B6hRMGHemaU4dHgWmXj+vbEXqthicrRqGpREINkoTGD1fAe/oCBIOBAras/a1lynhYpk4A9I+9QFE4DT4kjsDvRYARBFD3xttoXL4GYqNLUUSUZVRYOmBzxkDcN6RA6UgCUCXWaxMK0bvAzkKkWspQjLOLE4Q4W9BonI5KEDyBEPZcfIitpyuhJTIAIChKGNI1lTVwolapdMWDRGk0rkNzx6RmdpPXoGnXfjg37mBtb+mkRF4EU//esC6YDW1aKq9maC7I/HvtioBq43Rq8ew7CPeuA6xih9wFkiDgnKMIezr0hVdrZASBkhS75ljx3TldYTXq4vZgwwlCu5pl4jxcEUmScb3MiV/tvgePL8SIQEiS0cFuxLdndEZhpiXc9oS7qaPNMmgDJULnv34TDb/6BHKIwkQCZFGELjsD9pdehL5rZ66qGG0Lx8fzTAhEeo/4A3AuXw3fpS8UsivL8Gj02JHWB+dTujByQHbvDYqYMSgLr4zLVxrMUJdT7kF4Jqz5hzgCX0IgosgHAY8a/VhxuBRflDRCpw23TxUEvDgyB2N6dYDZqGPCSfyKLgTUNRQf1cD52ToE7hYrKjFEHMxG2ObOhGnEYBZyoCue4rDRtRJ8NK2BgJJnA4SqHsD54UoEHz4K//BLqNDZsSljMCpt6dDKEguNGvUavD6xEEO7p8Zd5cKT+HIPQmtYG7/nbyCgaiL4AxIOf1GNTacqIDINHgHBkIR+hcl4ZVweMpKNXHo5Su2HtOjR5IFn/xE0HTiibKDh5k1Jo4bBMmMSNHZbRI45SqfBh8UR+M39iSp1RBH+Mxfg2rgDUrhSJyQLOG/Owu7MgQiYkhgZECUZnTMteJ060qaZ45oQc4LAX5Y2QUB14ZFw0u1KNz7aXwJKWtRpNKCugRaTHm9NKUT/Qgdz7fE8hDZZlq/0EAoTIRRE8NZdluUtuZsUL0JIhKFzAWyL50OXn6MkdsWhu/UrgcU/HDMIRMILXh/cG7bBc+Y8sQA2/kYYsNPeHV+kd2UVDYptC5g5OBMT+qWzREUiDfFq75wgxIwZx/ZAIy+hLKPOHcTqo+U4d7uOhRmobIiSFecMzca8YdlMJ4EThOhbbyJ3FJMV6xvR+N5yBIpLlZACCSdZklgegumFvo8TFeOo3Cv6VoOPqKUQiKiFPqqG8+NVCJRVhMMLwD2tA+tT+6MxJYMlIpKAYprNwKSVSQFWS51N45gMc4LQUlbG7/NUBNQXkUSTqMPj5lP3ERRlEuRDICijV74N35rRGVaqKY7TpJ+nghTFH4jkkvh8cG3Y/v/Yew/ourH0TPDDw8uRmXzMClTOOedQUpWkKqUqVa7q7vHYM/b6OJzpHds7be/aZz2z7eNZj3emc1dUKeecc845U0wSk0i+nADsuRcPIFXV7ZIYBJDvwsenu6kH3IvvvwC++4fvR+joSRhouaMsvUxKHR1zpwM2GwsT6diObGqtCKgNyQDESL+RrzfInjG5iBfHzAXYkzcCvE0OJcRFCSN6peH9mSXIcJp7VGOm37UuGEFgT8srRYCEE8hxq8qP1UcqUPMsTJMSyZ89djnMQESTTLxcycCS3V6peb53MJrMJYgInzwD3/ptsveA4yDG47AOHQTXiiXgszNluzEPwvfiyX6gLQJtCUJo934E9hymFTrkCEhGbHQOwE3vAPo+olLKHIdF47yYNzKPJiqSoye/oxhB0HZ9ptToSndHElJ45o9i48lqnL37jIYTOE5WMiftn0kbaBLbI56FnvzwdTfjK/YjMdfY/Yfwfb4WQn0DYDTK5Y5ZGfC8vxLmst6kEy4jeN3NwCk4XzX0GQjCv2YTwpeuqSg8hBPrMobDl1MIgyTS5MScNAstbRxSkpYS7ydGEFLwodDylpWPTCIhVzNsOVODcJRoIsj6ZNkeC340vzdKcx1JbXNGErS017fHVqWz6xsR2LIT4QtXYDCZaDUDeB6uN1+HddJYcGaTXM3ADoaAjhFQZMTjD8vhX7cVieonROkAcXA4xOXhmHco4PbQ9U00W8b1y8CbEwuQ67H2WHGktuZiBEHHi7cnTk35wBBvwb0nfqw+XImKhpAcy0s+hB/OKsGsYbkgWfOK5nlPxKI73hO1H6lmiEQQPn4a/q27VTerJIiwjRkO59JF4Dwu1nyrOxo4hebcVkI8fPQEArsOQgyGaD+GJsmMr01lqCnoC4PVQnNsjEYDlk4qxPQhWTARJdEeHl6g4RNJRSmFVga7VU0RUKSX/eE4Npyswunbz+gGlHgQiITppIGZ+HhOLxgNzE2tqaF+z+DKrit2m2jWr4PY0kKaalBpWmNeDtI/eRd8YT6TXdaj8dicVATUpNtQCP6N2xE+d5mSXxLuvCKlYZN7MBK5ebSUl4QXCjPteG9GMc2RohkJKZAjxQgCe2A0QUAWTgKO36rH5lM18IeIU0+uLvKmW/HpvN4oypKz4VkugiYm+p2DKpLL5D+Fp3Xwrd2E6O37MFAFRTnM4F61TO7uaCIa9SzRVD/WYzNpiwAluqQy4XEl/Gs3I/64in70o5wB21GI87kDwXvccviM4zChfyaWTipAmtOcEt4D5kFgz4smCKiJQQCqG8P48tBjPKgJJD8mgNnEYc6IPMwflQezsVUTgSUsamKu7wxKpedFEWIojNDugwgcOkqaPMvVDIkEnDMnw75gLtVGIHkIzG76sBubRSsCanMmAJFzl6gHQfQHaEVVhWTDGlNfNBb2hsFiphVWLpuR5h5MGZRFf5Mqa5p5ENhTowkCSrIikVnedLoah67UUTeeUhnXK9eJH8zrhRyPRY1xazJRNuh3EUjKK0MQEDl/Cf4N2+XYbVJV0dSrGJ4PV4LPzVFLHVPlhcqWS/dAoFXTI0o7lAYPHZfzDCDhqJSFfe5+EPIKSGtZWpFT5nXi7WnFKMm2J99HqZE8zQhC91jPPXKWVJkPHC48aKJeBBpmIB0CIcFm5vHR7FKM6Zsu1x+nQEJQdzKy8oKNP3oM/5otiFdU0RbQ5O8Guw2e91bAPHQgwBnAseZb3cm0KTFXZf0mamoR2LgNkVt3qbcrCgPWoBh3cvrAkJEhr2eDgcoqE5VXq4m0OU8NcsBCDCnxKOj3JhUvQpM/hl/tK8f9Gh/NS6ALE8DsEblYNrkQxuQHhu1CdWRL4kUgeSQtPgS27kL4zEWZ3JG3pyTBOX8mHAvnQkqGGJjtdGS7VJ9Kcu0SGKJXb8K/YRviDc/A8wbcEx3YYOwFf0EJYLfRpEW33Yx3phXREsdU26wwD0KqPywa3r9CEEg5444LT7D/Yi0icYHmupEHkWidvz+jBPkZNsoYWH8GDY31raHVGK4gIHTkBAI79kGKJT1AogjLwH5wf/oeDFSiVmKaCPoxHZtJMkQmRWMIHTyGwO4DtAJH4DjsFXJw2t0LkjcfEs9TrMrynfhgViny0q1040I3MCmiEsoIAntcNEWAhBkIG3hUG8JnBx6ipjFCXXiEILjtJiwan49pg7Nlt14KPZiaGuVFBld2YRyH2PVb8K3bAqG+kRIBQh74jHR4Pn4HxpJigDf06IY2LwIX+40+EFCrcEjb5oZG2r0xfPk69R7USRZ8IxbiSXYJDFmZ1BNmNvNUk+WNsV6YjKkn/84Igj7WbcrOQtFEIMmKXxx6jJO3GmmuGzlItvCYvhl4e1oRnDa5rWqqMPfusCAULwKRWyYqdNGbd1vbL5iMcMyfCfvMqYDZzModu4NBU2GObcILcSIX/vUGxJ/WURGk82IathmKECsoBudwUEXF3DQL3p1RjP6FLvBJr0EqvYMYQUiFh0LH96gQBPLsHblRj8/3P5ZVFYkXQZSQl2GlndMGFLhoOTL9N3boAgG5XJUD4gkEd+5D8NAxudFN8kVqLusD98fvtNaSM4KnC7ul8iRUJdd4HJHTF+DfsBWkGifB8dgqeHHOng+uoJC2MSermyRJk2Rpq5mnHoWe3Nr5d60LRhBS+WnRyb0rughEcvnnux6gtjlKvQUkYZE8mG+M82L28FwYSYdH9pHRidXkaSiqitEr1+HftBPCsyZamUIqUXi3C56P3oGpf9+UitvqykBsMs8hoIgjkXUa3LEPoVPnwRsNqJRs2CzmoyarCBwJLxgMMBsNeGtiIWYPI+W6qRniZASBPUCaIqCKJklAOCZgw6kqnLzZQMVJyAZVhISRvdPx9pRCZLqZq1pTY/2OwdXmTXUN8H2zCbF7D2UZWnJwHJyLX4N97gxVjS6V3LN6s1Wqz0dJiqY9Xx6Ww/fVBsSf1NJupCfFDBwweBHLL5TDCxyQ47HiD17rjeIcR8oSXEYQUv2p0cP9k3I5gPZhuFftx2cHyvEsEKOeakEEctOsWD65ECN7e1gDID3Yq80cVJetICC4dReCR05Rl61y2EYPh2vVUnAWq/ySZSEinVkwtaZDPQiiiPDp8/Cv3wrE4mjhzDS8cMueB64gHzCZaMXUxAGZWD6lEA4L0T5IHfXEtiuCEYTUej50e7dKLkIkJuDnex7g0sNm6uKjXYQNHOaNzMXCMV5YTLJ0L9uJ6sOUCkEgL1QiWevbsBViIKT21TDl58Hz3nLwRUSVjsku68NqqTkLtTQ3EoV/yy4EDx8HbzLhruTAJiEfz9LzYMzLhsQZ4LAa8e7MYozqlU6KcFIu90BZIYwgpOazoru7Jk5pkpRI/nPX+SdYd6ISZqrMR3IRRAws8mDV9CLkp8t19amWLKQ7g33Li0Ddtk9q4ftqndz0JnkYHHY4X5sJ65SJNPGLlEGygyGgBQIKQRCbW9Dyq68Qu/8IgsmEI2IWDnG5EPO8MKR56DunLN+FH83vhTRHsjFTinq+GEHQYqWyMb+DACUINCseuFPlw892P0QgnEgmK0rwOCx4ZxoJM8iMnnkR9LOI1DySSJTWlYdOn6duXNoO12CAddhgOFcsgcHtlMMMKSIyox8LsZkQBEh4gVTZJB6Uo/m3qyH5Amg0WLFVzMNtSzaM3jxwdrmD7ILReXhjbD5NjCaMIVWJLSMI7NnRDQKyaJKEZ/4Y1p+swoV7TXKHQLnbKmYOy8aC0V547Ca13p59bLQ3n+q6FUVEzl2mpWNiOCKHGSTA6M2hYQZjrxJGELQ3V8rOgBAEMRCk6onBg0dpmdR1yY1tYh58nmzwOdmQjEZkOM34dF4p+uW7U77VPCMIKfu46O/Gif+AkIRYXMSVh01YfaQCwaggJysKEkpzHVS0pHeek2bKcxxzV+vFinL5mAShth4tv/kG8eoaeWrJ5k3ONxfCNmkc6+6oF4Ol2DwUL5fwpBYtn69BvLIKUc6IfUIOThqyweXkwJCWhrgIjC1Lx6rpxUhzkI1Iauc7MYKQYg+Knm+XBhhIRYMENPqi+MWeh7j3JAATLycrmnhg5ZQiTBlMerKThDfmrtaLPVUvQjwO/5rNvgTw+gAAIABJREFUCJ27JLtmiXKdgYN9yng4Fy0AZ0tWM7Awg15MlxLzoASWJNJeugYfCS8ICdTBhnVCAR5b0mH25gEOG6mrpuRg8qAs+t4hKTOp7KVkBCElHo/uc5NqNUNcwJYz1dh7sRZG+pQSwT4RE/tn4p3pxXAR6eWkqGIqP8B6sqwimhQ5c56KJknhCPUqEJua+/SGa/kiGAvz5TADS1bUk+l69FwU8kreE/5NO+DfdQCSxYxLUjq2iV7EXB4YvbkQeSPy0iz44fw+KM620xBZqiu3MoLQox+N7nlzCkm48OAZ7c8QDAuUySdEiWoi/HBeL5TmOOjfDCzMoAsjyy9hWXlZqHmCls9ImOGp3AJaEsF70qhoknXcSNoSmili6sJsKTEJURTlfJhoDM0/+wzRW3fhM1qxS8rDRS4D5uxMcBmZdPlOH5KNxePz6QaEElkWYkimjqfEUmE3qXcE2ior1jwLY92JKlx71Ey7rcnljRwWjvZi1vCclBYw0aMdlZ2aFInAv24LwqfOUZU68ubleAPs0ybDsXAODTNQ5w8LM+jRjD1uTnL1gkDVE0n+gdDiwz3JhQ1iAZosDpi8uZDsDnhsRrw/qxRDSjwwskopmSBJyhu5xy0LdkPdFQFFfCcSF3H8RgM2naqm4QWiwieKEopz7Ph0bi8UZNjICqba/yzMoA9rk90aUVKMnDxLOzzS5BGQShQBln594VqxmJaTsTCDPuzV02ehvEukUBihnfsQOnkOoiBgv5CD/VI2jC4nDHl5iBt4DC3x0MZw2W4Ly29KLgxGEHr6E9IN768tZ33wJIDPDz5GVUOIKirKegnAx3NLMb5fJowGUmufrFVmO1JNrU2TTGk1A5CoqELzzz+nuzXytpUEAcb0NLhXLoF52GA5GpHi7ltNjZUCg7d9jwh19Wj+2edI1NUhABO+Eopwj3PBkpUJLjODVkQtmSA3hSMKrrIQG6mUSu3usYwgpMCD0t1uUZZDkEWTfOE4tpyuxrEbDWpMMBYXMGlglpysaGXJinqyrxLvFX1+BNZtQeTKdSpdS4mDwQDnvFmwz54CzmqVhZRS/AWsJ9v1tLko7xDyiY9cuormX6+GIEm4KbmxScpH2GwDn+eF6LAjP91KS6j7F7iT+TGpXb2grAVGEHraU9FD7ketWxYlnLnbiA0nqtESilPhEhJmIJ3WiBehL9FEMHC0uQo79IEAJQnRGCJnL1DNe5IcRhITkRBgHTYQziULwXtzGUHQh7l67ixIiW1yoxHYshP+3YcQNFqwQ/LiMjzgHU5wXi9tzjRlUCYWjc1HupN0jJUhYeSV5SD03Iejm99Za7KihOpnEaw7VoUblc2UCJD/I8mKc0fm4vUxebRnA0dyEVhFg+ZWV926ogih5imaf/0V4k/rwPE8zU3gM9JpuaNl2GDqUWAvYs1N1mMnIIt3AWKzDy1frkXi9h3c4zxYLRYhYDCDz8yAlJkFt92It6cWYUzfDCbj/q3VwDwIPfbx6N431pYgxBIi9l6qxa4LT6nKIvmukI1BrxwHfji/F7I81pSXRNWTtdVqhmBIFk06ewGc2SwLJ3GAg4QZ5kwHZ7UwL4KeDNeD5qIkJxKhrujVm/Bv3A6+6Rl2i7nYKeXCbDbB4M2DaHdgYIEL70wrRkEmawT37SXACEIPeih62q20LXm8UenD10ceo7YpSr0H5ME3m3ja4ZEkK5K/KQ3XmGtQ25WgEgQhgfCx0/Bv2K6WNYrxOKxDBsL9zlIYsjKYB0FbU/XY0VVPFlH23LwL4VNnEYtL+Ewowm04YXY5YPDmgzebMH9UDu3xYjURTyQLVbZdFIwg9NhHpGfcGN0JAGgOxrD2WBUu3m+i/Rqo8AmAcf0yKPt3EmVFFjfUjdEVkkBa6vq+XAehoVEOKdAwQwbc7y2DuV8fgIQemN10Y7eeMhElvCDUNaLly3WIPXqMW3Bhk+iFHybw2dlAZhby0q1YMbUIw0o8yXXIcg8YQegpT0EK3IeiqkhIwdGb9dh6+gkC4bhKEDJdZnwypwT9Cz2KkB/bBWi8LhT3LjGI1NQE/469iJy5SOWVZVUEDo4FM2GbOgmcw07/zoSTNDZaDxte6b0QvXwNvtWbEAqEsUEqxA3JBYnnYSgsBOd0YkzfdKycWog02iGWVdWwEEMPexBS4XbIB4c0cHryLIyvj1TgbpWfSvqSw2Q0YN6oXCwem598wNkOQA9rQiUJsRii5y/Dt3knQHozcAZIogBL315wrlwCY75XVlRMyi/rYe5sDt0bAcXryCUSCOzcj+jBI7gft+ELFCMk8eDsdnDeAjhcNrw5wYtpQ7JpciKlrizE8JzxWYihez8LKTF7xV1Idp8bT1Vhz8XaZPmSzBL65bvwg/m95BIl5q7WzZpQwgzxymr4v1yLWGUNOCK9LErgLCZ4PlgJ68hh1Jb0xcxezrqxXXeeiLLuxIZGtKzdAunWbeyT8rAdeTBxgCEzk4YXSnLs+HhOKYqy7Mz7+HsMzghCd34SUmjuSt7B5UfN+OxAOQLhBP2ekGoGt92EpZMKMKF/plrNwHYC2i8OVeaWiCZt2YXw6fO03JFKYMXjcMyfBeei+a15CKzDo/ZG6+YzUMgBuQ0SXghs3ommBj/WoxC3RCd4ixm8Nx8mtwNTB2dh6cRCmE2kdbzcQIwdzyPACAJbEd0CASUruSkQx2/3P8KtKr8qgkIqGMb3y8DKqUVwWuUubNRhyHakmtqWEgHC4BIJhE6cQWDLbkixKNWrINUMlgFlSPvhB+DsNkjJPARmM01N1u0HVwlCMrwQPnwcl2MO7EAe/KIRcLnAFxYiK81G3xcjesm5S0xo7XebnhGEbv9IpMYNKLvRuCDh2M1GbD1djVA0QeOGpM4hL82KD2aWoF+hS90JsI+N9mujbTVDYP1WkHAD9SKIEniPC54PVsDYtzft+ijr37ODIdB+BJT1lnhah8C6rWi58wDbUIArkgeCKMGQkwsuNwejenvw/owSWv2kbCaYB+G7uDOC0P61yM58xQiIkkg3pA2+KH6x+xHK6wIqQbAYDVg4Nh/zRubByMvuQkYQXrGBfsdwCrETW1oQ3LEX4dMX5AoUmjFugG3yODgWzpWrGVgWufYG68YzaKviGbl8HeGNW3H/WQLruCLUSURCmQNfVATe7caKyfm0MRNtyMSSE3+v1RlB6MYPRKpNXSl5JPe95nglDl6uTVYzcDTcMLQ0DW9PLaR9GpRObIwkaLtKVJevKCJ88iwCW3dDDIVlTQRJAp+dgfQffURbQEs0T5Ht47S1WPccnSa60oiWRNdXaO9hhA4fx9FEBvYhBzHJAIPDDkN+PrIzHPiDBb1RkuNg4YXvMTcjCN3zeUjJWavyqRyHK49a8NmBR/AnkxVJA6d0lxnLJxViTJmSrMg+OJovFKVhDgfEH5TDv24r4hUkzGCg3iBIAtI+WgXr2FE0VEQ0EdjBEHhZBFTvgSQhUVGN4KZteHqvCltRgJuSi64rY24OjBnpmDAwE8smF8Nu4ZmnkRGEl11q7Pd6RkDxIjQFYvj80GNce9wMniMeBDnRaMqgLCyZkA8XET5hYQZdmFKVzA4E4N+0E+GzF+XkRcIPYjE4Zk+Da/li6lWgCWOMJOjCbt1pEurmgXiqzl9GcOM2XPKbsJPLR5NoBG+xwFBchMwMBz6cWUpzlXgi2c68Vv+mmZkHoTs9BSk+V6VeXhBFxBMSTt2ux5pj1UgIya5tooTCbDvenV6CfgVO2q+BCvAwt7WmK6dt6Vn42CkEd+6H6A/QygUIIky9i+D5+D3wmenMXppaqvsOrpbUBkMI7diHhiNnsNuQj3NSGiRBhCE9HUKuF2PL0vGDeb3l0ka2gfhegzOC8L0QsR/oDQElWbG2KYJf7n2Ex3Uh2qyJvCRIguLi8fmYMTQHFpOB7kZZVFt7CypiV4nyCvjXb0PscWVSPZED57TD9eZrsIweRdxAMCT7M2g/azaD7oCAqpxIwgs1TxFYvR537jdgM1+EJ5IVxC9FOjcm3On4YGYx5gzPVfu5sM3Dv21hRhC6wxPA5vgcArL0soRoXMTO80+w5+LT5L9z1JswpMRDa5wLMmyqOB97EWi7iBQvghSJUPGa0KlzVFGRhBWIbWxjhsO5Ygk4C2sBra2luufolIAmBESv3kDjmq04FrDhIHIRI0vMaqGdGzNzPfijhX1QnG2nN8neCd9va0YQvh8j9gsdIkA+OKSu+V5NAL898Aj1LTGqp07eEw4rj7enFWN8WYbcBlrpA63D+0iVKSl5CCTsEz5xBv7NOyGGI0mJZYDPyoLn41UwlhSqkLAXeKqsjo7dZ2sprQ+hXftRfuIqtkte3JWcVCXFkJEBc2425owpwNwRuVRMTYk6sjXGPAgdW33sbN0hoO5GwaElHMf6E1U4fqMeZiMpnQOImNKUwVlYMaUIruTLgL0ItDWjYjMS7iHhBd/na5Goq1dL0ziTCa7Fr8E2c0rr7o7ljmhrtG4wupqcSNS7H1ei5Yu1OPskjh1cPoKSATwJV+V5kVeUhT98vS+8aVZaYau8D9h7gRGEbrDM2RTbgwDJRUgkJFx40ISvDlUgHBNoLwbiWchNs+LTub1QmucATxq0sMz49kDcqeeoiWShEIIbdyB88QqkhKBWNFhHDIXrnbdovTp1ATObdSr+PfViNLwQj9NeH7XrdmCb6MUFKQ28RNyJDgg5eZg2sgDvzyyGiSchLRZeeNG1wEIML4oU+53uEJCIsiI4PH0WoW2gb1a2gCelcsnugG+M9WLmsBw4rTxT6dOB9dqKJkUvXoV/yy6ILT5KEEh5I5+TBc/KJTAN6KfakO3wdGA4HU9BJZ0+P/wbt+P2qZvYYOqNWskMI1HWyMiA1ZuL92eXYuKALHonrO/CixuUEYQXx4r9UmcIKNnLkZiAYzcasPlUNeKCSHcIpPKRJCN9NLsUJdlExpdmJbGKBo1tSHowEEIgtPjg+2otorfuUsll6jGwmOGYMRmOBXPkDo+sRFVja+l/eEo6RRGJikrUfb4eh55IOGTIhSBJMBhNkHJyMWhQAd6ZVoyCTBtVXmUE4cXtygjCi2PFfqkzBGStHYnuNh/WBvHVoccorwvRUkf6bxywamoxZg7PobkJHBFG0dk9pNp05GRFmSQEt+9FYOd+td0zwcJS1geud5eCz8pkBCHVFkc77peGF2JxhI6dwv3tR7EunodKyQqerDKHA5YCL5bO6I1JAzNhMxupOBI7XhwBRhBeHCv2S50hoCr0SRICEQHbzlbj0NV6eTfKAbGEiDF90/HvXuvDYo96sR3hBjQwBERv3kHzL76AFI/LsyO9GdLccC1bBMuo4SzMoBeb6XQeoijSdUTCVC1frMOxWw3YwhXSEmjiJRDTM1A8oBifzuuNomw7zU9iIauXMyYjCC+HF/u1DhFQSh4vPmjCuuNVeOaP0Uxl0p8h02XBx3NL0SfPCZORqadpbr4kQSDzEBqb4Pt6HWJ3H6oEgfRosE2dCOfrc8FZrcyLoLnB9DsBShAEEbHbd1H95SZs9HlwGR6YIUIymcHl5mH25D5YNM5L2zoz5cSXtyUjCC+PGTtDRwi09SKQNtDrjlfTqgaiiaAEFMb3z8SKKYW0/llOjGduRq1NKAoCdQ1HzpyHf9seSLG4XM0giDD3KoZr5ZswFhfI3iBWzaC1uXQ3vpJ7IEVjCG7bg0tHr2KtVISARIILgGR3IKtvMd6b1xcjeqWB4+SYI/MgvJwpGUF4ObzYr3WIgJLJnBAlHL3egK1nqhGMJKibkbwWXDYj/mBBH/QvcNH/zXYS2htRecELjc/Q8ssvEauslokAcQ+7HHAuXgDb+NGQeNZxT3tr6WsGbTU14tVP0PjlBmypEHCay5SpP8fT6oWx4/virUmFtOSZlTa2z4aMILQPN3aWzhBQKhoe15FkxQqatEgVFJOSzCumFmLR2AI1/s12EtoasO1L3vf1BgSPnoLBbKJ5B8Rmjonj4Fg8H5zLyTwI2ppKl6OT5ETyDIePn8adDQfwZcyLBslMlRNFswWO4nwsm9sPUwdlw8i6NrbbhowgtBs6dqKeEFAIQjQuYOuZGhy+Vkc7PpKDlDwOKXHjB/N6wW0zsd2ETgynNHCKnL2IltUbqJY+eelLggBTYQFcby+BqXcpy0PQib30Mg2FRIqxGFq+2oB9F2qwV8qFSPYDxIfgcqPv8N5YNas3euXYKWlgJbPtsx4jCO3DjZ2lMwQUgkCmda28BWuOVqKuJUJnSdyLLpsJyyYXYGxZJogis9yfgeUiaGlG5UUvPK1Fy+drEX9cBaWhBtFEcC1ZCOvEsYCJaOez+LGWttLL2PQ5FyXayl0of4xHX2zF6jorHsAOml7E8zB7czFr2gC8PjYXdgtLTuyI7RhB6Ah67FxdISDnIgCBSALfHK3EuXvP5FI5mujGYWiJBx/MLIHHYUoSB0YQtDQg9SAQm4XCCB06huDewzRHRHb7CLCOGg7nkgXgszJklsc68GlpLl2MLZNKQIrFEN+9D4cO38LmaDZiHGnqzAEWM/IH9cby2WUY1stDvQckWZmFFNtnPkYQ2ocbO0uHCKhSvhyHYzcbsOZoBSJxuVaaHE6bCR/NKsGI3mnsY6MT+1GSIAiIP6xAy2erITS1yF4EQaDEwP3ucpj79SEMjzp82IteJ4bTaBpK1ZJQW4+GL9Zh9SMJV+Gm3kCJ42BIS8PEyf2xfFoxPA6z/JwzYtluazGC0G7o2Il6RIBK+QJ42hLBr/Y+wuPaIP3ftHqBA2YMzcHSSYWwEE0E9sHR1IRKWIgTJYh+P3zfbETk4jWarKj0Z3AtnAPbjCmAjWSis52gpgbTeHClWok8uLGzF3B+3SFsCKajCSQ5EZBMRrhKCrF8/kBMGZhJ14scSWSewvaajhGE9iLHztMlAspLhLR83nP5KfZfrAXp1SAmWUJRlh3vTC9Cv3wXDUcwkqCtGdV2vYkEzUj3bdpJtfWJYYjCoqVfH7jeWQqjN5clmmlrKs1HVzyEUjSKhs17sPZYJS5LbgjUtQRwTif6juqHD+f1RkG6TZ4v67/SIbsxgtAh+NjJekNA7e4G4MmzCH67/xEe1QVlTQQJsJoMmDU8B6+Py4eZuLKZ+1FzEyov/sSjCrSs3oh4VQ04I0+JgsFqoaJJRHoZRp617dbcWtpNQBVHKi/HpXWH8GU50MxZkrnGHOyFuZg/ZzDmj8xVpdXZ890xezGC0DH82Nk6REBxXROp5Q0nq7HzXA1MJiLCQ1KWJPTNc+DdmcUoznKos2exbW0MqcSUaUjBF0Bg3yGasAiDrIhHchFs40bBuewNukMkO0LWjU8bW2k5qpKcCCGBwJET2Lr7Bg4GnRBIbgpJRLaY0Wt4GT5ZNBj5GRbWd6GTjMUIQicByS6jLwSUD8/1Ch/+184HIPoIJJxAGrk4LEYsHp+P6UNyZElmFtvW1HhqcqkoInb9FnzfbKLtoGnLZ1EEn5kBz0dvw1haTEWTmPSypubSZnBJAu0U/qwR9zbsx9orzXgo2eUQgiTBmJGO2XOHYtmUYvC8LLLOSH/HTcUIQscxZFfQGQKt/RkAXzhB20BfKW9OdhmWaD4C0WdfMbkQOWlWOntZF4EdWiGghIaE+gYE1m9D9PottQ00+QA4FsyGfeZUwGqRSQJLPNPKVJqMq5DIyI3b2Lf2OHbX8wgbTCAtFiSDAVl9S/DxsuEYVORmaqmdaCFGEDoRTHYp/SAghxkkJAQJt6v8+OLgYzQFouA4AwRRQrrTRKsZxvfLAJ/MdGYfHe3sp2aox+OIHD0F/859II14CBmgyoq9iuF5fwV4bx4LC2lnJk1GVtdGJIKqg2ewZu9d3Ixbqb4BrU6y2zFp5lCsnNWbdW3sZAsxgtDJgLLL6QcBUSJCPBwSgoif7X6I8/eewWwkgiqgXoQpA7Pw5sQCpNmN8q5UP1NPuZmouQgA4vcfwrduKxKV1bIXgcSYjTzcK9+CbeIY+aPAOjymxBppm6OSqKrByQ1Hsf52CD7eIisnEn2Tgjx89PYoDC9NV0OG5O+M8Hd8iTCC0HEM2RV0jADJOSBflMPX67D6cIWqhyAIErwZNqyaXowBhS7wyRADe6loaEwaZ5YgBYII7NiL8IlzACF5NHlEgG3sSLhWLQdHdBJY3oiGhnp1Q6uljYkE6k9fweYtF3E6ZIXEGcBLIkSLBcMnDsSHCwcizcEkuTvbMowgdDai7Hq6QkCpaKisD+Hzg49RXhug+QaENxBSMG9kHuaMzIXLSl4ubNehpfHa7hYj5y7Bv2kHRJ+fJIhQL4IxKxPuD1fCVFJE484G5kXQ0lxdPnZrLpEEsakZlzYdwdpzdajl7TBSWXUJttwsvL1sNCYOyqE9VljCceeahRGEzsWTXU1nCCj9GUJRAcdvNWDL6WrEE6RVLOnyKKE424F3pxejj9cp67aznammFlQ1EWrrEFi7GdG7D+l8aPjHZIR92kQ4XpsNzmplXgRNLdX1g6siWqII352H2PL1MRxu4CHyBhgkIC4Bg8YNwMdvDkVuGlHaZAS/s63CCEJnI8qupzMEJCrMRzwGNc/C+PW+RyivC8LIy14EQgjenJBPxZOI/DLblWprPnXXGI8jtOcgggePgyjn0WRFAMa8HKR9vAp8fh5r4KStqbp8dFX0zOfH/YPn8MX+h6iQbOCTLb1Eux0rlo7F7LEFsBh5RhC6wCKMIHQBqOySekJA7vBI/j8cE7DtTA32XHoKYzLngEgyDyp24+M5pchyW9RERZaLoJENk3kIxGMQu/sA/jWbkaito0SOJifyPNwrFsE2ZaLa+ZHZSiNbdfGwpK8K+b/go0oc+vogtlUBcZ60byalyhy8/Urwo5UjUJrnkskBS0zsdIswgtDpkLIL6hEBUtFAhFauPmqhraAbWqJUUIUKJ1mNeHtKEcaUpcNEmjixF42mJlTCDGIojMD6rYhcuALa9TEZarCOGgbnisUwOJwgknmMIGhqri4ZXFFOlIQEHh06jzVbLuO26ICRNGWSJBgcdsxfOBLzJxbDZTUx70GXWAFEhIrsrdjBEOi5CCiJimRH8iwYp16E4zfqKUEg+w5CEoaUePDhzBKkO83sZaODpaC8liInz8K3eRekUEj2IkgSVVZ0LX0dliEDIVGCwHpq6MBknToF8kwSESQhHMLBX+/G2itNSJgttC+rKEjI7eXFv/tgAnp7XaDBJ5Y71Kn4KxdjBKFLYGUX1RsCSrJiQhRx4UEz1h6tgC8UpxUNxLNgNxvxyZxSDC31yLXUTBdBOxNSkSu5R7dYX4+WbzYiRpIVk7K6JFnROnYknIsXwOBwyJ38mLKidvbqgpGJx0iMJ9Byvxy/+eIULrVwMCU9SAneiGmzhmD5/AFw25j3oAvgVy/JCEJXosuurSsEFE9CbVMEa45X4urDZjkpkQMVU5o6OJvKLzutJOFJlk1iHx4NTKgSBAmSICJy4CgCu/dDiieSxEGiyYrud96CqW+fZIkDs5UGluqSIelzKkqItvhwbetxfHG2AX6Opx4F0oDNlZuB95aNxtjBubQpE0ss7hIzyO8/FmLoOnDZlfWDQNtIWiwh4uj1ehpqCMVoN3mqrJjpMuODmaUYVEySnljXQK2tRz4SJLtUqK5By2drEH9amxRNkqhYkmPeDNjnzKDljyxvRGtrdc74ahULgNrb5Vj9q8O4FpR7b9BkYwOPMZP6Yelrg5GXbqPhQEbkOwf733UVRhC6Dlt2ZZ0hoHgQyDa0siGEdceqcKvaJ+ccSCSWLWHyoCysmFIEq4mVTWltPlVFLxZHYPtuhI+doe2fafhBlGDp3xeupW+AL8ijf2M7Sa0t1jnjyyRBwqltp/GrLTchWMxU90CQJLgy3FixdAwmjsiHkTbtYp6jzkH9d1+FEYSuRJddW3cIKLkIpLxx/5Va7Dz3BJG4QHXdyWuJlDp+MrcUffOc4AzMi6CpAakDQRaxiD0sh+/L9RAaGpNeBBG8ywnH63NgmzReVltkiWqamqszBpfDCyIS/gB+88vDOHK3GZZk+2ZS2jh4eAlWLR2F/CyH3KqJ2bwzYP+912AEoUvhZRfXGwJtQw0Pnwbw1ZEKPK4lGfLyTIn88rSh2XhzQgFszIugqfnaSi9LkQj867YhdPIMOCMpdqP1brCOHAbnWwtpZQN1Ncv+Zk3nzQZvHwKKMJIQS+D+qWv4zfZbqAtL1Kbk3+xOG954fQTmTO5Nhc6Y6mn7cH6ZsxhBeBm02G97BAKKF4F4DogH4dC1OkTjcp09OXLSrPhodgn65btkcR6WrKiZ3ZUwA5HDjFy+Dt/na2j756RWNvjMNLiWL4Z56CB1N8kSSzUzV4cGloWRAH99E1b/6hAuVAchJIvwSTpK/0GFWLV0NIq9co6QzAUZGewQ6N9zMiMIXYkuu7YuEVAlXAGU1wbx1eEKVNSH5J0KkfPlOcwZkYsl4/OpR4G9jLQ1IxG5ojXxDY3wryYljw9kgkDc0RxgI/0Z5s2Ewe1mttLWVO0eXe27wHG4fuIG/tfqCwiK8sefpCRYrCYsfH0EFswog9nIM3LQbqRf7kRGEF4OL/brHoKA8kJKCBI2na7GgSt1tISKo5FNCaU5Drw7oxgl2Y5keJvtVLQyvZqsGI0hdukKfBt3QIxE5ekIAoz5eXAtXwRzv7JWTQS2s9TKXO0aVw0vhMJY+/Up7LlYDQPJL0iS9uKSHHz47nj0LkpjHr12Idy+kxhBaB9u7KxujoASZiDfkduVfvx6/yM0BWLKxhRWkwGzR+RiwWgvzER+mWVLa2pxShJEEUJzC1p+sxqxew9gMJmSXgQOzgWzYZ89DTATJUzmftbUWC85uEIOyGkPrzzAFxsu4fGziEwESBNPsxkzZgzAWwuGwGySSx5ZaOElQW7nzxlBaCdw7LTuj4CSBBcyF6fHAAAgAElEQVQIJ7DhVBVO326EkAx6klBD7zwHVk0vpt4E5WAvpldvd2InWgdP+jHE4wjuPYTArgNqzoGUSMAyoB9c77wFPjtTll8m/8e8CK/eWO0YUXkOo8Ewtqw7g0MXqxAhaSbElydJKCnOxrtvj0NZaWYytMByD9oBc7tOYQShXbCxk7o7Am0FWUho4d6TAG0F3eSP0VsjG1ar2YDF4wowZ0QODTOQVxb76GhjeTVGDSB+9wF8X61HovGZXN5ICITVAs+KJTAPHyJ7EZLdOpm9tLHXy4xKQ3sc8PhWBX751RlUNobV54zYfc6cIVj11ig51McSE18G2g7/lhGEDkPILtCdEVDEkyIxAauPVlAvgtJHmHgRhhR7sGxKIQoybfLuhb2gNDO3mlza3ILgvkMIHT9Lww5KEydL/z5wLVsE3psHiSlhamanlxlYzi8B4pEo9uy4hB1HHyCSaK0ocjrt+OHHkzB8kJdVFL0MsJ30W0YQOglIdpnuiUBr/JPDlUfN+PxQOfyhhCy/LAFOG4+3JhZiyqCs5yoauufddu9Zq7YSRcRv34VvzWYIjU1J3QOyCzXA9c5S2CaMSXZ5ZB4fvVtcsWn1wyf4as053K7yyaEjoozJGzByeAk+fGcMXA6L+ne931NPmh8jCD3Jmuxe2oWAkrDYEopj7bFKnLnbSMkA3dxIEkb0ycCKyQXITbOq12eu63ZB3fGTSGmjJEFsbkFgy26Ez12UCQLJUYjHqXCS571l4GiXR0YQOg5411xBDfFJEuLROA7tu4btB+7AHxNoAyby7GVnufDhqvHoX5bLhJG6xgzfe1VGEL4XIvaDnoxA64sKIK2grz5qwWcHyxGOCvS2yb+77GasmlaEUX3S6YuKhhpYApxmy4ImK5IujxcuI7BlJ4QWXzIXATC4XXCvXALzoAHgSBMnOXmEHTpBQBRFhEIhVFdXo7GxkT5f/uYwjp+sQkWdAKPJREMJ0aiAaZPK8MkHE2BSq4iYLV+1GRlBeNWIs/F0iYDi6mwKxPH10ce4/KBFTkxMNomZNCALiyfkI8tlYR3kNLagoosg1DcisHUXIpeutVY0cBwsA8poK2hDehrzImhsq7bD19TU4NSpUzh27BgePXqEhoYG+s+EDPiDBjhcBSgoGoy0jEIYjRb86OPJmDiuFyURrLRRG0MygqAN7mxUnSHQVjjpwoMmfHO0EoFIgjZxEiUJbocZb08twmjmRdDccgpBICJJkbMX4d+2G6IvQL0F9N9MJnjeX07DDTRZkXkRNLVZJBLBmTNn8NVXX+HEiRO4d+8e4vH4d+ZkttiRkVmM3n3H4/WFS/DJRzORm+NhhFxD6zGCoCH4bGj9INA2Jtrgi+HrIxW49LAZZqMcUiDdHycMyMK704rgssnNgliYQTv7tXoRGuBftxXRW3db5ZcFAbbxo+B+Zyk4M0lukxs4MXtpY6/t27fjH//xH3H+/HkQsvB9R3p6DpYvX4Wf/OTHyMvLYcJX3wdYF/47IwhdCC67dPdCQElWjAsiTt1uxLrjlbSJE0k3ILXaaU4z3p9ZioFFLpiT3eQYUdDGxm29COFjpxHccwhCIKCWPPIZ6XAT+eUhA9UkRkYQXq2tSL7B1atX8Xd/93fYuXMnotGkPPb3TIN4fLIys/FXf/1X+KM/+kPwPM/I3as1nToaIwgaAc+G1SsCEimtx5OmMNYer8S18hbwSRc1CTWM7JOOlVMK1VwE9tHRxo5t5XnFugb41m1B7PY9eTKE0Rk4WIcOhvvdZeBsVuZB0MBMwWAQ//AP/4B/+Zd/gd/vf+kZjB49Ghs2bEBhYSElCex49QgwgvDqMWcj6hQBORlK9hbEBBFn7zRhw8kqEClmpfTKZDLgg5klmDggk5ZisR4N2hlTEdmRRAHhQ8fh37EPiMWSuggA73bBtWIJLCOGyCI7LMzwSo1F8g3+8i//EqdPn5ZzQ17yyMzMxKeffoq//uu/htvtfsmz2c87AwFGEDoDRXaNHoNAWwnmp00RqotwtbwZBqrvDxpymDAgEz+c1wtGA2kcIwv0sEMbBBR7Japq4PtiLeLVT5P9/4jSjgG2kUPgXP4mOKedEYRXbKJf/OIX+Iu/+Av4fL52jUy8BgMHDsTBgweRnZ3drmuwkzqGACMIHcOPnd0DEVArGkTg+M16bD5djWBYUGT/4bGb8MGsEgwsclNdBNKWVvZss5bQr3o5KLkIUiyG0P4jCB0+ASkSod4dcvBpbriWLIRl9AgadmB2enUW+qd/+if8+Z//eYcGJOGFCxcuICcnp0PXYSe3DwFGENqHGzurByPQVjyppimM9SeqcL28Rf24kM9M3wInPp5VimyPJYkEyZLvwaDo+NaocJIkIVHfCP/X6xG7/0gNM5CmTZZhQ2iPBkOaWyZxzFCvxJo//elPqQehIwcjCB1Br+PnMoLQcQzZFXogAkpFgyBKOHajHlvO1NBcBBpNkOQ+DT+Y2wuTBmaRprTJ9sI9EIhucEtqRQPHIbT/MPybd7XOWpLAezxwLnkN1jEjgGSyG/P2dL1hGUHoeoy7egRGELoaYXb9bouA4kmobY5i9eEK3KiUvQjkSAgSxpSl48OZpXDajazLo8ZWVmwlVD9BC81FeEJtovzdOmIInEsWwpCVwXIRXpGtGEF4RUB34TCMIHQhuOzS3RsB6kUgSoqihCPX67H9bA38EbnTIzlILsKSCYWY0D9DbSbTve+4+85ezUWIxhA5d4lKMIvhiBxOEEUYXE64liyAZexIcMSLwCoautzYn3/+OQ0x1NfXt2sso9GIAQMGsCTFdqHXOScxgtA5OLKr9FAElFBDYyCKrw9XUF0EctBQNjj0y3fhw9mlyPKYmRdB4zUgSiKN/UiBIHyfrUH0xm3asElJOiW6CK6lb4DPyUzakCWNdKXJSHkjIQik3LE9B0lM/NM//VP88R//MZxOZ3suwc7pIAKMIHQQQHZ6z0ZAIQjEk3D0eh3WnahGNC5QckCSEWwWHssnF2HqoEwmCavxUlBzESQJ4RNnEdi4DWI80epFcDrgenMhrKOH034NSrIiy0foGsO1tLSAVDL867/+K+3c+DIHscmMGTPw9ddf0woG1k/jZdDrvN8ygtB5WLIr9UAE2gq8kB4Nv9r7AA+ehig5UErpRvZJw6ppxUhzyB8dWfqf7U61WA5qj4Y60qNhCyI37sBg5GmoiDR3sgwdJFc0ZBNCR+zENCy6yk6SJKL8cQX+9//0Y2zYuAGJROKFhiJkwOVy4Wc/+xnefvvtFzqH/ahrEGAEoWtwZVftQQi07fR4+m4jtpx+Al8oRu+QkASPw4Q3xuZjyuAs8Aaii0D+hRGEV70ElLbApAcAUVSMXbsJ39qtEIIhkHJHEn7gbBbZizBmJGAxM69PFxlJrQISEti+YSf+y9//37h77zpiseC/qaposVioONKf/Mmf4I033mACSV1knxe9LCMIL4oU+11KItDWg0D+eyQu4ud7HuLKg2aamEh2piSVcXChB+/OKEFuukWW9WVeBE3Wi6phIYqQfAH4125G+OJVmotAbCLGYrCU9aE9GnhvLktW7AIrte2MKkRj2L75PDbuuYJz5zbj8aOziEVDEEWhVfESAElIJORgxIgR+MlPfoKZM2ey/gtdYJuXvSQjCC+LGPt9SiKgVDSQmz9+owGfHyhXnQSEEDgtRiwc68X0IdkwmwyMIGi4StRchISAyJXr8G/cDrHZB/AG6vIhVQz2udPhmDMdnIW0g2atoDvTXPKzIkESRNy99hjrtl7Ggyd+xKJBNDVW4Wn1DdhtITjtcniHkIPS0lKMHz8ekydPps2ZrFZrZ06JXaudCDCC0E7g2Gmph4CyM2rwR/HZvnLcqSEd6uRkRVIK2a/AjZVTi1CSbad/Zl4EbdaI6vWRJIgtPgR37EP41FlIIL0zAKK8aMzJhufDlTAWFVDxJC7ZsVObGfecUdv2Mgk+82PbpnM4fLEa8WRjMyIwlpHmwPvvjMPIYUUgeQqsiZZ+7c8Ign5tw2amMwSUuGpcEHGvxo/PDz5Goy9KX3AkF8FiMmDBmDzMHp4Lq5lnBEFD+6m6CKKExN378G3YhkTNU9rASU4g5WAdOwLON+bBkJ7GvAidYKu2oQVSPXLz3D18s/Uqqn3xpMQ1QHwG0yaXYeniEXA65BwQltDbCeB30SUYQegiYNlleyYCCkkQJQmfHyzH0ev1MBHXNUmSFyX08TrxzvRilObYWRMnDZdA24+VFAojfOAoAoeOA3H5Y0X+3WC1wr1iMSzjR9OZsg9VxwymkjIAzVV12L7pPA7faoBISBlkEp2d7cKn709AWZ9s+nwwgtAxzLv6bEYQuhphdv0ehwDNkgeHK+XN1IvgC8ZpO2jygjTyBswfnYvZw3LhtBqTpXSsokGLRdA21JCorIJ/w3a5kZMSThBEWAb3g+f9FeBcLvnvSmdOLSbczcdUqn3ESBQXD17B2r23UR8zyKkfpLOmyYT5c4dg4ez+sFmMVNtAqTzp5rfeY6fPCEKPNS27sa5CQHkRNocS2HvhKQ5eq4NEgqtyJR286Vasml6M/gWu5C5JngnboXaVRX73ddt6ERBPIHLiNAK7DkIMhVQiYLBZYZ85BfYZkwGrle1o22mi1pCOiGeParB+zWmcrgypIR0hIaJP/3x89M5YFOa5KaFmOTrtBPsVnsYIwisEmw3VcxAgSYkkzFDZEMZv9j9CZX2Ieg/IkRBEzB6RiyXjC+CwyDFvRg60sX2rFwEQnzXBt24zlWCWlZPkg0/zwP3BCpj7lSWZHCNzL2Ot1tJSCfHmFlzadQZfn3yCFomXHTISIBmNWLlsLGZP6gWzkT0TL4Ovlr9lBEFL9NnY3RoB8mIMxQTqRdh18QnpCURfiCQXIcdjxfszitG/0E31EpgHQTtTq2WPooTolau0HbTwrFmdECFv1gmj4Vz0GjiXk4kntcNUNOwmSqg6dx0bNpzHlaCJCobJOiEG9B1SgveWDENJnpu2TGeEuR0ga3AKIwgagM6G7P4IKLoIJPHqwdMA1h6tpP9pJG9FkgQHYHxZOlZMLYLbZgLHSUzWV0Ozqy7waBT+TTsQPnMBnCCqolYGtxPO+bNhnTSWlT2+oJ3a5niQ/y4Ggjj82z1Yc92HuMkMA9FDkCTYM9zUezBuSB7VCCHJiYwwvyDIGv+MEQSNDcCG774IKLkI4Zgot4M+V4NYnCQwyofDwuP9mSUY3jsdRnXXRMIN3feeu+3Mkx8rMv/4owrapyFeWa1WNJC/m0tL4Fz2BkylRayR0wsaWk1M9AfQdPQ0fnvwMa5GbDAlYziCgcPwcWV4d9FQ5KSxHI8XhFU3P2MEQTemYBPpbgi0TYKraAhj7bEq3K7yUdcqScEiOQpDSz00YTHbTRT75L8zgvDqLU1TDoi7h/x/QkD4xCn4t+2FFIspfnAqx2yfNgH2uTPBOR0s1PA9ZlLIAVnQ/ovXceTL/dgVSUOY48FJAKHKrtxMLF88ApOGeal3Tan2YSGGV/8MtGdERhDagxo7hyHQBgHyoownFC/CEwQjctc64igwGXm8OTEfs4aRlrWskZOWC+c5hUWfH/61WxG9fhMkeYQSCKKwmJlOcxHMI4dRSWZK6hij+47ZVHJACFeLD9e/2oHfXAmgyWQnigfy6jebMWbyALw1pz/y0pKS1qyaR8tH4KXHZgThpSFjJzAEWhFoKy37tCmCjSercOVRs9oKmvyyJMeOD2eVoiDLRsR+mTaChgtIEbriBAHx8kr4129GrKJaJgNJL4Nl0ADa8ZH35sghCPZRe85ibStDpEAAob2Hsf5kBfZHPDBJSbJlMCCrxIvli4ZiVFlWmxAbI1waLv+XHpoRhJeGjJ3AEHgeAWU3RT4kZ+8+w/rjVWgm4knJXAOeN2Dq4CwsHp9P8xJY2aO2K0itahAEhA4dh3/LLnlCtFGDBM5shnPudNimTgDnkEMNjCR8d82Tv0QvXsXVb/ZgfSADdZyZhhYkDjC5XZg4dRDemtEbHrvcSZN5YrRd9+0ZnRGE9qDGzmEIfAsBZVdFiMHGk9U4f68RcYFULshh73SnGe/OKMaIXmm0052ci8CyFbVaSKRhEzmEunoEtu5G9NpNuV6f/FEUwWdmwLl4PqzDh5J2gyzUQFM4yLqV1zNtUFZbi+oNu7HmRhB34ILIkbwb0p7RhOLBvbDytYEYVOxmjcu0WuSdMC4jCJ0AIrsEQ0D2TktUA+FeTQDfHK1AdWNYafZIicLYskysmFIIj8PEdlRaLxlSlkc+eAkBiceV8K3ZiHjVU3BGnn4BSV2/ZUA/uFcuBp+T3abJk9YT127853I4gmFEd+/D4ZMPsTmSiZjavtQAa3Ym5s0ZjAXjCmgDM4UGM0Ksne3aOzIjCO1Fjp3HEEgioL44k7urhCDRkse9F59SwpBM2YLbbsKicV5MHpQNnkjNsgQ4zdaQ0gOAeBKkeBzhw8cR2LEfkiCo3TkJWbCOHwnna3Ng8LhTmiQ8J1tN8jdOn8fjnUexvtmFu3CqdjQ4Xeg1rDc+mN9XbnuePBg50Gypd2hgRhA6BB87mSEgI9A2WZH8byK9/NXhCjysDchxWbmfHfoXurBiShGKsuzUu6CIxjAcXz0CKrETRSTq6hHacwiRC1cUH7rc8dFsgmPxa7BNGgfOZErZttAqVoKI2L37aNm2F/vLozguZSFEmzgDnNGI9N7FmD+jL2YMyaaSyvTv7QylxSNBBEMRCBIH3myFw2aBFA8jFI5CAA+rwwmb2ajm+rz6FdTzR2QEoefbmN3hK0Kg7S4rLko4c6cRa45WIUrFk2RPAnlpvj7Gi7kjc2HiW/MQ2vsSfUW31qOHoXYju+KKKvjXbkHscaVa1UA8CiZvLtLeXwlDcQE40rpY6QZJzmvnx6/bAJq8RzmxExAaGhHavAN3rzzCOqkQtZJZJU1SegbGjO+Dj2b3goN2Mu2IYmIM59b+FD/9l3W4G3Ki1+yV+LNP5wMXv8E//3wLKrk+WPaXf4dPZpYhyyYTEXZ0PgKMIHQ+puyKKY4AdVuDQ0sojm+OVOLSwyY5+Y3GvYHSXAeWTS5E/3yn3NWup39kdLwengs1xOKInL2I4J6DEJqa1bbQhBCY+/eF882FMHpz5buR40NqfF3Ht9ihqSnrlnQrlfx+RI6eRMORs9gbduMsMhCXkl0ZPR7YivLx4dzeGNs3XcWmPWs72lSOE2v/B4439cfIqaPhfHIGW3/1cxzzF2HUtMmY2NuIE+vX4RDewi/+5YeYXpaJZJFqh+6VnfxdBBhBYKuCIdDJCLQte7z52IffHiynZY/0m5LMlJ89LBdvjPfCaTWqo7fnZdrJU0/Jyz0XXw+GENy1H6HjpyEJcqUDzdwXRThmTIZj8QLAYm5NMu2h5E7BhNy7kswZuXQV/vVbccNvxBYuH00ww0BaMVksMBYWYNSQAqyaVki9ByTHpr1H1cn/iVV/W4u/+X//CPP65yBw7xg++9sP8Z/ODcSf/x9/i3n+r/A3P/0aZzP+EOs/+4+YMyAbrU9Re0dl5/0uBBhBYOuCIdAFCCiCPIFIAjvPP8G+S7UyQSCldRKQ7bHg7alFGFLioRK0LGGxC4zwEpdUpZhJPkL1E7n08c59WvKohBEMDjsc0yfBNn0yOJu1R/draFuxQKSp4w/LEdi6C0/La7ET+bghueRcDYsFXHY2Snrl4KM5vakYGE3ATWL/8qRXwO2dn2GDMAOfzChGvsuAqrOb8dN//yPs9H6An/zX/wvzcRLbD12HOOANvD6xD7IdzH/wEkv9pX7KCMJLwcV+zBD4fgRad6Ty7quiPoTf7C9HzbOwnFBFYrmShIn9M7FofAGyPWaarPjyL9Pvnwv7xYsh0FrjT6kColevI7BtHxJP62RWRw5JBO92wbFoAWyjhgHmnpm02DbsQghSouYpJUyBm3dxnsvCXjGHJiYSGmDIzgIyMrF4QgHenFAgexvaQN7hNS2FcWn7f8P/9sH/hOXtv8Z//el/wMjWookXMy77VbsRYASh3dCxExkC/zYCihchEhdw4lYDtpyuQSQmyN8aAFajAUsmFmD6kGyYeANrCa2DBaWoLJLSx8jxM/DvOgApHE7WoMjkwZSXB+ei+TAN6gcYW5UxlQ+rDm6j3VN4znMgSZQgBfccQOTCVTyGA9tELyolKyW6Bo+Heg/KStOxaloJCjPlbo3k6DAxSN6BGG3Crn/9ET75+7tY8lf/jP/2Z7OQ1u67Yye+LAKMILwsYuz3DIEXREB52ZJdVaMvhtVHKnD5UTOMvPwSJXoJvfOc+HBWCfIziWtW6fbY/vjtC06N/ez3INBW00JsbkFo7xGEz16EFI2opazkVHPfXnAuXgBjaZFc2UDkmMnuuRvnJHybHIgtfgT3HkT41DkEExz2IxenpHTappGz24HcHGRme7BqRjEGFbphMpJmZB0lCAIaHl7BmWs1KBk9GWUuH/6/P16Cvz2bhR//9Lf48euFpGE3aq6ewW2+DKP65iDNwp6XrnqgGUHoKmTZdRkCbfQRCBk4f+8Z1p+oQnMolnyRyt0dJw3MwhvjvEh3mFkugg5WTVt9BKHZh8C2XYicvUSJgPpvvAHWIYPgXDgHfH7ec70auitJeI4c+fwIHTyG0IkzEMMRXIeHeg9aYARvscCQkwPR7sCcEbl4c2IhrEQxscPCXxIQu4Pf/pf/E//P+gtY+De/wF9Nb8Yfv/4fcNQzHX//y1/ivYFmCM1X8OV//wZPx32Ej2YMQJ6NEYSuemwYQegqZNl1Ux6B5xUWJVrJsOdiLY5cr6Peg2Q6AtVGIH0aCFEgX5qOv2hTHvoOA9B2Nx1/VEET9EiiHu1DkNQE4MxGWEcMhmPuTPB5ua1lkd3Mi/DcOiVJmdEowsfPILD/CKRgCA2wYLOYj/uSgwpHGbKyIbpc6O0lol+F6EvKdSk56KgegQQED+E/v/uf8cs72fiTH3+ICY2b8be/vID6tFH4s//+z1iR34CTO77BsfoiLP1oJUYWemBi/KDD6/33XYARhC6Dll2YIdCKAAkzkBfxo9oQ1h6txP0nfprtTb43giDRpjY/fK033LbnO991191oT7E9beokKP0aNiNeWQOYjLS6gRI8noNtxFA4F70GQ2YGve3u1P1RTUikpEeCFIkgdOQUwkdPIeHzQYABR6RsHBCzIfE8DFmZkNLSYbUYKTkY3z8TVjPfgaqFb60UsR67/8ff4cc/OwRn8SCUDZuGWSONuLNjE07UmpGVV4D+oyZh3mtzMa4sD9ZkuK6nrDe93QcjCHqzCJtPj0OA7tCSMep4QsSxG/XYfu4J/OGEKhNrNfKYMjgLC8d6WUtoHayAtjoA1GmQSCB6/goCO/dBaHwmhxvIPEnegZGHbfQw2OfOAp+b3aosKLc91G1ewrfJgRgMIXLyHIKHj0H0BWjS7D3JhU1iPho4G4zpHnBZWZQojC1Lx9KJBchyy4mJnec0ERGor8S98mpEYYMzpxSlWQb4n1SgqjEImJzIyi+EN9vDyMEreE4YQXgFILMhGAK0oiEJQ6Mvio2nSEtoorAoqeJJVhOPT+aWYmSfdPnDouOPS6pY9DkRpXAE0UvX4N+1D2JTi9y8KUkSJN4A+7iRcLw+Hwa36/meDZ339ew02NuGFajnIBhE+MQ5BI+ehNjio+NEOSM2iV5cRhp4txuG7GyIRhNy06xYMbUQQ4s9SSVQeVrM29Vp5tHNhRhB0I0p2ER6OgJqVYMo4XpFC9Ycq0Jtc0R1z4qihNF902k+Aun82PGM8J6O6Ku5P1VEKemCJw2dgrsOgCQwEheQGgIn3R+HDIR93kwYC/NlikeC8zrzJChElRIDIgseCCJy5iKCB45A8AcouSEBlAtIx27Ji7DTDT4nBzCbaTnunJG5mD8yF3ZLa4nnq7EEG+VVI8AIwqtGnI2Xsgi0FVAi2gi7LzzF4Wt1CEVlbQSyH7VbeZoZPntELiwkM5ztzHSzXmg+ApEeDoYQPXcJwQNHITS3JPsOkBwTOVHPMqgf7HNnwFRUoDsxpedKGQURQnMzDSuETp2jYQXKaSChEg5slgpQ484Bl5UJzmyhHrCyfBdWTC2irZwVNWXmOdDNEu30iTCC0OmQsgsyBP5tBESS4MZxqG2OYvWRx7hRIbt0Zd17IC/Nio/mlNLscFbVoI/V9Jy6IEk9iEQQPnYGwYPHIAUCkEgYIamDQIiEscALFxFT6t9XbROt3IkWH9Tv5FSIIoQntQgdPY3ImfMgwlAkZELuQQCHXfDipKMEhpxcwGKi2gduhwmLxnkxdVC2GlrQ4l70sSJSYxaMIKSGndld6gQB1YuQrJY7e7cR3xytRDCSUGdIqhsmDMjEkvH5SHOYOl2dTidQdNtpUE8Ccc8Hggifu4TQsdO0DbKcaiALJpHDVJgP2+RxsAwbDIPH/dz9avJhTVbSEDKQqKxB6NAxRK/dAkTiwZLnTcjBFWTgoKsPmrPyZQ8I8W4ZOIzrn4FlEwvgIXodybvR5D667crpfhNnBKH72YzNuAcgoHxEfKE4Np+qwZm7jYiTLk7JZEaX3YSFY7yYOjiL6iTQCnMdJrv1AFO81C18pywwFkOU5CQcOobE03pV24KWQEoiDG43bONGwTpuFPicbFrxoOhfyCbtwiL+Nomx9CbJ//YFEL15B+HjpxCvrAZp45x0fhCKgCqDC1ud/VGTUQjJYlaxyU23YtW0YgwqcqvLsEvn/lJWYT/uKgQYQegqZNl1GQLfgwBJSiT6CE+bwvjyUAXuVPtpZ0cliawkx45lk4vQnwrRJFtBdvVHhVnthRB4rrohHkfszj2EDhxD7N7D1jJHYiviTTCbYCnrA+uEMTD16wPeYVdt3BUfWVXyuS1BEATEH1fSZMTojdsQnjWB4/nWUk1ICDncOOzujzP2QiDQpVsAACAASURBVCSMciMqQipsZiMWjsnFjKE5cl5Mh+WUXwhi9iMdIMAIgg6MwKaQmgjQ0keS2AYJR2404Osjj+XuwslmTsStS4Ro3hjrRbbbwnZuOlomz5UJknmJIuL3HyK4/whidx8CiUSrxyepg8FnZcIydCAso4bDlJ9LqwIogSAaGZ1I/ChBUGW+JQiNTYjduIPIxSuIl1dSTQei40CdCsncF+Rk42r+IOyNZaIpIXdqlDiA6BCN7JOGFVOKaLhLqazpcu+HjmydylNhBCGVrc/uXXMEZJIgoSkQx44LNThxo5EmKpJXN/l22Cw83hiXj+mDs2mogckwa26y1gkkcw0UESzaGrm2HmGiRHj6LKRYHJzRKOckkI829SaYwWdnwTZ+JKyjR9DcBEV5MVkG8dwNfq+HITkHtRSTnJ3UZ6DVFjdvI3LuEohcNOlKKdPRpNqjIND/bhvQF/VDx2DdUzMe1JOyW7l0U5REFGbZ8N6MEvTxupJyyl0YEtGRadlUZAQYQWArgSGgIQKKgJIgiGjwx/HFwXLcqvTJHR8luaqBhBpWTi1CH68DvCLO04k7Tg1vv9sP/R1PAkn0a3gmf5hPnUe8+ola3UBpX/KDzrtcMJYUwNKvL0z9eoPPzARHJJx5XnXty2/o7/kgtyEphKCQBEQpEEK8/DHNNYjffwShqYXqHZBrKVcj8yDkxDJ0ACJDhuNAvRFHbjVCSMg5CeQwGQ14a2IBplJyStQSO9qpsdubO+VugBGElDM5u2E9IkBKH8nu7sydRnx+6DFiCZG6c+W+QBLGlGVg+eRCZDpJVYNcb6/GmvV4Qyk2p+fi/sRoJORQXkEFlUjMn36ck94E9SNNEgR5DnxmOsz9y2AZ1B+mXsUwOJ1q46fnYEyGI74DrSRBjMch1NUjduc+oldv0nwD4sFQvAlt1woJMRjSPXC+8RqMI4fh9EM/1h+vRDAqyOWLyXLbcQPSsXxSEdLsyppj3oMUW9bMg5BqBmf3qz8EVIVFSe74ePBKHQ5erQPp26BkmJPd3OJx+Zg2JBs2M0sU058VW70DytzIbl6sa0Dk8jVEr92k4QeamyC7BuT/UD76Rh4Ghx18ejqMhV4Yc3PoDp98yHmng+os0P4PxKUkiZCiMYjNLVQWWahvRLzmCYSGJoh+P6RIlBIUJbeBjkbGMRhgcDpgHtAX1oljwXm9qApKWHu8Cner/arwEUme7Z3nxKrpxSjOtoM3yCGJ7w136NEobE4dQoB5EDoEHzuZIdBxBNqWzpH3eF1LFJ8nQw1EE4G8mBOCCFJq9vEsWUCJ7PTaJox1fBbsCp2BwHM7dcX9L0lIVFYjdPgEotduQwwFwVEZwmQ+AP2CyxUDkiDQ7pFUtMhkgsFuB5/mAWfiwZGyw3gCYiwGKRiG4PNDisXU35OqBHpessRS9gWQ68reKWOvYjimT4J58ABIdhsamyPYce4JTtxqoPOh5AOgXUbfnlZEBZEYOeiMVdF9r8EIQve1HZt5D0KgrQxzQhRx8UEzNp2sRoMvmgwpyLvOwSVurJhcSBvmKO5g+fvC3L96WQ7fyUsgExNEmiQYu/sAkUvXkKiogtDigxQn1Q5Jf4JqQ/lDLVe4tB5K+asaolDt/q1/oeWNEjgDD85mgzEvB5YhA2kFhSEzHeCNSIjA/iu12Ha25jlPFSmznTAwCwtH5yHLbWZ5B3pZVBrNgxEEjYBnwzIEvo2AkrBI/h4Ix7H3Ui0OXJZDDcmmDJQszB6WjddGe2lDJ6Zop9911Fbe+P9v7zygoyreNv5L770TIPTeS+hdKYIFRFSwoICKilgRlA4iCNhQKZa/gvhZERQbSJfee2+B9N422f6duXc32YSWQAgpcz0eILl37swzszvPvOV5lQ3f0lWFKFhiBXTnLmLKyFAsA2p6oiXx0EoWrkf88iwUtq0LE4AD9p7uOFUNx6lRXVwa1MchKECxLggrgcFk5kKihm/+vUBsSo5iMRALyWiC2iEePNo9goggN4WAWi9JQMvuOrudPZME4XaiK9uWCBQTAVtLwuXkHFZsvaxUflTtB+om4+HqyMCO4XRpGKiYhiVJKCbId+j2AqmIIrBQq8V48TKGS5fRXYrBEBOLKT1TiS9QXA2KyV/VSShwWYmB1fTgYI+9cEd4eGAf6K9IPDvVroFTjep5padVi4RKUaISNXy36RLn47PzlBCEYJe3uyMD2lahU0NVvVOm1N6hhVKGXisJQhmaDNkViYAVAREoZjSZOXA+lVXbY4hLzc3bJ8TXfPVAd4Z0FamPnsoJUJKEsr92rKJEeS4IawSqUNTMzsYYF48hLgFjShqmlDSl0qJZk6sIG2E0YDIa1WBBRydFBRFXFxysgYwimDE4CMfgIMWNIAhDIbuCwjdydEZW7ojm3/1xShqjlWuIv3duHETfliH4KZky0npQ9lfU7e+hJAi3H2P5BolAsRCwtSKIL3SR0fDP3jhEiWirJUFYDhpU9eLhLtUI83PL82NLU3CxoL5jN9vGKdjWZlA6JAIRszWYsrIxa3PVOAWDHpPegJ3FWoCjI7g4q1YD8b+Ls1pR0nJZ27SKMAnXgt5oYsvRJP7aE0t6jj7f5wE0rKbGtoQHulu9WTKu5Y6tjrLzYkkQys5cyJ5IBAogYN1EEtO1rNgew4FzqRiMqp9anEadHOzo1SKEvq1CFbdD3uYgAxbL1Uq6alCjcvy3RC1YBYps4hgK/+56A1a1NOBYVLpSOTQhPVe93ayupDB/V+5rF06LWr5q1oL4T66hcrWGbldnJUG4XcjKdiUCt4CA7aYhTMNRSRq+2xDF+fgsJRrBShL8vZwVv7EoDy3UFy1adzcU4LuFrslHSwGBvHoKRXhX4c08LzjSzg5FgMvODkEyf9xyiUMX0hS2YFHzxtnJnnvahtGreTAuotKkxQghCUIRgK8Et0iCUAkmWQ6x/CJgrdUgSMKeUyn8vD2atCyd+kVu+aKPCPZgcKdw6oULvXzpOy6/s12yPReBh4JIZuQY+WN3DNuOJZGrN6kk0s5OiV1pUdOHQR2rEmgpBiaJQcnOQXlvTRKE8j6Dsv8VHgFr+mN2rkHJXV+7Lw6dcDVYCIIgBZH1/OnfNoxgXxeFJMgv+gq/LK45wPwYFjNag4mtx5L5c08M6RpDAV2FulU8GdK5GtUsaolW1QW5dirv2ik8ckkQ5FqQCJRxBKxWBHEeTM/S8d3mKA6dV1MfhQ9ZWJHdnB3o2yaUns2CcRWqe9JUXMZn9fZ0TyEHooaHyIIxw+ELafyy7bKaBWPzSidHOx7rEUH7+oHKWhGSB/khD1J06/bMTvlrVRKE8jdnsseVEAGrFUGkP56Ny1aK65yNzcJBRJWJnHozBPo6c3+7cFrW9MXFSdZrqITLRNE6EPEFIkX2YoKGVdujOXE5w0ImVRuBCGjt2iSYXi2C8HJ1zKuzcK1aUJURRzlmFQFJEORKkAiUcQQK1moQSniw+1Qy/7fpkpL6aPUpG00mqga4M7hzVRpX81ZElGS9hjI+uSXUvQJBrSYzyVk6/til1lnIu+xEDScznRsFMaxbBMKKIGxQsoxzCU1CBWxGEoQKOKlySBUTAVt9hHSNno2HE1l/MF4Rv7HmvYtTYJMIHx7sFK7oI6jFniynAZm6ViEXhjXjQQxOBCZm5hpYfyCBtQfj0VmCEhWRJjtoWNWbBzqEUyPEQz0hyjoeFXJNlNSgJEEoKSRlOxKB24xAniXBZFL8xSnZen7dHs2uU8l5bxY/F6SgVR1fJf1RkARJEG7zxNzh5m2Jo85gYtepFEUtMT1bl1dPwWg0Uz3Yg0e6VKNWmIeyRmQw6x2euHLwekkQysEkyS5KBGwRUBT6TWaFJAhdhFU7Yzgu/My2Rf3M0LtVKPe1q6Lq6suTYoVdRNYgViGidfxyJj//d5mYlBwLOVAlu/08nbm/fTiR9fxwdpBBrBV2MZTwwCRBKGFAZXMSgduNgLXoj9gY9EYzx6IyWLUjhktJGiUaXbABswl8PZ3p0zqEjg0ClSwHWXznds/MnWlfxBWINSGCVlftiOZkdKYaV2AGE2bcnR0Usti1iTUoUbqc7sxMlb+3SoJQ/uZM9lgioJYGVpTyRK67kR0nUvhjdyypwqycF5EAHm6OPNqlOpH1/fOeUXzPMh6hXK+ivNLRwt0EpGbqFBnlg4pSolVnU40/EdUZB0SGKUWY7O3s8wSb5Roo10ugVDovCUKpwCxfIhEoeQRsBXEyRGDawUQ2WIIW899mpm4VL8XVUEep/GivZDcI/4TcIEp+TkqjRVXrIF9JMz41lz/3xLLvbBpaa0Evi9Rmo2o+ytxHhLirMQeSHJbGFFWYd0iCUGGmUg6kMiJgm94mJJh/+O8y+86kikOkCGlXRXPMZmqGejCse3WqB3kopmd7e/XnkiSUr1VjO9/i70JR89dtl9lwKEGZbuWyuJhC/Fx4pGsEjat5WbQOpOWofM32ne+tJAh3fg5kDyQCt4SAsi+YTJiAy0m5ih/68AWhtKj6psXl4GBH8xq+3NMmlKqB7gpBECdKSRJuCfpSfzgv/gTI1BjYeCSBzUcSSc/W5/VFGA8CvFwUZc129fxxEUGq1oqQ0rVU6nNWnl8oCUJ5nj3Zd4mAUhVYpQHWCn2nYjL5dsNFEtK0eT9TBHHs7Yis4899HaoQ4OmskASxcUiSUD6Wke086w0mtp1IZtX2GDJz9QVklN2dHenTOpTeLUOUdEbFqGAnrQflY5bLVi8lQShb8yF7IxG4aQSs6Y8iF/5MbCYrd8RwLi4LB8upUfxeSDB3ahjEXS1CCPAWQWuqX1oV0pEa/DcN/m18sKBbAcT87j+Xxl97YpV0RjVjQbUWuTo70K1JEH1aheDl5mQhB3Jeb+P0VOimJUGo0NMrB1eZELAVzBG7/s5Tyfy05TIZGn3e5i+U9lwdHbirhdDiD8FT0eK3HDFlTEKZWy4FZbZVcnDyciYrd0YTlZCNvb1ai0OQA2cnB9rW8VOUEn08nJRSz7JCY5mb0nLVIUkQytV0yc5KBK6PgC1JEHUa9p1L5fedsSSlaxF7iZIbbzbj5eZIn1ZhdGoUiKer0EiwmqLlabMsrTGrCJLY6A1GE8cuZSgZC2djs/MUMhX3khna1vVjYIdwAn1cLdkK0ipUluayPPZFEoTyOGuyzxKBGyBgJQpCSGn9oQT+3B1Ldq5BJQlqTKNiPRCBbJ0bBeIhSIKNJ1u6G+78ErNNYxWWA0EKVu+K4WRMlho/Yumi4Hb1q3gploOIYEs6o1rBqwCJuPMjkj0obwhIglDeZkz2VyJQBASsm4tSvCfHwJajSazZF4dGa7RsGmpwojBF39U8hB7Ng3B1cshrWRKEIoB8m24pHHMgHAhHLmbw+85oLibm5L1VWA1MJhP1q3ozqGM4EUHuODrYyxTW2zQvlbFZSRAq46zLMVcaBARBsDODqP749744Nh1JVPzYluB2xTTt7e5ErxbBdG0cpFgVbC9JFEp3qRSOOdAbTZyLz+K37TGcEpYDi9lAyVixs1PEr/q1CaVRNW8lGFXqW5TufFX0t0mCUNFnWI6v0iJQYLMBEtO1/LM3VkmPE4V9rNkLAiBPVyfuahmsZDeIvHn1yk+Rq7Qg3oGBq3EHqs7V8cvprNh2mejkXKW+hnVahMR2vXBPBrQLp06oh1qQS6as3oHZqtivlAShYs+vHF0lR0AlCWoQm7AmJKZp+XNvHLtOpyhBb8K6IC7xh7Ak9GgWTI+mwbgrMQlqkJvUSSi9RZRPDsycjc1kxfZoJfag8FU71JP+7cJoEO6luhXkPJXeJFWiN0mCUIkmWw61ciKg+rTVAj6CJAgBpTX749h1KgWd3nosVbFR3Q0hdFECFx0Vk7YkCbd/3dgGJArrjnAn/LFb6FhkK5YE6xwKslcrxJ172lahQVUvnBwlObj9s1N53yAJQuWdeznySoRAAY0EIDlLx6/b1boNBmUHUtX2BJdwd3GkZ/MgejYLUbIbFDEleUK9bavFdm6MJjPHL2WwYsdlLiXkKATNKmJlNpmJCPFQshUaifoKiJoa9tLCc9tmRjYsCYJcAxKBSoaA8F8LS0JKlo6/98ax53RKXnaDRbVZCVZs38Cfzo2CCfV1UWo5SJJQsgvFNltBtCzSUA+cT2PtgQRiknMsMtlqQS1BFKoGutG/bRWaRHgrboX8NEepXVGyMyNbsyIgCYJcCxKBSoSA7WlVWAxSs3T8viuGHSdSEBHz4hI/FwRClIZuXy+A3q1CCPF1UTYlq5lBZjfc2qLJDyBV3QcanVFx+Qj55JQMLfYOFsuAxTVUI9hDKdvcsHp+tsKt9UA+LRG4MQKSINwYI3mHRKBCIZAXk2CR6E3K0LLuYDy7TqaQKcSUFFVFNZJe+LgbVfehR7MgJSDOWvxHivDc2pKwBiMK90Fato7/jiWz5WgiomS3Sr5U/B3t7akZ6q6oXjYW5MBBrcIpL4lAaSAgCUJpoCzfIREoYwiorgRLOWgzpGn0rD8Yz+ajSarionUTMoPRbKJhVW/6tQ6jdhVPXJ1EGqRU6buZKbVNPRXxBokZWrYeT2LzoUSytAbFamMlB4IoCHfCgLZVqB7kppAzpfaCvCQCpYSAJAilBLR8jUSgrCFQWCdBFHXaeTKFDYcSFM0EIbpje4X4utKzeTDt6/vj4iTqN5BHJGQq5PVn1xZrcadw51xM0LDhYAIHL6SRqzepCpdKxoKw3NjRspafUlRLuBeUOIRC81HW1pPsT8VDQBKEijenckQSgWIhYBssJ6SYhUbCxkPxxKTkglnkOarNiRNvkLcLber60b5BAGH+rnmlpNU7pFXhasAXlk4W5ECUa950OEFJYxS4CnYgElHFX0XJ5nb1/OjVLIRgX1fU0A81SFReEoHSREAShNJEW75LIlBGEcgLXgREFUiRavfXnjjOx2fnxSQIsiCcEiJYsWE1b+5uGUyDqt55lQMVrQVZMjpvhgsTA7G/p2XrlboYQs0yKT03716x+RtNJtycHejePJjujYPw93RWizLJFNMy+qmp+N2SBKHiz7EcoUTghgjkmcCFldtkRmswcjomi/UHEzhxKRODSZjA1ROsuNfBwZ5qAW50aRJE85o+eLk6YqdUGMwXcK7MJ94C5AAUQapLSRq2HU9i39k0Jc5DwUf4Eyx/Bni7KJU1OzQIwFeQA0tFRuF3qMxY3nDxyhtuGwKSINw2aGXDEoHyhYB1UxObkUhzFHoJws2wemeM4icX5m8rQbCeasWJt0vjQO5uGYqvh1Pefmf9veJ4qESm8QIYKoCZESW3hUtBpDAqbhtV4cCClR1Go4lQfzcGtg9XyJaT4lOQCpbl69NTMXsrCULFnFc5KonATSOgbHLCrG0yYzSbScvSK5H2W44kKqWjVaJgYQuoyouNqnvRqWEgNUM8cXMR6ov5xKCyuB1stQ0UYmAwE5Oaw44Tyew/m0pKlt7CChTapFhiRJGleuFe9GoeTN0qXrgoGSKSHNz04pUPligCkiCUKJyyMYlAxUCg8GaXozNy6EI6a/bFE5WYrUbc52n5oVgbgnxd6NooSAli9PNyVgIYxX0V2ZpQQA3R4ioQ1hdRUvtkdCZr9ydwOiZTwSfPkqIqW+PsZEebOv70aR1CqI+bBav89VOZLC8V41NT8UYhCULFm1M5IolAiSBQOMhObHxnYrP590A8Jy5nkKszWk67KlkQv3d2tKNRNR86NQ5EVBxUYhNsrAkl0rEy0ojV0mL1F4hNX2QkxKXmcvhCOv8dSyI+NZd86QJrECeE+bsRWdePjg0D8fFwVgM9Fc+CzFQoI9MruyHWpLmwILiERSIgEZAIFEJAVf5T0/CEXsL6Q4nsPJmsSDVbL2vQnbgn0NuZ1nX8aFXHj3B/d1ydrQI/6gZY3sMSCn9tCnKQkqnjTGwW208kWQI7zYoVRfXIqNiJCpl1q3jSvWkQ9at64+RgwcPGaSMtB/LjV1YQkAShrMyE7IdEoAwjYKu8KOILsnOFyyFNSdm7EJ+N1iL0Y5UJNplUB0SNEA/a1vWncYQPwUo9h/wNUSUK5evEfDVikJVj4HKSht2nU9h3Jo3MHL0iiaxe+VYDoSERWT+Ark2C8HF3Ui0r1ngDC4kob3iU4SUru1YCCEiCUAIgyiYkApUBgcKpe0ajmdjUXHacTGbv6RSSMnWKidx2zzeZTLg4O1A3zIuWdXwV3YRAEZ9wDVXAsrhBXs3IKqwCghhcSMji8IUMjkdlEJ+eiyBGVsVDa70FoTrZoJqXksJYP9xTCeosfJXFcVeGNS3HeH0EJEGQK0QiIBEoMgKF5ZnFCTgjR8/xqEwl0+FUdKYSoKdaCvJ1E8QLPN2cqBXqQZPqPjSqbiEKlpO22HDLYvniq5GDbK2R09GZStCmGK8odmUwmgtIIYt4DDEeYTWJrBegBG4KqWpBjNT4TlUDQRKDIi89eeMdQEAShDsAunylRKAiIGCrvmgwmohP03LgbCp7zqQSnZyj5PmLDdGaFSlUGMWG6O7iQNUAN5rU8KFZTV+CfVyUqoXW4lGFnQ6lvYkqJ/88B4H6F/HvjGw9Z+KzOHI+neOXM5XKiwaTOa8ehVUiSigiujs70rK2L+3qBVAjxB13EaxpM+mlPaaKsN7kGEofAUkQSh9z+UaJQIVBIE8NwbKpanKNxKTksPdsCvvPpClBjIp1wMbvYCUWImBPnLDrhHkqGgDVA93x8XCyyAuru7Ktu6KkN1VbUaM8UmDzTqEBoYhFJedyMiaTk5czlVgDEaQpLAaKmJFtqqdQmLS3o16Yl1LQql41b1UuWcniKDjlJT2WCrOg5EDKFAKSIJSp6ZCdkQiULwQKbrKqDLO4srVq4N7Gw4kcOJeGzmjCUYk7KLhTivuFz97VSbUq1KvqpZQ4Dg9ww9lRCC6pMQ1io7Y+ejMWBlvXiBVhW70nZQO31DwQQ0jX6LmYkM2xKEEMMkhIz8VoFLWrVNeBtTPiOUEWxDPhAa60rR9A2zp+SlErEagorQblaz3L3hYisjLNUS4JiYBE4FYRyPfVq4Z2sfmKTV3450VNByHVfDFePX0L/7zFrGCx3yvOB+WkLZQFfb2cCPd3o2qAO+GBboqVQegpODk6KGWQVQEmS3yDjaLjtfIh8q0c6usU4SZROdGk6hboDEZF0yE1W09CmlapmXApUaOUvM7KNVgIgBolkWcJUNQmRVlmB6r4uSpZGo2reysVLkUQojUGU1oKbnVlyefvJALSgnAn0ZfvlghUMASuZrYXm6RGa1CIgpBrPnE5E43OiKMijVBwW7daC4RMsVVtMMTHlVphHkQEu1MtwB1/b2c8XBxxsLcvkCqYL0iUD6rCRRQ+opISVczIRI7WqMhGx6VpOR+fyYU4jVInQQRcCmIjilEpqseKVUG1jAhrhpX4iD+DfFzo0MCfjg0CEYWWhCVEZG2I+2wvSRIq2CKvRMORBKESTbYcqkSgtBDIM+mLFyoiS6opXpzIzydkceRiBmdjspTUSL3BZHFNWE/otjkNllgEe3B2sMfZyR4vN0e83J2UugWiWJQgC+JnogKikj1heVxYB4RlIEdrIEdnQqs3k6s3KOmJ6dk6MnOM6I0mpby1ScQUKK+yTdMU/baGHoKjoz3ebsK64UrdcC8aVPUi1M9V6YeVFMjSzKW1wuR7SgMBSRBKA2X5DolAJUSgsDXBYuBXjAYi60FYFI5cTFOIgsiAEPUejCZ1m7Y151sFhayeCbHxi5O6CEsQ7gp77NQTv/D52+ormFUXgrhXDThUWxbFEoX1wVpQynrgt4RPqETBEqAgfieqK3p7OFEn1FPJvGhY1UuRR7YGNuaJHVkakBaDSrjYK+iQJUGooBMrhyURKGsIWDdda7+EKV9s4MmZOqISNVxMUH3/yVk6JaVQqzdiSRZQSIU1YDFvXPkFJZWN3+afebcUCBK0/jTfyJDnPhAPC24i7hdWCFdnBwI8nQn1d6V6sAc1gt2p4u+mVKq0ahnk2zkKikOVNdxlfyQCN4uAJAg3i5x8TiJQyRGwDUwsqmJyYTXGfNEgFHN/SqaWmBStkgEhtBTi0nLIyDYoZEFvNCPUG/OyGWykim80FfnWAdXdoRAKi1CRyK4QbgJPdyeFFAhdhtAAN6oHuhHm54qnq5p6qUQyFEq9FO+VFoMboS9/X14RkAShvM6c7LdE4A4hYDbqiT+zl207DhOfaSSoUSe6t29MoLu1IFPRO3atWnFCgChTo1diFEQRJKGnkJShIyVDS7rGoAQ9CpeETm9S3QgWl4C68eebExT3hD2KG0L8XVgHRJaBEGsSf3q6OeDv6aLEEgT6uBDg5aTEGbg5O9pUYcwfjyQDRZ9beWf5R0AShPI/h3IEZQoB9ZSZ70O3njrLT1Ei29gBMRLlpK2qAoFZS3biUf78dTf60CC0J3ay/YSW1o8+xyM9G+BzZZmB687O9YvJWjEzKwGOGq2R7FwDmVo18DBXK4iC+JkRjc6EwSBcEmZF3VDRTTCraZPCXSCqSbo5OeAqiIGrg6J0KEiC+J010NFaQ0Ht8JVqipIclKkPmuxMKSAgCUIpgCxfUXkQMJtziE/IxdvLE3d3RwyGHNKSjASEeJYTU7SBzMxMtDoXAgPcMZu1JMXn4OXtgau7E+QmELv9M8Yv1TNo2lT62m3nk2lz2OL7CJPfGEarkOJbEQqvjuuRhoImfjslSFEEPAoCIf4ufq9yA5UgiE1fyDg7OqAINYl/2+ogWPSRrr5Ahd5C5Vm6cqQSgSsQKBGCIEyOmuxstAYjdg6ueHq542QTTWw2aIg+uI6tUV507NaOqv5uRfzgmTFoUji49h+O+LbnvrbV8XMv5hHlpifdQFZqOtk6QzFasMfB2R0fn4Ljt23ApM8lO1uDXlR9c3LDy9ONvMqwIkc7J4XTO1azX9OUB/o2x9VBO4HpuwAAIABJREFUGEeLcpnIij3Drs170DXoQffGobg6Xv1Js0lHZuwJtu4+h3NER3q0DObWv9aL0sfi3mMk7fxhtu05h2ezrrSvE4CzLVjFbe4m7zfpc4g9uZ3th8+RkZVDrsGPZgMeoomfDm2uPUEB7nlpbvrsY3y97Dxtu0XSrKEf6Ul7WPljFgOe7UlgkefyJjtaEo8ZU9ixdTcXk6ox8IGG2BtP8+3CYzS9qz0tG4Vir00mbu83TFoSR7c33uGx6if43/SJfJPYk6lTR9O9hnNJ9OKKNmzrPtzo81A4WPF6AkrW30nrwG2ZNtloOUegBAiCmeyL21n2+XL+O30Zc1gvXpo4mlYBTjgpJkkTGcf+ZMG3+wjuNpBH7mqMl6qQUqTLbMwlev8/LP10JSEjpzG8Y/UCG2qRGin2TUbgLB+PeoWFG0+iN6vpUzf6YsIpgFqdhvPe3Cdp5uN6lbeaiN23miWLf+BoqoGg5g/y8itDqOtuudWkI2bLF8z8OYcBzzxCnybhxRqrSZvCkbU/8fN/KbR/+gX61vO+6safG3eEjSuWsdOuB08+0YsaHk7FRqh0HjBjzElgx8/f8E+UN/2eeIL2Vd2v0LW/rX0xm0g5+BPzvjlCjV73cU/bahxc/h6TzvVmzmAjZ9Na8HT/MCU/X1y6jN28+94xej5wNx1bB5F8eR1LFqYzfPpgqgjp4Nva2RJo3BDPP6vXczK+NqNGtcUh9wDzpuyi3UN96R4ZgYPZiFGbSVKaHje/QNwTN/PRlOms832S6eMep03IDT8lJdBJ2YREQCJQGgjcIkEwY9aeZdn06Sy9VIUmKZvYpanJ4x98xfDGrrg5mtEnHOT7Jd9y3LMrwx7rS6NA5xtvtAVGbsaYFcPxdf/ji/88uPfF5+lW3YVrHI6vgZkZkyaZVIMHXh5uODvcCFpxBtHx36LnGfrGMlIcg6jTpiUR7td60IQhJ4lLKR60G/MJ7z1cFz/XQvea9ZhzDjJ77GzWGJtQ7+JvHPHvzVvvz6Z/NdEfM9nn1vD+3N9w7fMcj93diDCPG3a00EBM6JKO89s3S9mhbcXTzz5Iw4CCVeTMhmx2/rqIL/9M46EJr9Grni/FfcuN0CvZ35vIjd7J8i9XcCGkN08+3IM6vsW1IpnJzUwlw86XQA81/72olynjCN/Nnc9ah56MfmYIkVVcOLNiMp1ej+eVl1vS8J4RDKjlpKruiVWTuovZ847ReWBvurYOIuXSOpYsKkcEQR/PP7+t41hSHYUgOOdYCMIQC0GwAc5syOTYX1+xYPlRGj75CsN7N8SnbC+mok67vE8iIBEQkVS3VIvBZCR7/xc8/+YXpPV6mydCLxPvUp8+A3tSw80BB1MOx1cv5oOVl+k64hWGdAzHuRhfznkzZDaQFb2fRbMXcrrWSGY+354g12KcxUxGNP+9z8LEHgzq0ZKa/kX7Fks4/jvvPvUUP6c15MHJi3mrX5Wr9t+syyT+wHIW/+7M4Okv087X/goCY9amk7lhEkNmHabqiHfpp99NcnAHHujfhmDRHWMqmxZM5JOzjRn/xhO0qOZZLOtBPlZaLm76lrlf7afRsFd46u7auFmhMuvJTTnOJ1MXcLzhaOaNaIGfSzFwvFMfGVMOx1Z9wjs/p3LPc6MZ0rmaap0q6mUycOjPRfzgNJy3e3rgXoyHs4/9xJTpP2A/4GVeeaQzYY5w4Y9pdHz4BwbN/JiZL92Fj32+YLAuZadCEDoN6k231sGkXPqXxQszeGpGObEgCIKwai1Hk+syalQkLjkHmDt5F+0fLkQQTHrSz+3gu69/JL7qAEY+cRfh7g7FJP9FnUB5n0RAInAnELglgiDM/8e+fJ1XPjtK+3c/46UedfB1tMfBUf2iMGWe4rt57/FnehtemfQsbQOK861eEA5zThx/LZnOxxv9eP2jSdxV/Wom/GtAaDKQtmYm8xP78ES/SOoGFo0gGDKjOfrTywyddgjvrq+xZOFImnoW3lDN5CSe4Z933+ZIm/G89Wirq55Qdemx7Jrah/G7mzLymyUMqeaMk4MDjha/tCF2DdNeWUTaXa/y1rDOhLnd/HIwJmzjo2kfcij0YSaMHUh9b7XPZm0S8bsXMO7TTHrOnMewmha9+Zt/Vak9mXPhTya9vghd1xeZ+MzdBLsWfS2ZTQZ2/fQ+37iNZm5fTzyKwVIz9n/H5I83UGPwWEb2b4KnOZdDP85iwIhtTN/yNcOahisFhKyXLmUbs+cdptOD99CtVSjJUX/x2ccaRs55iPDy4GLQx/HPqr84mlyfUaM64JKzh1kT9tJpaD96to+wWJtM5CSc5L/Vq9mnb8iDgzvhbW+Pu7s3ni5Fn5dSWzzyRRIBicBNIXBzBMGkIfbsMQ4fOcrWnz7nh21Geo95iu5NGtGsbWtq+7lhZ2cm/fg65sxcQmbkKKa8eDcF92Uz6TFnOH7yIplGezwDqxER6ERKbBTxGWaCajeiXtXA/EA7czYHfv+Edz/YSae3FjDm7vCin1YUgjDDQhDaFZkgYM4lI2YLUx5/gf+LrcWL879k3D3h2IZhmY06Lm5fyvTPkhj+zrN0relXYCJMuhTO7DvEsTOHWfvxNNZrO/DE+OG0qlabZm2aE6ZsdEai/5jL2AUnuHvcBJ7oUR83m+9ZkyGXhAunOB0Vj8bsQmi1GlRxyuBibDJpOfZENGlB7WCvfGJijGb1vMksOFSHcZNfpGd9LwWr3ITTbJ/7KAuzn+Kdj56ntpPdHfWJG3PSiDp7mqi4NHLtPIioU4OA3BhOJ2ShNXtQp1lTqvmqRNCQc4rvxr/Gr/p+zJ46gnrBLkWef5UgzONrtxeYV0yCYIrfzddfrCTavxld2tbF207LyY2r+WrxDvrMeZu+bTvSsIqrIt8rrrJIEMz6HFJiznLiXBzZJieCq9Ui2FlDdEwcmTpHqjRoSt0QL6VKIvpY/ln1dwGC8O6EvXTMIwhmjLkp7Ph9OX/sMdDloXuombuPzUlhtInsQqsqxXX/3NT3lnxIIiARKAUEbo4gGJI5tGE1v/64glXrtxJl14C7OzelarUG3PP0k3St4YuDXQ7nNn/P1Nnrqf/k27z5cAPyvjqMOvSpJ/hz5UYOx6STmRSrlFkNqV0fv9wotu88gEvnF5g55gHqBlmP0kYubf2JedMW4frQu0we1QGPogKkEIQpzE+6hyf6ti86QRBbd2466z8fw7NTN1Jj8GQWzH2axpYTuXi9PvMCv877kC21RzNlUG0CPQt+QRo151n77Y+s2fQX36/chmP9u7inQz2q1Itk4JOP0NRX7CzpbP5gHNP+9ef1ma/QxyarwKzPIvHMHv5Zs5sLaRqSLp4l2zWAGsHBGDJOs3HTUVo8O5eZwzvj6Wy1bmg5tPQdXl8azePTJvNwpwicMZNyfitLHn+A472W8fm0fgWITlGhLKn7zLkpnNyzmY3bjpOg0RBz7Bjm6g2p5+FKfPwRth1M4b4JH/L6fY0UEmMyZLDzw7HM2hrA6/PfolMt//z1dINOqQThPb52G1NsgiBiUeKP/Me6XefIdfTE2SmQ+o1DMW1fwUHPZjTt3I/Ias6K/G6ZJAgmA/Ent7P2r61cyNKSGh1Fqr0X1UJCcNWeY8vO81QbOIE5o7rh6+p4Y4JgyCLlxGrefv1D9phq0TDUHn1qBr69RvLck/fRvCA/LqnlItuRCEgE7gACN0cQlOQEE5pTP/P6SxM5UHMcSyYPo1GoM/b2DmqUuTmJ/X8sZPKnUfR5fQYv9ArNO/Fp06PZ//Vsdgc/wKB7u2I+8gcfjHuVTWHDmTA0gn8/m8PeKqP5fMZTNKvqmfdc8oF/+GTaNKI6vM60cYOoWlTAboEgYDYQc2AVc8eOYXl6e8a99yEv9amubK5ms4n4HQt5b4WRB18dRdsQN/L26Ly+qcViYja9R/8hs6nz6kr+93JnPJwdsLemvZku8t3EV1lyrj0zpj9Hl3pelqfNZFw6zKaffyCpwWDu7d6YxF/f5a35P2G87x1G1T7EnCkLCXh8EUvH98fHJjAyavVHjJn9Lx0mz+S53s3xxUjM8V8Y1+d5vMf9wWcvtiuAnthEs+PjyHLxJcjXM+9EXFSIi3efkYRDG1i97iD+HR+kR9Mgjs0bymsrEmny8iL6Zi/m7dlr6T3lW94fGamYtUUq7enlExj3XRwPfvgegxpUKTJBvDWCoAoF2ebmKylxZpOl8p9acth6Fc2CYCInJZkUozN+vl64WyMciwdiEe42odcksHbZUo4H9uCxvs3JWL+YcRM/IqfHOKbencq8WctJ7zKZ/5t0P4Eim+VGFgR9Junn1vPNr0dI0RqUz6advQ8Nu/elZ7sGBNyeLMcijFXeIhGQCJQ0AjdNEERH4tYv5PnXP8Th4Q+Y93w/IrxsvimNMez4eT7Tlmp4cMosRkT65W30uZkJ7FnxN/79BtIo2JnTG5Yy9dXPMA+eyrThdTm3fS85VdrRvVVtfG02vYzj61kyYwr76z3L9MmPUfsq8XXZSefZ8+cv7IwxKMVXxCU2cs2Jf9iaW59W9SIItMkOsPcIp3FkL+5uG4bzNcLbDRkX2Lx0MiMmbaLRU5N5b8pTNPaxw5Rzju+nzeFMqxG8PLAt3tf5oj/4v5e555VVDP38D2YMakSBJAf9MZa88hrfa/oxa8pI2kdY8x7NpMWc48juE1Tt1Zsanhq2fDqJaV+dpc+c+TwYkcr2LScIjexLt0ahihCM9UrYuJAX315J/XEzGHtfJIF2Bi7t/5pne06g/kf/8sETzQusJc25DXy6YCmn7Fvx9ISnaR3gcfWA0vRT/PXHZk7GpHEjhQhHtyBa9BtAm4gAPAuEfRiIPXGEC8l6ardtQ6B9DD+9+CgfHq3H+O8/oFHSdrbsTaFJj75E1vRV59CoJ+b36Yz99AQ95s1nWLPq+F7h7jYQf2Qb6zbtJCpTpKrmz3/UwQ0ccOlAv3oii8XyoJ09DoGtGNC3HfXDvUrE3VIUgmBK2M+PXy9l1XFfBr84nAGtIrjCdZ+TwJFdm9mw+yLaq5Yhyp8+O3s3akZ2pUtkU4IKbNAmdDnJHNx2FN+O3anrlsHu5fN5Y9ZmOrz1Di91tmPnjgu4NuhKzyZVVFyuQhCujEEo6a8h2Z5EQCJQFhG4BYKg59Cydxk7/W8ip73PuCHtCbC1rusvs/2nuUz7PyNDpr7LU61VP7jyZW8ykpOtxcXDDQdjCluWT+e1947Tb8rHvP1wg2uavrNObVAIwo4ao5g+5XEaXMXdqctO5tKxQ1zMEOVgLZIpJiOZe77hl8xI7m7bkHDv/N3K3sWH0Or1qVfd+9qpk2Yd8Qf+ZuYLo/g/bU+mzZvNyG5VSd++gCk/2PHQ88PoVj/wOlkHWv6cPJInPknhnb8+4+nIiIJR+NrDLBr7Gj8ZBzJr8tO0q+aSt1aMBgM6nQEXNxfss4/xxcQ3WHSwDjMXTOauJoHXNLMnbVnMCxN+ocarM3j1gXaE2BmI2vsFz/SaTOOFm5g/tGGB9Zh16HuefXocO+0G8NFv73JXmA/5vbC5NTeRwwePEZ2cpVTau97l7OpNRLMW1AjwKmRZMWPQG5Tyu04uTpgS1/PG4OfYEfY8P3z+POFezlds1or+/9/vMObDI7SbM58RLSPwu4IgmMiMO8+pM1Gk5uYTBExGjm/6nrVuA3mmjVt+XIudHQ6e1WjUoDrBPq5XjWnYunUra9asueowXVxcaNKkCf369cPJSdWSKApBMF/ewKxxbzJ/UzgT//cOz/duxBUht/pMos+f5OjZeEVU63qXvYMLYbUbUKdW1UJETJBjI9pcA85i/WhO8dO8KUz7y4txcyYzrGvVK1Nci0AQzAYtlw5v4I+/dhCVpic8cgCD+rajyhUBvGXxK0/2SSIgESgqAjdPEMzx/Dl/CuOXZfLCB1N4skc9CgSWG+PY+euHTPsqjQcmzWJUB/98giCUF7OyMTm64qKP4+d3nmHWrqqM/3gBjzVzw5AaR5K9D35eHrjYnDzTj65j8fQpHGzyPNMnDqV2UQOmb8XFYEHSkHmRv5e8xWuzd1J/1EymP9ecIwsXEtXsMZ4c0Jpwr2trJGA6y6fPvcrbe1vw8/cv0bNuUMEN0HCSL157jeVpdzNr6ig61LRaEMCo15Kj0WLn7IrdxTVMHzeRHaFP8/H052gaZIc+8TKpHuEEeToXyJ6IW/cZL05eRaMJ7/BS/zaqBeHgt7zQ63Vqzl3HR08VtCAYs+I4sucQSU7hNG9TH38Xx2ueqE0mo+I2ya+Qd/XlZm9vj4PD1XAxY9DmoMk14uTmRs7OT3j0mQ/xfuIzvnq1L552WnKS49H4VCPQoj0hCMLllVN5edFpen4wn8eaVMOniKv8VlwMMTExXLx4EUEytDoter0Bs50jLm7uio5/UGAgNWrUQIy1qAQBbSrnjhzhVKo79Vo2oEaAx1WxFpYvo9F4Q5yFy0PgfKUaoBmzSXzWtJgcXXCI/Y9Ppk7gF/vBzJ4yhh61XNAmxZDiHESwl7NKcG/kYjDlkBG3l5U/H8WvVRPsjm9g9caL1Bn8AsP7tyBQuhiKuCrlbRKBso/AzROErIN8PnkiHxxuxrx5r9CveWDBE5g5hUNrljDpg9P0eHk6Y/vmZx2knF3P3OfeJLrZaMaPacLyEc+wMexR3l/0Jm3d0tn15UJO1epD3y4tCbY5xibs/YuPp00nsfvbTHt1AKFFxbcECAJmI/F7VjLj1RdYntWX8Q8GcSQxnJGjH6dT/YDrWB+MkPwPb4ycw08+L/HHu31pXKVQeKX5Mj9PfY2Pj7Zgxozn6dbQsvWZdZzd9j2zJ3+H7wNjeajmKd5780vcn57JrDH3Eai5yLo576F5+C3ubxZe4JR+duV8Xnr/P3pNnsHIu5rgjYm4078xuf8IzM/9zuevdrwSPeFrLw39eUMqO1csZu4XJ+g69kWanFrES3OPMHDxIt7u35ycqAOsXfQN3s/OoG9NNR5DEIRjX7/BhF/SGfbBLO6tH0Y+jbr+QrgVgmBt2RB/kF9++JWNm3aQ4t+WR16bSJ/azldoKhTFgmBt02qAKSrPLepyz7vPlE325Y28/eoykhsPZUyXJBaP/5DMQZOZ8cqD1HNJZcOCz4jt9CSDWlbDTXC5GxGEnDiiN7/P2K/NPPTOOwz23M/CqdP5034QU94aTrsqRUshLvZY5AMSAYlAqSNw0wRBf/ZvZk2cylrfEcx7W0jgFjZI64jasYJps38j/KFxTBjaIi91L3brZwwbMhPPe19i9F0mvnx/NZrafXjp7ceoEreLv3dpadO/H50ahpCv46Pn3MZlvDfzO0KGz+etx5pf3QR+NQhLgiCIjIaMM6z8eCITPtqMOawh94+byisDOxJ+PcVDo56cPQt45u2fSXlgMZ891pCIK5QANexa8hYTf7Nj9NTXubdNuOo6MGSz78cZjJ6yjpbDniDS4zhLvzlIvaHP8OzDHdEe3cSqQ/4Mfbo3Tat42pxCM9n1+XQmrdQxaup4HmgbhiNm0qP28u3z97Ot+Ud8NnMw3pYCfaW+6rLOs2rBZKat0PDg071xOrGG5b+ncP+MCTzesRrndm5gc0wDRo3oTA0f9Uhq0iewYfbLfHS0LhPfe43W1b2LrAB5ywQh9xy/fr6KtJCGtGkSxIEfFzNnnTdzP59AvwYBBeArDkG47bjnJpG6ewFD3/gPj24Pc1+VYyz/ejdh949gxKMd8TjzL/+cCqXvQ31oFi7SHK9OEArEIOhSSDj4A+9+HU+HMRMZUuUoX02bxNKUu5g65bnbVovhtmMlXyARkAhcgcBNE4T4zd8wadJCcgdNY8qoPtS+ynEu5/wW3pvxARfqPcHM1x4g3CL5nxWzix8nvMn3MW4ENOjBsH4RHPx2CWuiXajRvg/DRw2lY53AggTAlMnOFfN4d9Fp7p/9CU+18S/6dJYQQQAT8VuWMmH8m6xxf4r/ffgGvRoHXDe4zWTQcn7ZK7z0xQU6fLiU0S0CCbhK6YO0LR/wzDvbaPvyZEb3borizjUbiD30B19Om8fa7BA69H+Q7gGx/PbDX5zOcadhn2G8NPoBang4F4xF0J/jh1mTWBbXjrfefo6OVdVNVp9ygaNfDmXKifuY+ul4mrlS5E226GAX4U5TFqfWLufjBcs4ZKrFgyOGUe/8Kr5ec4ZMJ2/aPvQCY4b3QGy91tO1IfsQi15+k/8CHuHd8cOoWQy55VsmCJf+4I1XPyGlwxhmje6Lbs8nPND9Le5avp85j9S9MUFYoGHk7DsglGTOJSdpHwvemMmKKHs69BlM7zo6/lj6Iyc0XkR0e5gXR/WnaYhX/vq5QihpL7Mm7CkklJQ/ZP3FdXwweSabQ0cx4/WhtAwqwvzLWyQCEoFygUAxCYKZ6BMHiNc7kX7gNz75Zh8dX5vOM30bYZvAkGdC1USx6tO5/HiuOs+Of4muEaq4jRAXyk5LRWO0w97RFQ83R3TZWYi4MkdnNzxE7IGjbRVDM4aMKFZ88i7fn2/O5NkjaXG1XfZakJuMZO1czLK0TvTv0JTqivbAzV2mjIts/mcj0R5N6dWtBaEeV2vLjD4rmYvno8hxcuTkV5P48lRtxi+aTvsQzysj1sUJOWUnH4x7j+MNRjDpmT5EWAIpjbocstLTyTULv7cbrvZGNJpcDGY7nFw98PJyw9E2zw4zGlHTYfZ3pLcazivDe1DFEgFn1qWRenQ5E+Ydpf6Y2bzQ1guXO1AdUdSd0Odkk5mVjd7sgLunJ44GDdm5IvPEHhcPT7w8XG2Il4nUQz8yccafhA18kTFDIvEpjh6PyciRdd/wu/OjvNzRFbdiSC0rqyTjGMs//Y64Gv0Z/kA7NHsXMLD7RLot3XVFsKcqtSyUFPvSrVUIyZf+ZeHCDEbMGHwHlBTNymctMy0djcFOXT+OkCOqiZrtcHTxwMvTFWerypPCIoXU8hqOJotaDO0VqeXZU3bRcUhfeohiTTYfG1EcbN+qL/hidQxtnx7DkK618br5j9bNfSDlUxIBicBtQ6BYBEFkH8wZ2pk/NHVpWc+N2OSqvDDxVbrXvpZkkZFLm5Yx/+sd1B0ylid7N7wiyrpIIzPlknJmCx+/vwJ6v8n4+yNwLdbGZoasOOL0IvDRHZfibC5F6mDhm3Rc2vET70z+jKSG7fA8fRD79s8y7/UH8b9mwScdh7+dysx/XXlmwgt0qRtwFU2FInTGkMHh1V/w2d9p9HlmLPe1srVwmNBlRfPNzOmsc36A+W/2IdzjtoNRhE7f4BZDCtuWfcTiff48Pno4vRr5FFlFUW3ZTG56AgmEUNWbYhVrKtgzETVgYO//xjFg/B4m/fIjz3cOK2RBsBRrGlSOizWtWsfx5DqMvF6xJqOW5JOb+eab39A3fZSRD3e8qmXs1idftiARkAjcKQSKRRBMRiPjejfh7+zqNGrdgg7dBvH4wEgCr3MiM2efZ/13/+OvhFrcP3QQHWsW3Xec9+WeeJqt33/Cv7kdefy5ITTwLF5FPnWPMFuEbUoDag0n137N5IlLiA6uTXBoCx5+ehgD29e6brEqQ/I+vvvoK45WHcyIhzpQ16/ocsLqGA1KAZ0flv1KUq37GD6kK1UK1ywwaTm16Tu+/vEgjZ58ncHtq16ZYlcaEBX1HWY9SYf/YdkPW3Hs8AiP3N2MoJvR+y+B+ReuCl3sZhbM/oHd4UOZ+Ww76voVTFDUpe1i9txj9BjYWy33XB6rOf6+jpOJajVHh6tVcxQl3KMPsuH3dUT7RTKgV230Ont8fEOUapnykghIBCoGAsUiCEI9btdvi1l3Ukd4k7Z06xRJRBFsvdrYPfzy03qleuGQ/u0J9nIq4gnQjFGbwdF/V/Hr9kS6PvEUPeoVI/bgDs5RTtxx1q9bx9FEJ+p17EWXprUIyCureI2OmU2kn/ybL388TGCHe3m4V0Ncilyb2ExuyiV2rF7F7owQ+g65n6a2KSA2rzRmXObwpl9ZcyGUrvf2IbKGd4mIBJU83CY0cadZ9+tqzrs35t77elHT7yoBHCX/4qu2qEs+zZqvP2GPOZLHXhhKhItdXpln6wO6rD3MnX+cbvf2omPLIJJi1vP54kyemjyIUEf7Moqz7eJIYO1f6zkVW4sRI9pirz3I/Gl76DC4N13aVMdBuIc0CWz88Sv+POLCXYN7EZa2ky0ZNenUuSdtZBZDKa1G+RqJwO1HoHgE4ab7YyI7+hCHLjtQt1F9Aryci0gQUAjCuf0HiQ1qQYcanjgVy7Vw0x2+Yw+aTTpSz+7kSFo47VrXLAZBMJGTHMvpE+exr9WaJtctByliJOI5ceIiRt8GNK9TXJN9acFjIivuAifPJ+NTtxl1Aq8q3VQ6nTGlsOf3lay54MXdAzrR2u0w+3UdaF3Du8D7jfp4duxIonrd6lQN9UCTdZH9ew206lIHN3u7Iq/70hnUVd5i1nD+bBTJWT60aB6GnSmB7VviqV4/gmph3tjp00g88H+MefkzDuhDifCzw5RlpMaDYxn79H00UYUv5SURkAhUAARKiSBUAKTkECovAuZczm/6lv+tPIl3i07U9zdgPrqCmM7zea5LwRgEAZJQiBRxo9bYUfFvi45SucBQCGCJ/619LjAeQzZZl3axasMZMnUWtUo7D2pHdiayac3iBY+WCzRkJyUClRcBSRAq79zLkRcVgYT/mPPmeBavvYSjpwdCY9KU7c/Yn39gdLsrCUJRm5X3SQQkAhKBsoyAJAhleXZk38oGArmJnDxxhpikbJQzs50D9vbe1G/dlHBvqS1cNiZJ9kIiIBEoaQQkQShpRGV7EgGJgERAIiARqAAISIJQASZRDkEiIBGQCEgEJAIljYAkCCWNqGxPIiARkAhIBCQCFQABSRAqwCTKIUgEJAISAYmARKCkEZAEoaQRle1JBCQCEgGJgESgAiAgCUIFmETglmNfAAABcElEQVQ5BImAREAiIBGQCJQ0ApIglDSisj2JgERAIiARkAhUAAQkQagAkyiHIBGQCEgEJAISgZJGQBKEkkZUticRkAhIBCQCEoEKgIAkCBVgEuUQJAISAYmAREAiUNIISIJQ0ojK9iQCEgGJgERAIlABEJAEoQJMohyCREAiIBGQCEgEShoBSRBKGlHZnkRAIiARkAhIBCoAApIgVIBJlEOQCEgEJAISAYlASSMgCUJJIyrbkwhIBCQCEgGJQAVAQBKECjCJcggSAYmAREAiIBEoaQQkQShpRGV7EgGJgERAIiARqAAISIJQASZRDkEiIBGQCEgEJAIljYAkCCWNqGxPIiARkAhIBCQCFQABSRAqwCTKIUgEJAISAYmARKCkEZAEoaQRle1JBCQCEgGJgESgAiAgCUIFmEQ5BImAREAiIBGQCJQ0ApIglDSisj2JgERAIiARkAhUAAQkQagAkyiHIBGQCEgEJAISgZJG4P8Be14V6ItAuAMAAAAASUVORK5CYII=;" vertex="1" parent="1">
                    <mxGeometry x="408.23" y="200" width="178.42" height="143.43" as="geometry"/>
                </mxCell>
                <mxCell id="7" value="\(\beta\)-smoothness" style="text;html=1;strokeColor=none;fillColor=none;align=center;verticalAlign=middle;whiteSpace=wrap;rounded=0;strokeWidth=1;fontColor=#000000;fontSize=17;" vertex="1" parent="1">
                    <mxGeometry x="182" y="150" width="120" height="30" as="geometry"/>
                </mxCell>
                <mxCell id="8" value="\(\alpha\)-strongly convexity" style="text;html=1;strokeColor=none;fillColor=none;align=center;verticalAlign=middle;whiteSpace=wrap;rounded=0;strokeWidth=1;fontColor=#000000;fontSize=17;" vertex="1" parent="1">
                    <mxGeometry x="416.65" y="150" width="170" height="30" as="geometry"/>
                </mxCell>
            </root>
        </mxGraphModel>
    </diagram>
</mxfile>